<ttFont>
    <TTGlyph name="A" xMin="43" yMin="-63" xMax="1423" yMax="1481">
      <contour>
        <pt x="67" y="73" on="1"/>
        <pt x="80" y="99" on="0"/>
        <pt x="108" y="164" on="0"/>
        <pt x="120" y="202" on="1"/>
        <pt x="147" y="268" on="1"/>
        <pt x="129" y="295" on="0"/>
        <pt x="92" y="358" on="0"/>
        <pt x="62" y="424" on="0"/>
        <pt x="43" y="490" on="0"/>
        <pt x="43" y="521" on="1"/>
        <pt x="43" y="523" on="0"/>
        <pt x="74" y="526" on="0"/>
        <pt x="121" y="528" on="0"/>
        <pt x="176" y="529" on="0"/>
        <pt x="223" y="530" on="0"/>
        <pt x="254" y="531" on="0"/>
        <pt x="254" y="531" on="1"/>
        <pt x="277" y="591" on="0"/>
        <pt x="321" y="699" on="0"/>
        <pt x="365" y="809" on="0"/>
        <pt x="409" y="924" on="0"/>
        <pt x="431" y="990" on="1"/>
        <pt x="473" y="1114" on="0"/>
        <pt x="553" y="1302" on="0"/>
        <pt x="588" y="1383" on="1"/>
        <pt x="592" y="1393" on="0"/>
        <pt x="611" y="1410" on="0"/>
        <pt x="633" y="1422" on="0"/>
        <pt x="654" y="1430" on="0"/>
        <pt x="660" y="1432" on="1"/>
        <pt x="664" y="1433" on="0"/>
        <pt x="717" y="1449" on="0"/>
        <pt x="785" y="1467" on="0"/>
        <pt x="852" y="1481" on="0"/>
        <pt x="872" y="1481" on="1"/>
        <pt x="890" y="1481" on="1"/>
        <pt x="906" y="1481" on="0"/>
        <pt x="935" y="1466" on="0"/>
        <pt x="940" y="1444" on="1"/>
        <pt x="988" y="1321" on="0"/>
        <pt x="1097" y="1030" on="0"/>
        <pt x="1149" y="855" on="1"/>
        <pt x="1177" y="761" on="0"/>
        <pt x="1231" y="593" on="0"/>
        <pt x="1285" y="433" on="0"/>
        <pt x="1340" y="273" on="0"/>
        <pt x="1369" y="188" on="1"/>
        <pt x="1378" y="152" on="0"/>
        <pt x="1397" y="110" on="0"/>
        <pt x="1413" y="86" on="0"/>
        <pt x="1423" y="75" on="0"/>
        <pt x="1423" y="69" on="1"/>
        <pt x="1423" y="63" on="0"/>
        <pt x="1404" y="57" on="1"/>
        <pt x="1189" y="-13" on="1"/>
        <pt x="1165" y="-22" on="0"/>
        <pt x="1115" y="-40" on="0"/>
        <pt x="1071" y="-54" on="0"/>
        <pt x="1038" y="-63" on="0"/>
        <pt x="1031" y="-63" on="1"/>
        <pt x="1025" y="-63" on="1"/>
        <pt x="1011" y="-63" on="0"/>
        <pt x="999" y="-46" on="0"/>
        <pt x="997" y="-38" on="1"/>
        <pt x="987" y="-5" on="0"/>
        <pt x="967" y="48" on="0"/>
        <pt x="948" y="101" on="0"/>
        <pt x="929" y="161" on="0"/>
        <pt x="920" y="202" on="1"/>
        <pt x="918" y="207" on="0"/>
        <pt x="900" y="214" on="0"/>
        <pt x="875" y="218" on="0"/>
        <pt x="847" y="219" on="0"/>
        <pt x="835" y="219" on="1"/>
        <pt x="797" y="219" on="0"/>
        <pt x="750" y="218" on="0"/>
        <pt x="714" y="217" on="0"/>
        <pt x="681" y="216" on="0"/>
        <pt x="657" y="216" on="1"/>
        <pt x="628" y="216" on="0"/>
        <pt x="567" y="217" on="0"/>
        <pt x="542" y="218" on="1"/>
        <pt x="485" y="220" on="1"/>
        <pt x="459" y="148" on="0"/>
        <pt x="407" y="22" on="0"/>
        <pt x="377" y="-45" on="1"/>
        <pt x="375" y="-53" on="0"/>
        <pt x="360" y="-63" on="0"/>
        <pt x="352" y="-63" on="1"/>
        <pt x="346" y="-63" on="0"/>
        <pt x="345" y="-62" on="1"/>
        <pt x="248" y="-27" on="0"/>
        <pt x="116" y="41" on="0"/>
      </contour>
      <contour>
        <pt x="741" y="972" on="1"/>
        <pt x="717" y="883" on="0"/>
        <pt x="670" y="738" on="0"/>
        <pt x="631" y="626" on="0"/>
        <pt x="603" y="549" on="0"/>
        <pt x="597" y="528" on="1"/>
        <pt x="597" y="519" on="1"/>
        <pt x="597" y="513" on="0"/>
        <pt x="596" y="511" on="1"/>
        <pt x="836" y="511" on="1"/>
        <pt x="825" y="560" on="0"/>
        <pt x="800" y="660" on="0"/>
        <pt x="776" y="770" on="0"/>
        <pt x="752" y="896" on="0"/>
      </contour>
    </TTGlyph>
    <TTGlyph name="AE" xMin="15" yMin="-53" xMax="1765" yMax="1450">
      <contour>
        <pt x="1567" y="809" on="1"/>
        <pt x="1565" y="795" on="0"/>
        <pt x="1554" y="745" on="0"/>
        <pt x="1539" y="681" on="0"/>
        <pt x="1521" y="608" on="0"/>
        <pt x="1512" y="570" on="1"/>
        <pt x="1509" y="556" on="0"/>
        <pt x="1501" y="543" on="0"/>
        <pt x="1481" y="537" on="0"/>
        <pt x="1442" y="536" on="0"/>
        <pt x="1407" y="535" on="1"/>
        <pt x="1268" y="532" on="1"/>
        <pt x="1300" y="247" on="1"/>
        <pt x="1752" y="279" on="1"/>
        <pt x="1765" y="279" on="0"/>
        <pt x="1765" y="258" on="1"/>
        <pt x="1765" y="246" on="0"/>
        <pt x="1761" y="238" on="1"/>
        <pt x="1761" y="236" on="0"/>
        <pt x="1741" y="186" on="0"/>
        <pt x="1713" y="118" on="0"/>
        <pt x="1683" y="48" on="0"/>
        <pt x="1673" y="28" on="1"/>
        <pt x="1666" y="10" on="0"/>
        <pt x="1643" y="-11" on="0"/>
        <pt x="1613" y="-21" on="0"/>
        <pt x="1574" y="-23" on="0"/>
        <pt x="1551" y="-23" on="1"/>
        <pt x="1476" y="-23" on="0"/>
        <pt x="1314" y="-26" on="0"/>
        <pt x="1153" y="-30" on="0"/>
        <pt x="1000" y="-36" on="0"/>
        <pt x="935" y="-39" on="1"/>
        <pt x="927" y="-39" on="0"/>
        <pt x="913" y="-43" on="0"/>
        <pt x="903" y="-43" on="1"/>
        <pt x="889" y="-43" on="0"/>
        <pt x="881" y="-26" on="0"/>
        <pt x="880" y="-18" on="1"/>
        <pt x="873" y="42" on="0"/>
        <pt x="861" y="143" on="0"/>
        <pt x="852" y="202" on="1"/>
        <pt x="851" y="207" on="0"/>
        <pt x="835" y="214" on="0"/>
        <pt x="811" y="218" on="0"/>
        <pt x="783" y="219" on="0"/>
        <pt x="771" y="219" on="1"/>
        <pt x="742" y="219" on="0"/>
        <pt x="706" y="218" on="0"/>
        <pt x="677" y="217" on="0"/>
        <pt x="650" y="216" on="0"/>
        <pt x="632" y="216" on="1"/>
        <pt x="603" y="216" on="0"/>
        <pt x="543" y="217" on="0"/>
        <pt x="518" y="218" on="1"/>
        <pt x="461" y="220" on="1"/>
        <pt x="447" y="198" on="0"/>
        <pt x="419" y="154" on="0"/>
        <pt x="405" y="131" on="1"/>
        <pt x="392" y="111" on="0"/>
        <pt x="356" y="48" on="0"/>
        <pt x="318" y="-11" on="0"/>
        <pt x="282" y="-53" on="0"/>
        <pt x="270" y="-53" on="1"/>
        <pt x="264" y="-53" on="0"/>
        <pt x="263" y="-52" on="1"/>
        <pt x="175" y="-17" on="0"/>
        <pt x="57" y="51" on="0"/>
        <pt x="15" y="83" on="1"/>
        <pt x="34" y="109" on="0"/>
        <pt x="76" y="174" on="0"/>
        <pt x="93" y="202" on="1"/>
        <pt x="133" y="268" on="1"/>
        <pt x="113" y="310" on="0"/>
        <pt x="80" y="420" on="0"/>
        <pt x="80" y="480" on="1"/>
        <pt x="80" y="504" on="0"/>
        <pt x="84" y="521" on="1"/>
        <pt x="84" y="523" on="0"/>
        <pt x="116" y="526" on="0"/>
        <pt x="163" y="528" on="0"/>
        <pt x="218" y="529" on="0"/>
        <pt x="265" y="530" on="0"/>
        <pt x="297" y="530" on="0"/>
        <pt x="297" y="531" on="1"/>
        <pt x="297" y="530" on="0"/>
        <pt x="344" y="615" on="0"/>
        <pt x="421" y="753" on="0"/>
        <pt x="519" y="928" on="0"/>
        <pt x="624" y="1111" on="0"/>
        <pt x="725" y="1284" on="0"/>
        <pt x="766" y="1351" on="1"/>
        <pt x="772" y="1361" on="0"/>
        <pt x="795" y="1378" on="0"/>
        <pt x="819" y="1390" on="0"/>
        <pt x="841" y="1398" on="0"/>
        <pt x="848" y="1400" on="1"/>
        <pt x="852" y="1400" on="0"/>
        <pt x="905" y="1406" on="0"/>
        <pt x="974" y="1413" on="0"/>
        <pt x="1044" y="1419" on="0"/>
        <pt x="1065" y="1419" on="1"/>
        <pt x="1329" y="1434" on="1"/>
        <pt x="1380" y="1437" on="0"/>
        <pt x="1482" y="1443" on="0"/>
        <pt x="1569" y="1447" on="0"/>
        <pt x="1633" y="1450" on="0"/>
        <pt x="1645" y="1450" on="1"/>
        <pt x="1647" y="1450" on="0"/>
        <pt x="1659" y="1449" on="0"/>
        <pt x="1671" y="1440" on="0"/>
        <pt x="1681" y="1421" on="0"/>
        <pt x="1681" y="1403" on="1"/>
        <pt x="1681" y="1395" on="0"/>
        <pt x="1677" y="1364" on="0"/>
        <pt x="1671" y="1324" on="0"/>
        <pt x="1663" y="1279" on="0"/>
        <pt x="1659" y="1257" on="1"/>
        <pt x="1639" y="1141" on="1"/>
        <pt x="1636" y="1124" on="0"/>
        <pt x="1623" y="1106" on="0"/>
        <pt x="1593" y="1105" on="1"/>
        <pt x="1518" y="1103" on="0"/>
        <pt x="1333" y="1094" on="0"/>
        <pt x="1212" y="1090" on="1"/>
        <pt x="1235" y="845" on="1"/>
        <pt x="1286" y="847" on="0"/>
        <pt x="1382" y="851" on="0"/>
        <pt x="1462" y="854" on="0"/>
        <pt x="1520" y="856" on="0"/>
        <pt x="1532" y="856" on="1"/>
        <pt x="1532" y="856" on="0"/>
        <pt x="1543" y="855" on="0"/>
        <pt x="1556" y="847" on="0"/>
        <pt x="1567" y="827" on="0"/>
      </contour>
      <contour>
        <pt x="741" y="749" on="1"/>
        <pt x="724" y="712" on="0"/>
        <pt x="690" y="639" on="0"/>
        <pt x="662" y="578" on="0"/>
        <pt x="642" y="535" on="0"/>
        <pt x="639" y="528" on="1"/>
        <pt x="638" y="520" on="0"/>
        <pt x="634" y="511" on="1"/>
        <pt x="834" y="511" on="1"/>
        <pt x="834" y="557" on="0"/>
        <pt x="833" y="661" on="0"/>
        <pt x="832" y="772" on="0"/>
        <pt x="831" y="885" on="0"/>
        <pt x="831" y="940" on="1"/>
      </contour>
    </TTGlyph>
    <TTGlyph name="Aacute" xMin="43" yMin="-63" xMax="1423" yMax="2232">
      <component glyphName="A" x="0" y="0" flags="0x1204"/>
      <component glyphName="acute" x="404" y="334" flags="0x1004"/>
    </TTGlyph>
    <TTGlyph name="Acircumflex" xMin="43" yMin="-63" xMax="1423" yMax="2184">
      <component glyphName="A" x="0" y="0" flags="0x1204"/>
      <component glyphName="circumflex" x="215" y="334" flags="0x1004"/>
    </TTGlyph>
    <TTGlyph name="Adieresis" xMin="43" yMin="-63" xMax="1423" yMax="1912">
      <component glyphName="A" x="0" y="0" flags="0x1204"/>
      <component glyphName="dieresis" x="140" y="334" flags="0x1004"/>
    </TTGlyph>
    <TTGlyph name="Agrave" xMin="43" yMin="-63" xMax="1423" yMax="2264">
      <component glyphName="A" x="0" y="0" flags="0x1204"/>
      <component glyphName="grave" x="472" y="334" flags="0x1004"/>
    </TTGlyph>
    <TTGlyph name="Aring" xMin="43" yMin="-63" xMax="1423" yMax="2071">
      <component glyphName="A" x="0" y="0" flags="0x1204"/>
      <component glyphName="ring" x="380" y="334" flags="0x1004"/>
    </TTGlyph>
    <TTGlyph name="Atilde" xMin="43" yMin="-63" xMax="1423" yMax="2038">
      <component glyphName="A" x="0" y="0" flags="0x1204"/>
      <component glyphName="tilde" x="174" y="334" flags="0x1004"/>
    </TTGlyph>
    <TTGlyph name="B" xMin="126" yMin="-52" xMax="1432" yMax="1468">
      <contour>
        <pt x="253" y="13" on="1"/>
        <pt x="233" y="18" on="0"/>
        <pt x="219" y="39" on="0"/>
        <pt x="219" y="52" on="1"/>
        <pt x="219" y="55" on="0"/>
        <pt x="220" y="57" on="0"/>
        <pt x="220" y="60" on="1"/>
        <pt x="228" y="168" on="0"/>
        <pt x="247" y="405" on="0"/>
        <pt x="269" y="650" on="0"/>
        <pt x="291" y="894" on="0"/>
        <pt x="302" y="1009" on="1"/>
        <pt x="301" y="1009" on="1"/>
        <pt x="297" y="1009" on="0"/>
        <pt x="260" y="996" on="0"/>
        <pt x="213" y="981" on="0"/>
        <pt x="165" y="969" on="0"/>
        <pt x="150" y="969" on="1"/>
        <pt x="137" y="969" on="0"/>
        <pt x="126" y="989" on="0"/>
        <pt x="126" y="1001" on="1"/>
        <pt x="126" y="1010" on="0"/>
        <pt x="129" y="1018" on="1"/>
        <pt x="156" y="1096" on="0"/>
        <pt x="214" y="1232" on="0"/>
        <pt x="243" y="1304" on="1"/>
        <pt x="319" y="1345" on="0"/>
        <pt x="483" y="1406" on="0"/>
        <pt x="650" y="1447" on="0"/>
        <pt x="816" y="1468" on="0"/>
        <pt x="894" y="1468" on="1"/>
        <pt x="1003" y="1468" on="0"/>
        <pt x="1196" y="1422" on="0"/>
        <pt x="1339" y="1329" on="0"/>
        <pt x="1422" y="1188" on="0"/>
        <pt x="1422" y="1093" on="1"/>
        <pt x="1422" y="1052" on="0"/>
        <pt x="1386" y="976" on="0"/>
        <pt x="1329" y="907" on="0"/>
        <pt x="1259" y="848" on="0"/>
        <pt x="1225" y="824" on="1"/>
        <pt x="1273" y="789" on="0"/>
        <pt x="1350" y="732" on="0"/>
        <pt x="1404" y="670" on="0"/>
        <pt x="1432" y="593" on="0"/>
        <pt x="1432" y="538" on="1"/>
        <pt x="1432" y="454" on="0"/>
        <pt x="1373" y="301" on="0"/>
        <pt x="1270" y="170" on="0"/>
        <pt x="1129" y="64" on="0"/>
        <pt x="964" y="-11" on="0"/>
        <pt x="781" y="-52" on="0"/>
        <pt x="688" y="-52" on="1"/>
        <pt x="654" y="-52" on="0"/>
        <pt x="540" y="-38" on="0"/>
        <pt x="415" y="-19" on="0"/>
        <pt x="294" y="4" on="0"/>
      </contour>
      <contour>
        <pt x="714" y="1110" on="1"/>
        <pt x="695" y="992" on="0"/>
        <pt x="669" y="749" on="0"/>
        <pt x="650" y="520" on="0"/>
        <pt x="636" y="314" on="0"/>
        <pt x="629" y="233" on="1"/>
        <pt x="669" y="233" on="0"/>
        <pt x="762" y="242" on="0"/>
        <pt x="854" y="264" on="0"/>
        <pt x="941" y="299" on="0"/>
        <pt x="1007" y="351" on="0"/>
        <pt x="1047" y="422" on="0"/>
        <pt x="1047" y="468" on="1"/>
        <pt x="1047" y="496" on="0"/>
        <pt x="1013" y="539" on="0"/>
        <pt x="960" y="570" on="0"/>
        <pt x="896" y="591" on="0"/>
        <pt x="835" y="604" on="0"/>
        <pt x="784" y="611" on="0"/>
        <pt x="771" y="613" on="1"/>
        <pt x="757" y="615" on="0"/>
        <pt x="749" y="631" on="0"/>
        <pt x="749" y="643" on="1"/>
        <pt x="749" y="656" on="0"/>
        <pt x="781" y="708" on="0"/>
        <pt x="809" y="753" on="1"/>
        <pt x="851" y="820" on="1"/>
        <pt x="878" y="830" on="0"/>
        <pt x="941" y="860" on="0"/>
        <pt x="995" y="899" on="0"/>
        <pt x="1031" y="948" on="0"/>
        <pt x="1031" y="977" on="1"/>
        <pt x="1031" y="1059" on="0"/>
        <pt x="960" y="1146" on="0"/>
        <pt x="893" y="1146" on="1"/>
        <pt x="817" y="1146" on="0"/>
      </contour>
    </TTGlyph>
    <TTGlyph name="C" xMin="126" yMin="-52" xMax="1325" yMax="1468">
      <contour>
        <pt x="126" y="676" on="1"/>
        <pt x="126" y="786" on="0"/>
        <pt x="179" y="989" on="0"/>
        <pt x="277" y="1165" on="0"/>
        <pt x="416" y="1309" on="0"/>
        <pt x="588" y="1412" on="0"/>
        <pt x="789" y="1468" on="0"/>
        <pt x="900" y="1468" on="1"/>
        <pt x="988" y="1468" on="0"/>
        <pt x="1121" y="1445" on="0"/>
        <pt x="1220" y="1410" on="0"/>
        <pt x="1287" y="1368" on="0"/>
        <pt x="1309" y="1349" on="1"/>
        <pt x="1308" y="1349" on="0"/>
        <pt x="1308" y="1342" on="1"/>
        <pt x="1308" y="1327" on="0"/>
        <pt x="1313" y="1247" on="0"/>
        <pt x="1320" y="1149" on="0"/>
        <pt x="1325" y="1048" on="0"/>
        <pt x="1325" y="1011" on="1"/>
        <pt x="1325" y="1005" on="0"/>
        <pt x="1317" y="990" on="0"/>
        <pt x="1301" y="990" on="1"/>
        <pt x="1292" y="990" on="0"/>
        <pt x="1279" y="993" on="1"/>
        <pt x="1258" y="999" on="0"/>
        <pt x="1194" y="1042" on="0"/>
        <pt x="1109" y="1089" on="0"/>
        <pt x="1004" y="1126" on="0"/>
        <pt x="942" y="1126" on="1"/>
        <pt x="860" y="1126" on="0"/>
        <pt x="726" y="1061" on="0"/>
        <pt x="632" y="947" on="0"/>
        <pt x="580" y="790" on="0"/>
        <pt x="580" y="697" on="1"/>
        <pt x="580" y="615" on="0"/>
        <pt x="616" y="466" on="0"/>
        <pt x="689" y="354" on="0"/>
        <pt x="798" y="287" on="0"/>
        <pt x="870" y="287" on="1"/>
        <pt x="927" y="287" on="0"/>
        <pt x="1015" y="295" on="0"/>
        <pt x="1091" y="313" on="0"/>
        <pt x="1164" y="343" on="0"/>
        <pt x="1206" y="366" on="1"/>
        <pt x="1208" y="367" on="0"/>
        <pt x="1216" y="367" on="1"/>
        <pt x="1223" y="367" on="0"/>
        <pt x="1228" y="356" on="0"/>
        <pt x="1228" y="339" on="1"/>
        <pt x="1228" y="219" on="1"/>
        <pt x="1228" y="186" on="0"/>
        <pt x="1227" y="123" on="0"/>
        <pt x="1226" y="73" on="0"/>
        <pt x="1225" y="42" on="0"/>
        <pt x="1224" y="42" on="1"/>
        <pt x="1178" y="13" on="0"/>
        <pt x="1073" y="-24" on="0"/>
        <pt x="962" y="-45" on="0"/>
        <pt x="850" y="-52" on="0"/>
        <pt x="798" y="-52" on="1"/>
        <pt x="657" y="-52" on="0"/>
        <pt x="411" y="55" on="0"/>
        <pt x="230" y="247" on="0"/>
        <pt x="126" y="515" on="0"/>
      </contour>
    </TTGlyph>
    <TTGlyph name="Ccedilla" xMin="128" yMin="-596" xMax="1327" yMax="1468">
      <component glyphName="C" x="2" y="0" flags="0x1004"/>
      <component glyphName="cedilla" x="452" y="0" flags="0x1004"/>
    </TTGlyph>
    <TTGlyph name="D" xMin="117" yMin="-52" xMax="1555" yMax="1472">
      <contour>
        <pt x="171" y="-52" on="1"/>
        <pt x="160" y="-50" on="0"/>
        <pt x="150" y="-32" on="0"/>
        <pt x="150" y="-21" on="1"/>
        <pt x="150" y="-12" on="0"/>
        <pt x="154" y="-5" on="1"/>
        <pt x="277" y="230" on="1"/>
        <pt x="278" y="234" on="0"/>
        <pt x="283" y="288" on="0"/>
        <pt x="289" y="369" on="0"/>
        <pt x="296" y="469" on="0"/>
        <pt x="304" y="567" on="0"/>
        <pt x="311" y="656" on="0"/>
        <pt x="314" y="686" on="1"/>
        <pt x="315" y="698" on="0"/>
        <pt x="319" y="747" on="0"/>
        <pt x="323" y="811" on="0"/>
        <pt x="329" y="885" on="0"/>
        <pt x="332" y="922" on="1"/>
        <pt x="346" y="1131" on="1"/>
        <pt x="319" y="1125" on="0"/>
        <pt x="261" y="1112" on="0"/>
        <pt x="206" y="1102" on="0"/>
        <pt x="157" y="1095" on="0"/>
        <pt x="139" y="1095" on="1"/>
        <pt x="128" y="1095" on="0"/>
        <pt x="117" y="1115" on="0"/>
        <pt x="117" y="1126" on="1"/>
        <pt x="117" y="1139" on="0"/>
        <pt x="123" y="1145" on="1"/>
        <pt x="377" y="1382" on="1"/>
        <pt x="408" y="1410" on="0"/>
        <pt x="469" y="1445" on="0"/>
        <pt x="555" y="1465" on="0"/>
        <pt x="680" y="1472" on="0"/>
        <pt x="776" y="1472" on="1"/>
        <pt x="940" y="1472" on="0"/>
        <pt x="1194" y="1404" on="0"/>
        <pt x="1282" y="1341" on="1"/>
        <pt x="1347" y="1296" on="0"/>
        <pt x="1449" y="1198" on="0"/>
        <pt x="1519" y="1079" on="0"/>
        <pt x="1555" y="936" on="0"/>
        <pt x="1555" y="846" on="1"/>
        <pt x="1555" y="675" on="0"/>
        <pt x="1453" y="409" on="0"/>
        <pt x="1277" y="210" on="0"/>
        <pt x="1042" y="72" on="0"/>
        <pt x="775" y="-14" on="0"/>
        <pt x="490" y="-52" on="0"/>
        <pt x="353" y="-52" on="1"/>
      </contour>
      <contour>
        <pt x="752" y="1152" on="1"/>
        <pt x="740" y="1031" on="1"/>
        <pt x="734" y="968" on="0"/>
        <pt x="721" y="825" on="0"/>
        <pt x="709" y="678" on="0"/>
        <pt x="697" y="535" on="0"/>
        <pt x="687" y="411" on="0"/>
        <pt x="679" y="313" on="0"/>
        <pt x="676" y="284" on="1"/>
        <pt x="673" y="254" on="1"/>
        <pt x="794" y="254" on="0"/>
        <pt x="961" y="332" on="0"/>
        <pt x="1065" y="469" on="0"/>
        <pt x="1112" y="653" on="0"/>
        <pt x="1112" y="759" on="1"/>
        <pt x="1112" y="835" on="0"/>
        <pt x="1070" y="976" on="0"/>
        <pt x="1030" y="1040" on="1"/>
        <pt x="990" y="1104" on="0"/>
        <pt x="874" y="1168" on="0"/>
        <pt x="801" y="1168" on="1"/>
        <pt x="789" y="1168" on="0"/>
        <pt x="761" y="1157" on="0"/>
      </contour>
    </TTGlyph>
    <TTGlyph name="Delta" xMin="82" yMin="-6" xMax="1236" yMax="1233">
      <contour>
        <pt x="104" y="130" on="1"/>
        <pt x="109" y="146" on="0"/>
        <pt x="137" y="227" on="0"/>
        <pt x="179" y="342" on="0"/>
        <pt x="232" y="486" on="0"/>
        <pt x="291" y="641" on="0"/>
        <pt x="352" y="802" on="0"/>
        <pt x="411" y="952" on="0"/>
        <pt x="466" y="1085" on="0"/>
        <pt x="488" y="1135" on="1"/>
        <pt x="492" y="1145" on="0"/>
        <pt x="511" y="1162" on="0"/>
        <pt x="533" y="1174" on="0"/>
        <pt x="554" y="1182" on="0"/>
        <pt x="560" y="1184" on="1"/>
        <pt x="566" y="1185" on="0"/>
        <pt x="624" y="1201" on="0"/>
        <pt x="695" y="1219" on="0"/>
        <pt x="764" y="1233" on="0"/>
        <pt x="781" y="1233" on="1"/>
        <pt x="797" y="1233" on="0"/>
        <pt x="834" y="1222" on="0"/>
        <pt x="840" y="1196" on="1"/>
        <pt x="892" y="1062" on="0"/>
        <pt x="996" y="775" on="0"/>
        <pt x="1096" y="484" on="0"/>
        <pt x="1192" y="196" on="0"/>
        <pt x="1236" y="61" on="1"/>
        <pt x="1236" y="63" on="1"/>
        <pt x="1236" y="61" on="0"/>
        <pt x="1236" y="41" on="0"/>
        <pt x="1233" y="20" on="0"/>
        <pt x="1228" y="3" on="0"/>
        <pt x="1224" y="3" on="1"/>
        <pt x="1041" y="3" on="0"/>
        <pt x="715" y="1" on="0"/>
        <pt x="438" y="-2" on="0"/>
        <pt x="215" y="-5" on="0"/>
        <pt x="136" y="-6" on="1"/>
        <pt x="107" y="-3" on="0"/>
        <pt x="82" y="15" on="0"/>
        <pt x="82" y="37" on="1"/>
        <pt x="82" y="68" on="0"/>
      </contour>
      <contour>
        <pt x="641" y="784" on="1"/>
        <pt x="573" y="566" on="1"/>
        <pt x="560" y="524" on="0"/>
        <pt x="534" y="441" on="0"/>
        <pt x="513" y="371" on="0"/>
        <pt x="499" y="321" on="0"/>
        <pt x="497" y="312" on="1"/>
        <pt x="497" y="307" on="0"/>
        <pt x="497" y="300" on="0"/>
        <pt x="496" y="295" on="1"/>
        <pt x="736" y="295" on="1"/>
        <pt x="725" y="347" on="0"/>
        <pt x="700" y="468" on="0"/>
        <pt x="675" y="595" on="0"/>
        <pt x="651" y="724" on="0"/>
      </contour>
    </TTGlyph>
    <TTGlyph name="E" xMin="135" yMin="-52" xMax="1262" yMax="1472">
      <contour>
        <pt x="1023" y="830" on="1"/>
        <pt x="1019" y="816" on="0"/>
        <pt x="997" y="765" on="0"/>
        <pt x="968" y="701" on="0"/>
        <pt x="935" y="628" on="0"/>
        <pt x="919" y="591" on="1"/>
        <pt x="913" y="577" on="0"/>
        <pt x="903" y="564" on="0"/>
        <pt x="881" y="558" on="0"/>
        <pt x="842" y="557" on="0"/>
        <pt x="807" y="556" on="1"/>
        <pt x="668" y="553" on="1"/>
        <pt x="640" y="247" on="1"/>
        <pt x="1153" y="247" on="1"/>
        <pt x="1153" y="208" on="1"/>
        <pt x="1151" y="206" on="0"/>
        <pt x="1121" y="157" on="0"/>
        <pt x="1081" y="89" on="0"/>
        <pt x="1037" y="20" on="0"/>
        <pt x="1022" y="-1" on="1"/>
        <pt x="1012" y="-19" on="0"/>
        <pt x="986" y="-40" on="0"/>
        <pt x="955" y="-50" on="0"/>
        <pt x="918" y="-52" on="0"/>
        <pt x="896" y="-52" on="1"/>
        <pt x="806" y="-52" on="0"/>
        <pt x="611" y="-44" on="0"/>
        <pt x="417" y="-32" on="0"/>
        <pt x="232" y="-17" on="0"/>
        <pt x="153" y="-9" on="1"/>
        <pt x="146" y="-8" on="0"/>
        <pt x="135" y="6" on="0"/>
        <pt x="135" y="15" on="1"/>
        <pt x="131" y="15" on="0"/>
        <pt x="150" y="49" on="0"/>
        <pt x="184" y="103" on="0"/>
        <pt x="225" y="172" on="0"/>
        <pt x="244" y="207" on="1"/>
        <pt x="260" y="432" on="1"/>
        <pt x="264" y="489" on="0"/>
        <pt x="269" y="545" on="0"/>
        <pt x="269" y="547" on="1"/>
        <pt x="209" y="548" on="0"/>
        <pt x="150" y="558" on="0"/>
        <pt x="150" y="575" on="1"/>
        <pt x="150" y="583" on="0"/>
        <pt x="179" y="627" on="0"/>
        <pt x="221" y="684" on="0"/>
        <pt x="268" y="746" on="0"/>
        <pt x="286" y="772" on="1"/>
        <pt x="311" y="1112" on="1"/>
        <pt x="308" y="1112" on="1"/>
        <pt x="286" y="1111" on="0"/>
        <pt x="250" y="1110" on="0"/>
        <pt x="235" y="1110" on="1"/>
        <pt x="187" y="1110" on="0"/>
        <pt x="146" y="1121" on="0"/>
        <pt x="146" y="1136" on="1"/>
        <pt x="146" y="1143" on="0"/>
        <pt x="170" y="1187" on="0"/>
        <pt x="206" y="1244" on="0"/>
        <pt x="246" y="1307" on="0"/>
        <pt x="262" y="1334" on="1"/>
        <pt x="322" y="1436" on="1"/>
        <pt x="740" y="1436" on="1"/>
        <pt x="1233" y="1472" on="1"/>
        <pt x="1234" y="1472" on="0"/>
        <pt x="1243" y="1471" on="0"/>
        <pt x="1253" y="1466" on="0"/>
        <pt x="1262" y="1454" on="0"/>
        <pt x="1262" y="1443" on="1"/>
        <pt x="1247" y="1391" on="1"/>
        <pt x="1240" y="1369" on="0"/>
        <pt x="1220" y="1320" on="0"/>
        <pt x="1208" y="1294" on="1"/>
        <pt x="1164" y="1178" on="1"/>
        <pt x="1157" y="1161" on="0"/>
        <pt x="1139" y="1143" on="0"/>
        <pt x="1110" y="1142" on="1"/>
        <pt x="1034" y="1140" on="0"/>
        <pt x="847" y="1131" on="0"/>
        <pt x="726" y="1127" on="1"/>
        <pt x="722" y="1113" on="0"/>
        <pt x="722" y="1096" on="0"/>
        <pt x="720" y="1072" on="1"/>
        <pt x="715" y="1026" on="1"/>
        <pt x="713" y="994" on="0"/>
        <pt x="705" y="920" on="0"/>
        <pt x="699" y="866" on="1"/>
        <pt x="750" y="868" on="0"/>
        <pt x="847" y="872" on="0"/>
        <pt x="927" y="875" on="0"/>
        <pt x="986" y="877" on="0"/>
        <pt x="998" y="877" on="1"/>
        <pt x="1006" y="877" on="0"/>
        <pt x="1026" y="865" on="0"/>
        <pt x="1026" y="848" on="1"/>
        <pt x="1026" y="840" on="0"/>
      </contour>
    </TTGlyph>
    <TTGlyph name="Eacute" xMin="135" yMin="-52" xMax="1262" yMax="2232">
      <component glyphName="E" x="0" y="0" flags="0x1204"/>
      <component glyphName="acute" x="367" y="334" flags="0x1004"/>
    </TTGlyph>
    <TTGlyph name="Ecircumflex" xMin="135" yMin="-52" xMax="1262" yMax="2184">
      <component glyphName="E" x="0" y="0" flags="0x1204"/>
      <component glyphName="circumflex" x="178" y="334" flags="0x1004"/>
    </TTGlyph>
    <TTGlyph name="Edieresis" xMin="135" yMin="-52" xMax="1262" yMax="1912">
      <component glyphName="E" x="0" y="0" flags="0x1204"/>
      <component glyphName="dieresis" x="102" y="334" flags="0x1004"/>
    </TTGlyph>
    <TTGlyph name="Egrave" xMin="135" yMin="-52" xMax="1262" yMax="2264">
      <component glyphName="E" x="0" y="0" flags="0x1204"/>
      <component glyphName="grave" x="434" y="334" flags="0x1004"/>
    </TTGlyph>
    <TTGlyph name="Eth" xMin="57" yMin="-51" xMax="1560" yMax="1449">
      <contour>
        <pt x="331" y="831" on="1"/>
        <pt x="344" y="1016" on="1"/>
        <pt x="346" y="1040" on="0"/>
        <pt x="349" y="1086" on="0"/>
        <pt x="351" y="1109" on="1"/>
        <pt x="324" y="1103" on="0"/>
        <pt x="266" y="1093" on="0"/>
        <pt x="211" y="1085" on="0"/>
        <pt x="162" y="1080" on="0"/>
        <pt x="144" y="1080" on="1"/>
        <pt x="133" y="1080" on="0"/>
        <pt x="122" y="1100" on="0"/>
        <pt x="122" y="1111" on="1"/>
        <pt x="122" y="1124" on="0"/>
        <pt x="128" y="1130" on="1"/>
        <pt x="382" y="1360" on="1"/>
        <pt x="412" y="1387" on="0"/>
        <pt x="471" y="1422" on="0"/>
        <pt x="553" y="1442" on="0"/>
        <pt x="669" y="1449" on="0"/>
        <pt x="758" y="1449" on="1"/>
        <pt x="849" y="1449" on="0"/>
        <pt x="1039" y="1427" on="0"/>
        <pt x="1217" y="1373" on="0"/>
        <pt x="1374" y="1284" on="0"/>
        <pt x="1492" y="1150" on="0"/>
        <pt x="1560" y="967" on="0"/>
        <pt x="1560" y="846" on="1"/>
        <pt x="1560" y="675" on="0"/>
        <pt x="1458" y="413" on="0"/>
        <pt x="1282" y="219" on="0"/>
        <pt x="1047" y="86" on="0"/>
        <pt x="780" y="2" on="0"/>
        <pt x="495" y="-40" on="0"/>
        <pt x="358" y="-46" on="1"/>
        <pt x="176" y="-51" on="1"/>
        <pt x="165" y="-49" on="0"/>
        <pt x="155" y="-31" on="0"/>
        <pt x="155" y="-20" on="1"/>
        <pt x="155" y="-11" on="0"/>
        <pt x="159" y="-4" on="1"/>
        <pt x="282" y="230" on="1"/>
        <pt x="283" y="234" on="0"/>
        <pt x="288" y="290" on="0"/>
        <pt x="294" y="373" on="0"/>
        <pt x="302" y="474" on="0"/>
        <pt x="306" y="524" on="1"/>
        <pt x="263" y="523" on="0"/>
        <pt x="196" y="523" on="0"/>
        <pt x="176" y="523" on="1"/>
        <pt x="116" y="523" on="0"/>
        <pt x="57" y="534" on="0"/>
        <pt x="57" y="551" on="1"/>
        <pt x="57" y="556" on="0"/>
        <pt x="82" y="602" on="0"/>
        <pt x="122" y="663" on="0"/>
        <pt x="173" y="731" on="0"/>
        <pt x="223" y="790" on="0"/>
        <pt x="269" y="828" on="0"/>
        <pt x="284" y="829" on="1"/>
      </contour>
      <contour>
        <pt x="757" y="1130" on="1"/>
        <pt x="752" y="1085" on="0"/>
        <pt x="737" y="938" on="0"/>
        <pt x="729" y="847" on="1"/>
        <pt x="792" y="850" on="0"/>
        <pt x="888" y="853" on="0"/>
        <pt x="905" y="853" on="1"/>
        <pt x="913" y="853" on="0"/>
        <pt x="933" y="841" on="0"/>
        <pt x="933" y="824" on="1"/>
        <pt x="933" y="815" on="0"/>
        <pt x="914" y="767" on="0"/>
        <pt x="884" y="698" on="0"/>
        <pt x="846" y="613" on="0"/>
        <pt x="826" y="567" on="1"/>
        <pt x="821" y="553" on="0"/>
        <pt x="813" y="539" on="0"/>
        <pt x="791" y="533" on="0"/>
        <pt x="745" y="532" on="0"/>
        <pt x="702" y="531" on="1"/>
        <pt x="678" y="255" on="1"/>
        <pt x="799" y="255" on="0"/>
        <pt x="966" y="333" on="0"/>
        <pt x="1070" y="469" on="0"/>
        <pt x="1117" y="653" on="0"/>
        <pt x="1117" y="759" on="1"/>
        <pt x="1117" y="835" on="0"/>
        <pt x="1075" y="976" on="0"/>
        <pt x="995" y="1082" on="0"/>
        <pt x="879" y="1146" on="0"/>
        <pt x="806" y="1146" on="1"/>
        <pt x="794" y="1146" on="0"/>
        <pt x="766" y="1135" on="0"/>
      </contour>
    </TTGlyph>
    <TTGlyph name="Euro" xMin="106" yMin="-52" xMax="1461" yMax="1449">
      <contour>
        <pt x="971" y="941" on="1"/>
        <pt x="982" y="941" on="0"/>
        <pt x="993" y="937" on="0"/>
        <pt x="998" y="931" on="0"/>
        <pt x="999" y="924" on="0"/>
        <pt x="1001" y="920" on="1"/>
        <pt x="1009" y="900" on="0"/>
        <pt x="1016" y="848" on="0"/>
        <pt x="1016" y="823" on="1"/>
        <pt x="1016" y="791" on="0"/>
        <pt x="1006" y="758" on="0"/>
        <pt x="973" y="742" on="0"/>
        <pt x="911" y="740" on="0"/>
        <pt x="859" y="740" on="1"/>
        <pt x="720" y="740" on="1"/>
        <pt x="718" y="723" on="0"/>
        <pt x="716" y="686" on="0"/>
        <pt x="716" y="667" on="1"/>
        <pt x="971" y="659" on="1"/>
        <pt x="987" y="659" on="0"/>
        <pt x="1005" y="634" on="0"/>
        <pt x="1014" y="598" on="0"/>
        <pt x="1016" y="557" on="0"/>
        <pt x="1016" y="541" on="1"/>
        <pt x="1016" y="509" on="0"/>
        <pt x="1006" y="476" on="0"/>
        <pt x="973" y="460" on="0"/>
        <pt x="911" y="458" on="0"/>
        <pt x="859" y="458" on="1"/>
        <pt x="756" y="458" on="1"/>
        <pt x="790" y="380" on="0"/>
        <pt x="915" y="287" on="0"/>
        <pt x="1006" y="287" on="1"/>
        <pt x="1063" y="287" on="0"/>
        <pt x="1151" y="295" on="0"/>
        <pt x="1227" y="313" on="0"/>
        <pt x="1300" y="343" on="0"/>
        <pt x="1342" y="366" on="1"/>
        <pt x="1345" y="367" on="0"/>
        <pt x="1352" y="367" on="1"/>
        <pt x="1359" y="367" on="0"/>
        <pt x="1364" y="356" on="0"/>
        <pt x="1364" y="339" on="1"/>
        <pt x="1364" y="303" on="0"/>
        <pt x="1364" y="201" on="0"/>
        <pt x="1363" y="108" on="0"/>
        <pt x="1361" y="42" on="0"/>
        <pt x="1360" y="42" on="1"/>
        <pt x="1314" y="13" on="0"/>
        <pt x="1209" y="-24" on="0"/>
        <pt x="1098" y="-45" on="0"/>
        <pt x="986" y="-52" on="0"/>
        <pt x="934" y="-52" on="1"/>
        <pt x="814" y="-52" on="0"/>
        <pt x="601" y="21" on="0"/>
        <pt x="430" y="156" on="0"/>
        <pt x="309" y="346" on="0"/>
        <pt x="282" y="463" on="1"/>
        <pt x="230" y="463" on="0"/>
        <pt x="162" y="462" on="0"/>
        <pt x="122" y="467" on="0"/>
        <pt x="106" y="480" on="0"/>
        <pt x="106" y="495" on="1"/>
        <pt x="106" y="498" on="0"/>
        <pt x="109" y="580" on="0"/>
        <pt x="117" y="644" on="1"/>
        <pt x="124" y="656" on="0"/>
        <pt x="145" y="668" on="0"/>
        <pt x="165" y="674" on="0"/>
        <pt x="178" y="675" on="0"/>
        <pt x="178" y="675" on="1"/>
        <pt x="189" y="675" on="0"/>
        <pt x="233" y="675" on="0"/>
        <pt x="262" y="674" on="1"/>
        <pt x="263" y="692" on="0"/>
        <pt x="265" y="728" on="0"/>
        <pt x="267" y="745" on="1"/>
        <pt x="225" y="745" on="0"/>
        <pt x="170" y="744" on="0"/>
        <pt x="139" y="750" on="0"/>
        <pt x="126" y="766" on="0"/>
        <pt x="126" y="782" on="1"/>
        <pt x="126" y="799" on="0"/>
        <pt x="130" y="819" on="1"/>
        <pt x="133" y="866" on="1"/>
        <pt x="134" y="885" on="0"/>
        <pt x="135" y="920" on="0"/>
        <pt x="137" y="926" on="1"/>
        <pt x="144" y="938" on="0"/>
        <pt x="165" y="950" on="0"/>
        <pt x="185" y="956" on="0"/>
        <pt x="198" y="957" on="0"/>
        <pt x="198" y="957" on="1"/>
        <pt x="212" y="957" on="0"/>
        <pt x="274" y="957" on="0"/>
        <pt x="319" y="956" on="1"/>
        <pt x="361" y="1065" on="0"/>
        <pt x="502" y="1246" on="0"/>
        <pt x="687" y="1377" on="0"/>
        <pt x="911" y="1449" on="0"/>
        <pt x="1036" y="1449" on="1"/>
        <pt x="1124" y="1449" on="0"/>
        <pt x="1257" y="1426" on="0"/>
        <pt x="1356" y="1391" on="0"/>
        <pt x="1423" y="1349" on="0"/>
        <pt x="1445" y="1330" on="1"/>
        <pt x="1444" y="1330" on="0"/>
        <pt x="1444" y="1323" on="1"/>
        <pt x="1444" y="1308" on="0"/>
        <pt x="1449" y="1228" on="0"/>
        <pt x="1456" y="1130" on="0"/>
        <pt x="1461" y="1029" on="0"/>
        <pt x="1461" y="992" on="1"/>
        <pt x="1461" y="986" on="0"/>
        <pt x="1453" y="971" on="0"/>
        <pt x="1437" y="971" on="1"/>
        <pt x="1428" y="971" on="0"/>
        <pt x="1415" y="974" on="1"/>
        <pt x="1394" y="980" on="0"/>
        <pt x="1330" y="1023" on="0"/>
        <pt x="1245" y="1070" on="0"/>
        <pt x="1140" y="1107" on="0"/>
        <pt x="1078" y="1107" on="1"/>
        <pt x="982" y="1107" on="0"/>
        <pt x="837" y="1021" on="0"/>
        <pt x="789" y="946" on="1"/>
      </contour>
    </TTGlyph>
    <TTGlyph name="F" xMin="132" yMin="-70" xMax="1337" yMax="1473">
      <contour>
        <pt x="1135" y="822" on="1"/>
        <pt x="1131" y="807" on="0"/>
        <pt x="1109" y="751" on="0"/>
        <pt x="1081" y="680" on="0"/>
        <pt x="1047" y="601" on="0"/>
        <pt x="1031" y="563" on="1"/>
        <pt x="1024" y="546" on="0"/>
        <pt x="1005" y="530" on="0"/>
        <pt x="976" y="529" on="1"/>
        <pt x="684" y="524" on="1"/>
        <pt x="648" y="80" on="1"/>
        <pt x="647" y="71" on="0"/>
        <pt x="639" y="54" on="0"/>
        <pt x="631" y="49" on="1"/>
        <pt x="628" y="47" on="0"/>
        <pt x="587" y="28" on="0"/>
        <pt x="525" y="2" on="0"/>
        <pt x="451" y="-28" on="0"/>
        <pt x="379" y="-53" on="0"/>
        <pt x="319" y="-70" on="0"/>
        <pt x="302" y="-70" on="1"/>
        <pt x="282" y="-70" on="0"/>
        <pt x="249" y="-55" on="0"/>
        <pt x="249" y="-32" on="1"/>
        <pt x="248" y="18" on="0"/>
        <pt x="255" y="139" on="0"/>
        <pt x="265" y="264" on="0"/>
        <pt x="277" y="385" on="0"/>
        <pt x="281" y="435" on="1"/>
        <pt x="288" y="519" on="1"/>
        <pt x="204" y="519" on="0"/>
        <pt x="132" y="528" on="0"/>
        <pt x="132" y="547" on="1"/>
        <pt x="132" y="560" on="0"/>
        <pt x="147" y="581" on="1"/>
        <pt x="168" y="610" on="0"/>
        <pt x="221" y="692" on="0"/>
        <pt x="270" y="770" on="0"/>
        <pt x="307" y="830" on="0"/>
        <pt x="312" y="837" on="1"/>
        <pt x="331" y="1112" on="1"/>
        <pt x="312" y="1112" on="0"/>
        <pt x="284" y="1111" on="0"/>
        <pt x="261" y="1110" on="0"/>
        <pt x="241" y="1109" on="0"/>
        <pt x="230" y="1109" on="1"/>
        <pt x="182" y="1109" on="0"/>
        <pt x="141" y="1120" on="0"/>
        <pt x="141" y="1135" on="1"/>
        <pt x="141" y="1142" on="0"/>
        <pt x="165" y="1186" on="0"/>
        <pt x="200" y="1243" on="0"/>
        <pt x="241" y="1306" on="0"/>
        <pt x="257" y="1333" on="1"/>
        <pt x="317" y="1435" on="1"/>
        <pt x="772" y="1451" on="1"/>
        <pt x="860" y="1454" on="0"/>
        <pt x="1034" y="1461" on="0"/>
        <pt x="1181" y="1467" on="0"/>
        <pt x="1287" y="1472" on="0"/>
        <pt x="1308" y="1473" on="1"/>
        <pt x="1309" y="1473" on="0"/>
        <pt x="1318" y="1472" on="0"/>
        <pt x="1328" y="1467" on="0"/>
        <pt x="1337" y="1455" on="0"/>
        <pt x="1337" y="1444" on="1"/>
        <pt x="1337" y="1438" on="0"/>
        <pt x="1309" y="1370" on="0"/>
        <pt x="1283" y="1303" on="1"/>
        <pt x="1239" y="1187" on="1"/>
        <pt x="1232" y="1170" on="0"/>
        <pt x="1214" y="1152" on="0"/>
        <pt x="1185" y="1151" on="1"/>
        <pt x="1151" y="1150" on="0"/>
        <pt x="1081" y="1146" on="0"/>
        <pt x="1044" y="1144" on="1"/>
        <pt x="740" y="1129" on="1"/>
        <pt x="734" y="1090" on="0"/>
        <pt x="729" y="1052" on="0"/>
        <pt x="728" y="1027" on="0"/>
        <pt x="728" y="1002" on="0"/>
        <pt x="727" y="975" on="1"/>
        <pt x="726" y="956" on="0"/>
        <pt x="723" y="930" on="0"/>
        <pt x="720" y="905" on="0"/>
        <pt x="717" y="877" on="0"/>
        <pt x="716" y="856" on="1"/>
        <pt x="782" y="858" on="0"/>
        <pt x="909" y="862" on="0"/>
        <pt x="1016" y="866" on="0"/>
        <pt x="1094" y="869" on="0"/>
        <pt x="1110" y="869" on="1"/>
        <pt x="1118" y="869" on="0"/>
        <pt x="1138" y="857" on="0"/>
        <pt x="1138" y="840" on="1"/>
        <pt x="1138" y="832" on="0"/>
      </contour>
    </TTGlyph>
    <TTGlyph name="G" xMin="125" yMin="-52" xMax="1514" yMax="1469">
      <contour>
        <pt x="125" y="646" on="1"/>
        <pt x="125" y="761" on="0"/>
        <pt x="178" y="972" on="0"/>
        <pt x="276" y="1155" on="0"/>
        <pt x="415" y="1304" on="0"/>
        <pt x="587" y="1411" on="0"/>
        <pt x="788" y="1469" on="0"/>
        <pt x="899" y="1469" on="1"/>
        <pt x="987" y="1469" on="0"/>
        <pt x="1120" y="1446" on="0"/>
        <pt x="1219" y="1411" on="0"/>
        <pt x="1286" y="1369" on="0"/>
        <pt x="1308" y="1350" on="1"/>
        <pt x="1307" y="1350" on="0"/>
        <pt x="1307" y="1343" on="1"/>
        <pt x="1307" y="1328" on="0"/>
        <pt x="1312" y="1248" on="0"/>
        <pt x="1319" y="1150" on="0"/>
        <pt x="1324" y="1049" on="0"/>
        <pt x="1324" y="1012" on="1"/>
        <pt x="1324" y="1006" on="0"/>
        <pt x="1316" y="991" on="0"/>
        <pt x="1300" y="991" on="1"/>
        <pt x="1291" y="991" on="0"/>
        <pt x="1278" y="994" on="1"/>
        <pt x="1257" y="1000" on="0"/>
        <pt x="1193" y="1043" on="0"/>
        <pt x="1108" y="1090" on="0"/>
        <pt x="1003" y="1127" on="0"/>
        <pt x="941" y="1127" on="1"/>
        <pt x="859" y="1127" on="0"/>
        <pt x="725" y="1058" on="0"/>
        <pt x="631" y="935" on="0"/>
        <pt x="579" y="766" on="0"/>
        <pt x="579" y="667" on="1"/>
        <pt x="579" y="580" on="0"/>
        <pt x="611" y="428" on="0"/>
        <pt x="676" y="317" on="0"/>
        <pt x="772" y="253" on="0"/>
        <pt x="837" y="253" on="1"/>
        <pt x="900" y="253" on="0"/>
        <pt x="980" y="280" on="1"/>
        <pt x="1003" y="421" on="1"/>
        <pt x="812" y="421" on="1"/>
        <pt x="834" y="542" on="0"/>
        <pt x="866" y="680" on="0"/>
        <pt x="894" y="750" on="0"/>
        <pt x="924" y="768" on="0"/>
        <pt x="944" y="768" on="1"/>
        <pt x="1470" y="768" on="1"/>
        <pt x="1493" y="768" on="0"/>
        <pt x="1514" y="762" on="0"/>
        <pt x="1514" y="744" on="1"/>
        <pt x="1514" y="735" on="0"/>
        <pt x="1510" y="710" on="0"/>
        <pt x="1507" y="692" on="1"/>
        <pt x="1457" y="524" on="1"/>
        <pt x="1448" y="492" on="0"/>
        <pt x="1436" y="457" on="0"/>
        <pt x="1418" y="440" on="0"/>
        <pt x="1387" y="437" on="0"/>
        <pt x="1358" y="437" on="1"/>
        <pt x="1342" y="437" on="0"/>
        <pt x="1336" y="411" on="0"/>
        <pt x="1334" y="397" on="1"/>
        <pt x="1328" y="353" on="0"/>
        <pt x="1316" y="266" on="0"/>
        <pt x="1305" y="191" on="0"/>
        <pt x="1293" y="134" on="0"/>
        <pt x="1287" y="121" on="1"/>
        <pt x="1219" y="78" on="0"/>
        <pt x="1108" y="13" on="0"/>
        <pt x="998" y="-30" on="0"/>
        <pt x="876" y="-52" on="0"/>
        <pt x="797" y="-52" on="1"/>
        <pt x="656" y="-52" on="0"/>
        <pt x="410" y="50" on="0"/>
        <pt x="229" y="235" on="0"/>
        <pt x="125" y="491" on="0"/>
      </contour>
    </TTGlyph>
    <TTGlyph name="Gbreve" xMin="125" yMin="-52" xMax="1514" yMax="1801">
      <component glyphName="G" x="0" y="0" flags="0x1204"/>
      <component glyphName="breve" x="469" y="313" flags="0x1004"/>
    </TTGlyph>
    <TTGlyph name="H" xMin="81" yMin="-69" xMax="1493" yMax="1472">
      <contour>
        <pt x="1065" y="1317" on="1"/>
        <pt x="1065" y="1353" on="0"/>
        <pt x="1078" y="1380" on="0"/>
        <pt x="1098" y="1385" on="1"/>
        <pt x="1442" y="1468" on="1"/>
        <pt x="1455" y="1472" on="0"/>
        <pt x="1469" y="1472" on="1"/>
        <pt x="1483" y="1472" on="0"/>
        <pt x="1493" y="1455" on="0"/>
        <pt x="1493" y="1429" on="1"/>
        <pt x="1481" y="1272" on="1"/>
        <pt x="1476" y="1203" on="0"/>
        <pt x="1464" y="1067" on="0"/>
        <pt x="1452" y="1016" on="1"/>
        <pt x="1434" y="874" on="1"/>
        <pt x="1426" y="811" on="0"/>
        <pt x="1412" y="664" on="0"/>
        <pt x="1404" y="573" on="1"/>
        <pt x="1357" y="80" on="1"/>
        <pt x="1356" y="71" on="0"/>
        <pt x="1350" y="53" on="0"/>
        <pt x="1340" y="49" on="1"/>
        <pt x="1333" y="46" on="0"/>
        <pt x="1282" y="26" on="0"/>
        <pt x="1212" y="0" on="0"/>
        <pt x="1132" y="-29" on="0"/>
        <pt x="1060" y="-53" on="0"/>
        <pt x="1004" y="-69" on="0"/>
        <pt x="994" y="-69" on="1"/>
        <pt x="980" y="-69" on="0"/>
        <pt x="959" y="-54" on="0"/>
        <pt x="959" y="-33" on="1"/>
        <pt x="959" y="88" on="0"/>
        <pt x="987" y="341" on="0"/>
        <pt x="998" y="466" on="1"/>
        <pt x="1000" y="480" on="0"/>
        <pt x="999" y="504" on="0"/>
        <pt x="1001" y="518" on="1"/>
        <pt x="635" y="518" on="1"/>
        <pt x="594" y="80" on="1"/>
        <pt x="593" y="71" on="0"/>
        <pt x="588" y="54" on="0"/>
        <pt x="577" y="49" on="1"/>
        <pt x="573" y="47" on="0"/>
        <pt x="502" y="22" on="0"/>
        <pt x="409" y="-11" on="0"/>
        <pt x="318" y="-44" on="0"/>
        <pt x="294" y="-53" on="1"/>
        <pt x="282" y="-58" on="0"/>
        <pt x="247" y="-69" on="0"/>
        <pt x="230" y="-69" on="1"/>
        <pt x="216" y="-69" on="0"/>
        <pt x="195" y="-53" on="0"/>
        <pt x="195" y="-32" on="1"/>
        <pt x="195" y="16" on="0"/>
        <pt x="202" y="139" on="0"/>
        <pt x="212" y="274" on="0"/>
        <pt x="226" y="416" on="0"/>
        <pt x="233" y="485" on="1"/>
        <pt x="235" y="514" on="1"/>
        <pt x="154" y="514" on="0"/>
        <pt x="81" y="523" on="0"/>
        <pt x="81" y="542" on="1"/>
        <pt x="81" y="555" on="0"/>
        <pt x="96" y="576" on="1"/>
        <pt x="116" y="604" on="0"/>
        <pt x="169" y="683" on="0"/>
        <pt x="218" y="760" on="0"/>
        <pt x="257" y="821" on="0"/>
        <pt x="263" y="830" on="1"/>
        <pt x="286" y="1071" on="1"/>
        <pt x="286" y="1073" on="0"/>
        <pt x="290" y="1129" on="0"/>
        <pt x="296" y="1206" on="0"/>
        <pt x="303" y="1288" on="0"/>
        <pt x="306" y="1317" on="1"/>
        <pt x="308" y="1352" on="0"/>
        <pt x="315" y="1380" on="0"/>
        <pt x="335" y="1385" on="1"/>
        <pt x="675" y="1468" on="1"/>
        <pt x="688" y="1472" on="0"/>
        <pt x="702" y="1472" on="1"/>
        <pt x="716" y="1472" on="0"/>
        <pt x="726" y="1455" on="0"/>
        <pt x="726" y="1429" on="1"/>
        <pt x="719" y="1357" on="0"/>
        <pt x="711" y="1239" on="0"/>
        <pt x="702" y="1137" on="0"/>
        <pt x="692" y="1045" on="0"/>
        <pt x="683" y="997" on="1"/>
        <pt x="663" y="842" on="1"/>
        <pt x="1026" y="846" on="1"/>
        <pt x="1035" y="979" on="0"/>
        <pt x="1057" y="1165" on="0"/>
        <pt x="1060" y="1219" on="1"/>
        <pt x="1063" y="1270" on="0"/>
        <pt x="1065" y="1314" on="0"/>
      </contour>
    </TTGlyph>
    <TTGlyph name="I" xMin="139" yMin="-69" xMax="664" yMax="1472">
      <contour>
        <pt x="139" y="-32" on="1"/>
        <pt x="189" y="652" on="1"/>
        <pt x="214" y="996" on="0"/>
        <pt x="238" y="1318" on="0"/>
        <pt x="238" y="1317" on="1"/>
        <pt x="239" y="1335" on="0"/>
        <pt x="241" y="1359" on="0"/>
        <pt x="247" y="1375" on="0"/>
        <pt x="257" y="1383" on="0"/>
        <pt x="267" y="1385" on="1"/>
        <pt x="613" y="1468" on="1"/>
        <pt x="626" y="1472" on="0"/>
        <pt x="640" y="1472" on="1"/>
        <pt x="654" y="1472" on="0"/>
        <pt x="664" y="1455" on="0"/>
        <pt x="664" y="1429" on="1"/>
        <pt x="657" y="1367" on="0"/>
        <pt x="649" y="1259" on="0"/>
        <pt x="644" y="1161" on="0"/>
        <pt x="640" y="1070" on="0"/>
        <pt x="637" y="1025" on="1"/>
        <pt x="631" y="976" on="0"/>
        <pt x="622" y="878" on="0"/>
        <pt x="614" y="773" on="0"/>
        <pt x="605" y="656" on="0"/>
        <pt x="599" y="587" on="1"/>
        <pt x="555" y="60" on="1"/>
        <pt x="554" y="51" on="0"/>
        <pt x="549" y="34" on="0"/>
        <pt x="538" y="29" on="1"/>
        <pt x="537" y="29" on="0"/>
        <pt x="515" y="21" on="0"/>
        <pt x="479" y="8" on="0"/>
        <pt x="431" y="-6" on="0"/>
        <pt x="404" y="-12" on="1"/>
        <pt x="359" y="-22" on="0"/>
        <pt x="292" y="-42" on="0"/>
        <pt x="240" y="-59" on="0"/>
        <pt x="196" y="-69" on="0"/>
        <pt x="174" y="-69" on="1"/>
        <pt x="159" y="-69" on="0"/>
        <pt x="139" y="-53" on="0"/>
      </contour>
    </TTGlyph>
    <TTGlyph name="Iacute" xMin="113" yMin="-69" xMax="678" yMax="2232">
      <component glyphName="I" x="0" y="0" flags="0x1204"/>
      <component glyphName="acute" x="66" y="334" flags="0x1004"/>
    </TTGlyph>
    <TTGlyph name="Icircumflex" xMin="-80" yMin="-69" xMax="880" yMax="2184">
      <component glyphName="I" x="0" y="0" flags="0x1204"/>
      <component glyphName="circumflex" x="-120" y="334" flags="0x1004"/>
    </TTGlyph>
    <TTGlyph name="Idieresis" xMin="-107" yMin="-69" xMax="905" yMax="1912">
      <component glyphName="I" x="0" y="0" flags="0x1204"/>
      <component glyphName="dieresis" x="-196" y="334" flags="0x1004"/>
    </TTGlyph>
    <TTGlyph name="Idotaccent" xMin="139" yMin="-69" xMax="664" yMax="2103">
      <component glyphName="I" x="0" y="0" flags="0x1204"/>
      <component glyphName="dotaccent" x="108" y="313" flags="0x1004"/>
    </TTGlyph>
    <TTGlyph name="Igrave" xMin="139" yMin="-69" xMax="664" yMax="2264">
      <component glyphName="I" x="0" y="0" flags="0x1204"/>
      <component glyphName="grave" x="133" y="334" flags="0x1004"/>
    </TTGlyph>
    <TTGlyph name="J" xMin="54" yMin="-96" xMax="762" yMax="1472">
      <contour>
        <pt x="336" y="1317" on="1"/>
        <pt x="337" y="1335" on="0"/>
        <pt x="339" y="1359" on="0"/>
        <pt x="344" y="1375" on="0"/>
        <pt x="354" y="1383" on="0"/>
        <pt x="365" y="1385" on="1"/>
        <pt x="711" y="1468" on="1"/>
        <pt x="724" y="1472" on="0"/>
        <pt x="737" y="1472" on="1"/>
        <pt x="751" y="1472" on="0"/>
        <pt x="762" y="1454" on="0"/>
        <pt x="762" y="1429" on="1"/>
        <pt x="732" y="1108" on="1"/>
        <pt x="714" y="916" on="1"/>
        <pt x="708" y="849" on="0"/>
        <pt x="696" y="723" on="0"/>
        <pt x="685" y="616" on="0"/>
        <pt x="677" y="533" on="0"/>
        <pt x="675" y="508" on="1"/>
        <pt x="673" y="479" on="1"/>
        <pt x="665" y="365" on="0"/>
        <pt x="594" y="157" on="0"/>
        <pt x="477" y="-2" on="0"/>
        <pt x="316" y="-96" on="0"/>
        <pt x="218" y="-96" on="1"/>
        <pt x="168" y="-96" on="0"/>
        <pt x="119" y="-92" on="0"/>
        <pt x="98" y="-83" on="0"/>
        <pt x="93" y="-68" on="0"/>
        <pt x="87" y="-57" on="1"/>
        <pt x="54" y="186" on="1"/>
        <pt x="54" y="188" on="0"/>
        <pt x="67" y="201" on="0"/>
        <pt x="71" y="203" on="1"/>
        <pt x="107" y="217" on="0"/>
        <pt x="177" y="253" on="0"/>
        <pt x="232" y="302" on="0"/>
        <pt x="267" y="369" on="0"/>
        <pt x="269" y="414" on="1"/>
      </contour>
    </TTGlyph>
    <TTGlyph name="K" xMin="141" yMin="-69" xMax="1449" yMax="1474">
      <contour>
        <pt x="660" y="1431" on="1"/>
        <pt x="658" y="1416" on="0"/>
        <pt x="654" y="1351" on="0"/>
        <pt x="647" y="1267" on="0"/>
        <pt x="641" y="1172" on="0"/>
        <pt x="634" y="1083" on="0"/>
        <pt x="627" y="1009" on="0"/>
        <pt x="625" y="987" on="1"/>
        <pt x="676" y="1039" on="1"/>
        <pt x="818" y="1215" on="1"/>
        <pt x="844" y="1248" on="0"/>
        <pt x="896" y="1311" on="0"/>
        <pt x="937" y="1362" on="0"/>
        <pt x="963" y="1396" on="0"/>
        <pt x="965" y="1398" on="1"/>
        <pt x="1409" y="1435" on="1"/>
        <pt x="1411" y="1436" on="0"/>
        <pt x="1418" y="1436" on="1"/>
        <pt x="1426" y="1436" on="1"/>
        <pt x="1449" y="1436" on="0"/>
        <pt x="1449" y="1424" on="1"/>
        <pt x="1449" y="1417" on="0"/>
        <pt x="1436" y="1398" on="0"/>
        <pt x="1423" y="1383" on="1"/>
        <pt x="1407" y="1364" on="0"/>
        <pt x="1346" y="1293" on="0"/>
        <pt x="1274" y="1208" on="0"/>
        <pt x="1197" y="1117" on="0"/>
        <pt x="1131" y="1040" on="0"/>
        <pt x="1084" y="984" on="0"/>
        <pt x="1078" y="976" on="1"/>
        <pt x="1015" y="916" on="1"/>
        <pt x="951" y="855" on="0"/>
        <pt x="851" y="764" on="1"/>
        <pt x="882" y="732" on="0"/>
        <pt x="953" y="657" on="0"/>
        <pt x="1018" y="588" on="0"/>
        <pt x="1071" y="532" on="0"/>
        <pt x="1084" y="518" on="1"/>
        <pt x="1393" y="160" on="1"/>
        <pt x="1398" y="154" on="0"/>
        <pt x="1414" y="146" on="0"/>
        <pt x="1430" y="140" on="0"/>
        <pt x="1441" y="133" on="0"/>
        <pt x="1441" y="128" on="1"/>
        <pt x="1441" y="122" on="0"/>
        <pt x="1428" y="109" on="1"/>
        <pt x="1420" y="101" on="0"/>
        <pt x="1376" y="70" on="0"/>
        <pt x="1317" y="34" on="0"/>
        <pt x="1249" y="-4" on="0"/>
        <pt x="1186" y="-35" on="0"/>
        <pt x="1133" y="-55" on="0"/>
        <pt x="1119" y="-55" on="1"/>
        <pt x="1098" y="-55" on="0"/>
        <pt x="1052" y="-18" on="0"/>
        <pt x="988" y="57" on="0"/>
        <pt x="900" y="173" on="0"/>
        <pt x="838" y="251" on="1"/>
        <pt x="802" y="296" on="0"/>
        <pt x="734" y="383" on="0"/>
        <pt x="674" y="460" on="0"/>
        <pt x="625" y="521" on="0"/>
        <pt x="609" y="540" on="1"/>
        <pt x="601" y="532" on="0"/>
        <pt x="583" y="517" on="0"/>
        <pt x="575" y="509" on="1"/>
        <pt x="540" y="80" on="1"/>
        <pt x="539" y="71" on="0"/>
        <pt x="534" y="53" on="0"/>
        <pt x="523" y="49" on="1"/>
        <pt x="240" y="-53" on="1"/>
        <pt x="229" y="-57" on="0"/>
        <pt x="193" y="-69" on="0"/>
        <pt x="176" y="-69" on="1"/>
        <pt x="161" y="-69" on="0"/>
        <pt x="141" y="-53" on="0"/>
        <pt x="141" y="-32" on="1"/>
        <pt x="146" y="27" on="0"/>
        <pt x="161" y="215" on="0"/>
        <pt x="178" y="456" on="0"/>
        <pt x="197" y="741" on="0"/>
        <pt x="208" y="898" on="1"/>
        <pt x="236" y="1319" on="1"/>
        <pt x="237" y="1337" on="0"/>
        <pt x="239" y="1361" on="0"/>
        <pt x="243" y="1377" on="0"/>
        <pt x="253" y="1385" on="0"/>
        <pt x="263" y="1387" on="1"/>
        <pt x="609" y="1470" on="1"/>
        <pt x="622" y="1474" on="0"/>
        <pt x="636" y="1474" on="1"/>
        <pt x="650" y="1474" on="0"/>
        <pt x="660" y="1457" on="0"/>
      </contour>
    </TTGlyph>
    <TTGlyph name="L" xMin="84" yMin="-52" xMax="1060" yMax="1476">
      <contour>
        <pt x="670" y="1433" on="1"/>
        <pt x="669" y="1409" on="0"/>
        <pt x="663" y="1338" on="0"/>
        <pt x="656" y="1259" on="0"/>
        <pt x="647" y="1178" on="0"/>
        <pt x="640" y="1110" on="0"/>
        <pt x="636" y="1061" on="0"/>
        <pt x="636" y="1054" on="1"/>
        <pt x="632" y="992" on="0"/>
        <pt x="623" y="886" on="0"/>
        <pt x="613" y="782" on="0"/>
        <pt x="602" y="671" on="0"/>
        <pt x="590" y="537" on="0"/>
        <pt x="575" y="373" on="0"/>
        <pt x="567" y="267" on="1"/>
        <pt x="981" y="309" on="1"/>
        <pt x="1009" y="312" on="0"/>
        <pt x="1027" y="312" on="1"/>
        <pt x="1049" y="312" on="0"/>
        <pt x="1060" y="298" on="0"/>
        <pt x="1060" y="283" on="1"/>
        <pt x="1060" y="281" on="0"/>
        <pt x="1058" y="274" on="0"/>
        <pt x="1051" y="254" on="0"/>
        <pt x="1038" y="216" on="0"/>
        <pt x="1027" y="182" on="1"/>
        <pt x="1005" y="116" on="1"/>
        <pt x="994" y="84" on="0"/>
        <pt x="975" y="33" on="0"/>
        <pt x="947" y="-4" on="0"/>
        <pt x="905" y="-26" on="0"/>
        <pt x="872" y="-29" on="1"/>
        <pt x="851" y="-31" on="0"/>
        <pt x="779" y="-34" on="0"/>
        <pt x="685" y="-37" on="0"/>
        <pt x="576" y="-41" on="0"/>
        <pt x="519" y="-44" on="1"/>
        <pt x="463" y="-46" on="0"/>
        <pt x="349" y="-47" on="0"/>
        <pt x="247" y="-49" on="0"/>
        <pt x="161" y="-51" on="0"/>
        <pt x="133" y="-52" on="1"/>
        <pt x="107" y="-52" on="0"/>
        <pt x="84" y="-44" on="0"/>
        <pt x="84" y="-35" on="1"/>
        <pt x="84" y="-24" on="0"/>
        <pt x="98" y="17" on="0"/>
        <pt x="120" y="68" on="0"/>
        <pt x="147" y="123" on="0"/>
        <pt x="160" y="149" on="1"/>
        <pt x="187" y="506" on="1"/>
        <pt x="195" y="597" on="0"/>
        <pt x="211" y="785" on="0"/>
        <pt x="217" y="873" on="1"/>
        <pt x="234" y="1138" on="1"/>
        <pt x="240" y="1232" on="0"/>
        <pt x="244" y="1317" on="0"/>
        <pt x="244" y="1321" on="1"/>
        <pt x="246" y="1339" on="0"/>
        <pt x="248" y="1363" on="0"/>
        <pt x="253" y="1379" on="0"/>
        <pt x="263" y="1387" on="0"/>
        <pt x="273" y="1389" on="1"/>
        <pt x="624" y="1472" on="1"/>
        <pt x="635" y="1476" on="0"/>
        <pt x="651" y="1476" on="1"/>
        <pt x="662" y="1476" on="0"/>
        <pt x="671" y="1463" on="0"/>
        <pt x="671" y="1445" on="1"/>
        <pt x="671" y="1443" on="0"/>
        <pt x="670" y="1436" on="0"/>
      </contour>
    </TTGlyph>
    <TTGlyph name="Lslash" xMin="84" yMin="-52" xMax="1060" yMax="1476">
      <component glyphName="L" x="0" y="0" flags="0x1004"/>
      <component glyphName="hyphen" x="24" y="0" flags="0x1004"/>
    </TTGlyph>
    <TTGlyph name="M" xMin="64" yMin="-68" xMax="1683" yMax="1474">
      <contour>
        <pt x="1437" y="1472" on="1"/>
        <pt x="1442" y="1473" on="0"/>
        <pt x="1451" y="1474" on="0"/>
        <pt x="1455" y="1474" on="1"/>
        <pt x="1473" y="1474" on="0"/>
        <pt x="1495" y="1451" on="0"/>
        <pt x="1499" y="1422" on="1"/>
        <pt x="1501" y="1404" on="0"/>
        <pt x="1510" y="1339" on="0"/>
        <pt x="1521" y="1260" on="0"/>
        <pt x="1534" y="1176" on="0"/>
        <pt x="1544" y="1105" on="0"/>
        <pt x="1552" y="1054" on="0"/>
        <pt x="1553" y="1047" on="1"/>
        <pt x="1575" y="870" on="0"/>
        <pt x="1609" y="656" on="0"/>
        <pt x="1616" y="605" on="1"/>
        <pt x="1683" y="64" on="1"/>
        <pt x="1673" y="33" on="1"/>
        <pt x="1671" y="26" on="0"/>
        <pt x="1623" y="6" on="0"/>
        <pt x="1555" y="-17" on="0"/>
        <pt x="1475" y="-39" on="0"/>
        <pt x="1407" y="-57" on="0"/>
        <pt x="1360" y="-68" on="0"/>
        <pt x="1359" y="-68" on="1"/>
        <pt x="1335" y="-68" on="0"/>
        <pt x="1307" y="2" on="0"/>
        <pt x="1289" y="110" on="0"/>
        <pt x="1278" y="238" on="0"/>
        <pt x="1271" y="297" on="1"/>
        <pt x="1265" y="346" on="0"/>
        <pt x="1255" y="446" on="0"/>
        <pt x="1249" y="498" on="1"/>
        <pt x="1210" y="790" on="1"/>
        <pt x="839" y="111" on="1"/>
        <pt x="822" y="87" on="0"/>
        <pt x="788" y="66" on="0"/>
        <pt x="773" y="66" on="1"/>
        <pt x="751" y="66" on="0"/>
        <pt x="726" y="92" on="0"/>
        <pt x="721" y="111" on="1"/>
        <pt x="702" y="174" on="0"/>
        <pt x="675" y="261" on="0"/>
        <pt x="652" y="333" on="0"/>
        <pt x="632" y="401" on="0"/>
        <pt x="607" y="490" on="0"/>
        <pt x="576" y="611" on="0"/>
        <pt x="554" y="699" on="1"/>
        <pt x="523" y="555" on="1"/>
        <pt x="379" y="-56" on="1"/>
        <pt x="376" y="-68" on="0"/>
        <pt x="354" y="-68" on="1"/>
        <pt x="333" y="-68" on="0"/>
        <pt x="260" y="-52" on="0"/>
        <pt x="181" y="-29" on="0"/>
        <pt x="106" y="-4" on="0"/>
        <pt x="84" y="6" on="1"/>
        <pt x="79" y="8" on="0"/>
        <pt x="64" y="23" on="0"/>
        <pt x="64" y="39" on="1"/>
        <pt x="64" y="43" on="0"/>
        <pt x="70" y="69" on="0"/>
        <pt x="79" y="104" on="0"/>
        <pt x="90" y="140" on="0"/>
        <pt x="95" y="154" on="1"/>
        <pt x="108" y="188" on="0"/>
        <pt x="129" y="280" on="0"/>
        <pt x="147" y="374" on="0"/>
        <pt x="162" y="460" on="0"/>
        <pt x="169" y="489" on="1"/>
        <pt x="292" y="1063" on="1"/>
        <pt x="329" y="1225" on="1"/>
        <pt x="336" y="1256" on="0"/>
        <pt x="349" y="1315" on="0"/>
        <pt x="359" y="1363" on="0"/>
        <pt x="365" y="1393" on="0"/>
        <pt x="365" y="1395" on="1"/>
        <pt x="615" y="1472" on="1"/>
        <pt x="629" y="1472" on="0"/>
        <pt x="650" y="1467" on="0"/>
        <pt x="653" y="1453" on="1"/>
        <pt x="852" y="813" on="1"/>
        <pt x="1125" y="1388" on="1"/>
      </contour>
    </TTGlyph>
    <TTGlyph name="N" xMin="151" yMin="-69" xMax="1341" yMax="1484">
      <contour>
        <pt x="991" y="1340" on="1"/>
        <pt x="999" y="1373" on="0"/>
        <pt x="1011" y="1403" on="0"/>
        <pt x="1031" y="1408" on="1"/>
        <pt x="1290" y="1469" on="1"/>
        <pt x="1302" y="1473" on="0"/>
        <pt x="1316" y="1473" on="1"/>
        <pt x="1329" y="1473" on="0"/>
        <pt x="1341" y="1455" on="0"/>
        <pt x="1341" y="1430" on="1"/>
        <pt x="1335" y="1406" on="0"/>
        <pt x="1327" y="1307" on="0"/>
        <pt x="1323" y="1189" on="0"/>
        <pt x="1321" y="1070" on="0"/>
        <pt x="1321" y="1026" on="1"/>
        <pt x="1321" y="971" on="1"/>
        <pt x="1321" y="909" on="0"/>
        <pt x="1319" y="763" on="0"/>
        <pt x="1316" y="613" on="0"/>
        <pt x="1312" y="467" on="0"/>
        <pt x="1310" y="403" on="1"/>
        <pt x="1304" y="232" on="1"/>
        <pt x="1303" y="227" on="0"/>
        <pt x="1303" y="219" on="0"/>
        <pt x="1303" y="215" on="1"/>
        <pt x="1303" y="200" on="1"/>
        <pt x="1303" y="183" on="0"/>
        <pt x="1304" y="160" on="0"/>
        <pt x="1304" y="151" on="1"/>
        <pt x="1304" y="141" on="0"/>
        <pt x="1301" y="125" on="0"/>
        <pt x="1289" y="110" on="0"/>
        <pt x="1268" y="94" on="0"/>
        <pt x="1250" y="82" on="1"/>
        <pt x="1240" y="75" on="0"/>
        <pt x="1194" y="48" on="0"/>
        <pt x="1138" y="14" on="0"/>
        <pt x="1078" y="-22" on="0"/>
        <pt x="1028" y="-51" on="0"/>
        <pt x="997" y="-69" on="0"/>
        <pt x="997" y="-69" on="1"/>
        <pt x="533" y="645" on="1"/>
        <pt x="491" y="60" on="1"/>
        <pt x="490" y="52" on="0"/>
        <pt x="485" y="34" on="0"/>
        <pt x="474" y="29" on="1"/>
        <pt x="465" y="25" on="0"/>
        <pt x="421" y="8" on="0"/>
        <pt x="362" y="-14" on="0"/>
        <pt x="297" y="-37" on="0"/>
        <pt x="239" y="-56" on="0"/>
        <pt x="194" y="-68" on="0"/>
        <pt x="186" y="-68" on="1"/>
        <pt x="171" y="-68" on="0"/>
        <pt x="151" y="-52" on="0"/>
        <pt x="151" y="-31" on="1"/>
        <pt x="161" y="94" on="0"/>
        <pt x="187" y="389" on="0"/>
        <pt x="211" y="699" on="0"/>
        <pt x="232" y="1008" on="0"/>
        <pt x="239" y="1147" on="1"/>
        <pt x="239" y="1151" on="0"/>
        <pt x="214" y="1196" on="0"/>
        <pt x="183" y="1249" on="0"/>
        <pt x="158" y="1296" on="0"/>
        <pt x="158" y="1302" on="1"/>
        <pt x="158" y="1309" on="0"/>
        <pt x="173" y="1321" on="0"/>
        <pt x="190" y="1331" on="1"/>
        <pt x="457" y="1482" on="1"/>
        <pt x="460" y="1482" on="0"/>
        <pt x="471" y="1484" on="0"/>
        <pt x="475" y="1484" on="1"/>
        <pt x="486" y="1484" on="0"/>
        <pt x="499" y="1479" on="0"/>
        <pt x="506" y="1466" on="1"/>
        <pt x="991" y="591" on="1"/>
      </contour>
    </TTGlyph>
    <TTGlyph name="Ntilde" xMin="151" yMin="-69" xMax="1341" yMax="2038">
      <component glyphName="N" x="0" y="0" flags="0x1204"/>
      <component glyphName="tilde" x="187" y="334" flags="0x1004"/>
    </TTGlyph>
    <TTGlyph name="O" xMin="120" yMin="-52" xMax="1619" yMax="1566">
      <contour>
        <pt x="561" y="682" on="1"/>
        <pt x="561" y="610" on="0"/>
        <pt x="592" y="465" on="0"/>
        <pt x="664" y="349" on="0"/>
        <pt x="782" y="277" on="0"/>
        <pt x="869" y="277" on="1"/>
        <pt x="936" y="281" on="0"/>
        <pt x="1037" y="328" on="0"/>
        <pt x="1110" y="403" on="0"/>
        <pt x="1158" y="500" on="0"/>
        <pt x="1186" y="607" on="0"/>
        <pt x="1197" y="719" on="0"/>
        <pt x="1197" y="771" on="1"/>
        <pt x="1197" y="842" on="0"/>
        <pt x="1159" y="975" on="0"/>
        <pt x="1083" y="1077" on="0"/>
        <pt x="970" y="1139" on="0"/>
        <pt x="895" y="1139" on="1"/>
        <pt x="836" y="1139" on="0"/>
        <pt x="741" y="1095" on="0"/>
        <pt x="667" y="1022" on="0"/>
        <pt x="614" y="927" on="0"/>
        <pt x="579" y="826" on="0"/>
        <pt x="562" y="725" on="0"/>
      </contour>
      <contour>
        <pt x="756" y="-52" on="1"/>
        <pt x="606" y="-52" on="0"/>
        <pt x="370" y="60" on="0"/>
        <pt x="207" y="251" on="0"/>
        <pt x="120" y="502" on="0"/>
        <pt x="120" y="642" on="1"/>
        <pt x="120" y="799" on="0"/>
        <pt x="209" y="1064" on="0"/>
        <pt x="369" y="1269" on="0"/>
        <pt x="590" y="1410" on="0"/>
        <pt x="722" y="1444" on="1"/>
        <pt x="734" y="1444" on="0"/>
        <pt x="747" y="1482" on="0"/>
        <pt x="757" y="1528" on="0"/>
        <pt x="771" y="1566" on="0"/>
        <pt x="784" y="1566" on="1"/>
        <pt x="978" y="1546" on="0"/>
        <pt x="1288" y="1449" on="0"/>
        <pt x="1504" y="1269" on="0"/>
        <pt x="1619" y="994" on="0"/>
        <pt x="1619" y="796" on="1"/>
        <pt x="1619" y="669" on="0"/>
        <pt x="1557" y="445" on="0"/>
        <pt x="1445" y="256" on="0"/>
        <pt x="1288" y="107" on="0"/>
        <pt x="1096" y="3" on="0"/>
        <pt x="875" y="-52" on="0"/>
      </contour>
    </TTGlyph>
    <TTGlyph name="OE" xMin="127" yMin="-53" xMax="2121" yMax="1450">
      <contour>
        <pt x="762" y="-51" on="1"/>
        <pt x="613" y="-51" on="0"/>
        <pt x="378" y="65" on="0"/>
        <pt x="214" y="262" on="0"/>
        <pt x="127" y="522" on="0"/>
        <pt x="127" y="665" on="1"/>
        <pt x="127" y="782" on="0"/>
        <pt x="184" y="990" on="0"/>
        <pt x="287" y="1164" on="0"/>
        <pt x="431" y="1302" on="0"/>
        <pt x="605" y="1397" on="0"/>
        <pt x="803" y="1448" on="0"/>
        <pt x="909" y="1448" on="1"/>
        <pt x="1005" y="1448" on="0"/>
        <pt x="1169" y="1389" on="0"/>
        <pt x="1238" y="1337" on="1"/>
        <pt x="1241" y="1395" on="1"/>
        <pt x="1348" y="1403" on="0"/>
        <pt x="1542" y="1415" on="0"/>
        <pt x="1631" y="1421" on="1"/>
        <pt x="2092" y="1450" on="1"/>
        <pt x="2093" y="1450" on="0"/>
        <pt x="2102" y="1449" on="0"/>
        <pt x="2112" y="1444" on="0"/>
        <pt x="2121" y="1432" on="0"/>
        <pt x="2121" y="1421" on="1"/>
        <pt x="2120" y="1415" on="0"/>
        <pt x="2093" y="1324" on="0"/>
        <pt x="2067" y="1257" on="1"/>
        <pt x="2023" y="1141" on="1"/>
        <pt x="2016" y="1124" on="0"/>
        <pt x="1998" y="1106" on="0"/>
        <pt x="1969" y="1105" on="1"/>
        <pt x="1906" y="1103" on="0"/>
        <pt x="1749" y="1094" on="0"/>
        <pt x="1645" y="1090" on="1"/>
        <pt x="1618" y="845" on="1"/>
        <pt x="1669" y="847" on="0"/>
        <pt x="1766" y="851" on="0"/>
        <pt x="1846" y="854" on="0"/>
        <pt x="1905" y="856" on="0"/>
        <pt x="1917" y="856" on="1"/>
        <pt x="1925" y="856" on="0"/>
        <pt x="1945" y="844" on="0"/>
        <pt x="1945" y="827" on="1"/>
        <pt x="1945" y="818" on="0"/>
        <pt x="1926" y="771" on="0"/>
        <pt x="1896" y="702" on="0"/>
        <pt x="1858" y="616" on="0"/>
        <pt x="1838" y="570" on="1"/>
        <pt x="1832" y="556" on="0"/>
        <pt x="1822" y="543" on="0"/>
        <pt x="1800" y="537" on="0"/>
        <pt x="1761" y="536" on="0"/>
        <pt x="1726" y="535" on="1"/>
        <pt x="1587" y="532" on="1"/>
        <pt x="1560" y="249" on="1"/>
        <pt x="2033" y="249" on="1"/>
        <pt x="2033" y="208" on="1"/>
        <pt x="2032" y="206" on="0"/>
        <pt x="2002" y="155" on="0"/>
        <pt x="1960" y="88" on="0"/>
        <pt x="1917" y="19" on="0"/>
        <pt x="1902" y="-2" on="1"/>
        <pt x="1892" y="-20" on="0"/>
        <pt x="1866" y="-41" on="0"/>
        <pt x="1835" y="-51" on="0"/>
        <pt x="1798" y="-53" on="0"/>
        <pt x="1776" y="-53" on="1"/>
        <pt x="1698" y="-53" on="0"/>
        <pt x="1531" y="-45" on="0"/>
        <pt x="1366" y="-33" on="0"/>
        <pt x="1210" y="-17" on="0"/>
        <pt x="1143" y="-9" on="1"/>
        <pt x="1136" y="-8" on="0"/>
        <pt x="1125" y="6" on="0"/>
        <pt x="1125" y="15" on="1"/>
        <pt x="1125" y="16" on="0"/>
        <pt x="1127" y="24" on="1"/>
        <pt x="1138" y="82" on="1"/>
        <pt x="1054" y="16" on="0"/>
        <pt x="865" y="-51" on="0"/>
      </contour>
      <contour>
        <pt x="568" y="682" on="1"/>
        <pt x="568" y="606" on="0"/>
        <pt x="601" y="454" on="0"/>
        <pt x="676" y="332" on="0"/>
        <pt x="798" y="256" on="0"/>
        <pt x="887" y="256" on="1"/>
        <pt x="951" y="261" on="0"/>
        <pt x="1047" y="309" on="0"/>
        <pt x="1117" y="385" on="0"/>
        <pt x="1164" y="482" on="0"/>
        <pt x="1191" y="590" on="0"/>
        <pt x="1202" y="702" on="0"/>
        <pt x="1202" y="756" on="1"/>
        <pt x="1202" y="833" on="0"/>
        <pt x="1164" y="977" on="0"/>
        <pt x="1086" y="1088" on="0"/>
        <pt x="968" y="1155" on="0"/>
        <pt x="889" y="1155" on="1"/>
        <pt x="828" y="1155" on="0"/>
        <pt x="733" y="1109" on="0"/>
        <pt x="662" y="1033" on="0"/>
        <pt x="612" y="935" on="0"/>
        <pt x="582" y="829" on="0"/>
        <pt x="568" y="725" on="0"/>
      </contour>
    </TTGlyph>
    <TTGlyph name="Oacute" xMin="125" yMin="-52" xMax="1624" yMax="2232">
      <component glyphName="O" x="5" y="0" flags="0x1004"/>
      <component glyphName="acute" x="547" y="334" flags="0x1004"/>
    </TTGlyph>
    <TTGlyph name="Ocircumflex" xMin="120" yMin="-52" xMax="1619" yMax="2184">
      <component glyphName="O" x="0" y="0" flags="0x1204"/>
      <component glyphName="circumflex" x="353" y="334" flags="0x1004"/>
    </TTGlyph>
    <TTGlyph name="Odieresis" xMin="120" yMin="-52" xMax="1619" yMax="1912">
      <component glyphName="O" x="0" y="0" flags="0x1204"/>
      <component glyphName="dieresis" x="278" y="334" flags="0x1004"/>
    </TTGlyph>
    <TTGlyph name="Ograve" xMin="125" yMin="-52" xMax="1624" yMax="2264">
      <component glyphName="O" x="5" y="0" flags="0x1004"/>
      <component glyphName="grave" x="615" y="334" flags="0x1004"/>
    </TTGlyph>
    <TTGlyph name="Oslash" xMin="123" yMin="-222" xMax="1620" yMax="1586">
      <contour>
        <pt x="778" y="-51" on="1"/>
        <pt x="721" y="-51" on="0"/>
        <pt x="667" y="-42" on="1"/>
        <pt x="601" y="-178" on="1"/>
        <pt x="593" y="-195" on="0"/>
        <pt x="587" y="-222" on="0"/>
        <pt x="572" y="-222" on="1"/>
        <pt x="560" y="-222" on="0"/>
        <pt x="546" y="-215" on="1"/>
        <pt x="445" y="-173" on="1"/>
        <pt x="437" y="-170" on="0"/>
        <pt x="405" y="-159" on="0"/>
        <pt x="372" y="-144" on="0"/>
        <pt x="347" y="-124" on="0"/>
        <pt x="347" y="-111" on="1"/>
        <pt x="347" y="-102" on="0"/>
        <pt x="361" y="-66" on="0"/>
        <pt x="384" y="-20" on="0"/>
        <pt x="410" y="30" on="0"/>
        <pt x="422" y="53" on="1"/>
        <pt x="350" y="101" on="0"/>
        <pt x="239" y="233" on="0"/>
        <pt x="163" y="391" on="0"/>
        <pt x="123" y="570" on="0"/>
        <pt x="123" y="665" on="1"/>
        <pt x="123" y="842" on="0"/>
        <pt x="257" y="1130" on="0"/>
        <pt x="485" y="1336" on="0"/>
        <pt x="787" y="1448" on="0"/>
        <pt x="955" y="1448" on="1"/>
        <pt x="1024" y="1448" on="0"/>
        <pt x="1094" y="1434" on="1"/>
        <pt x="1107" y="1459" on="0"/>
        <pt x="1131" y="1513" on="0"/>
        <pt x="1154" y="1557" on="0"/>
        <pt x="1175" y="1586" on="0"/>
        <pt x="1184" y="1586" on="1"/>
        <pt x="1191" y="1586" on="1"/>
        <pt x="1245" y="1564" on="0"/>
        <pt x="1350" y="1513" on="0"/>
        <pt x="1403" y="1503" on="1"/>
        <pt x="1409" y="1501" on="0"/>
        <pt x="1418" y="1495" on="0"/>
        <pt x="1418" y="1490" on="1"/>
        <pt x="1418" y="1487" on="1"/>
        <pt x="1340" y="1329" on="1"/>
        <pt x="1405" y="1283" on="0"/>
        <pt x="1509" y="1161" on="0"/>
        <pt x="1581" y="1017" on="0"/>
        <pt x="1620" y="852" on="0"/>
        <pt x="1620" y="764" on="1"/>
        <pt x="1620" y="642" on="0"/>
        <pt x="1560" y="425" on="0"/>
        <pt x="1450" y="244" on="0"/>
        <pt x="1297" y="101" on="0"/>
        <pt x="1109" y="2" on="0"/>
        <pt x="894" y="-51" on="0"/>
      </contour>
      <contour>
        <pt x="564" y="682" on="1"/>
        <pt x="564" y="618" on="0"/>
        <pt x="586" y="492" on="0"/>
        <pt x="612" y="435" on="1"/>
        <pt x="647" y="506" on="0"/>
        <pt x="703" y="626" on="0"/>
        <pt x="757" y="744" on="0"/>
        <pt x="814" y="867" on="0"/>
        <pt x="850" y="941" on="1"/>
        <pt x="952" y="1148" on="1"/>
        <pt x="936" y="1151" on="0"/>
        <pt x="902" y="1155" on="0"/>
        <pt x="885" y="1155" on="1"/>
        <pt x="824" y="1155" on="0"/>
        <pt x="729" y="1109" on="0"/>
        <pt x="658" y="1033" on="0"/>
        <pt x="608" y="935" on="0"/>
        <pt x="578" y="829" on="0"/>
        <pt x="564" y="725" on="0"/>
      </contour>
      <contour>
        <pt x="1198" y="756" on="1"/>
        <pt x="1198" y="810" on="0"/>
        <pt x="1179" y="914" on="0"/>
        <pt x="1159" y="960" on="1"/>
        <pt x="817" y="262" on="1"/>
        <pt x="847" y="256" on="0"/>
        <pt x="883" y="256" on="1"/>
        <pt x="947" y="261" on="0"/>
        <pt x="1043" y="309" on="0"/>
        <pt x="1113" y="385" on="0"/>
        <pt x="1160" y="482" on="0"/>
        <pt x="1187" y="590" on="0"/>
        <pt x="1198" y="702" on="0"/>
      </contour>
    </TTGlyph>
    <TTGlyph name="Otilde" xMin="120" yMin="-52" xMax="1619" yMax="2038">
      <component glyphName="O" x="0" y="0" flags="0x1204"/>
      <component glyphName="tilde" x="312" y="334" flags="0x1004"/>
    </TTGlyph>
    <TTGlyph name="P" xMin="136" yMin="-69" xMax="1401" yMax="1482">
      <contour>
        <pt x="1401" y="1039" on="1"/>
        <pt x="1400" y="953" on="0"/>
        <pt x="1369" y="817" on="0"/>
        <pt x="1312" y="708" on="0"/>
        <pt x="1231" y="621" on="0"/>
        <pt x="1179" y="583" on="1"/>
        <pt x="1079" y="511" on="0"/>
        <pt x="841" y="438" on="0"/>
        <pt x="721" y="438" on="1"/>
        <pt x="701" y="438" on="0"/>
        <pt x="662" y="440" on="0"/>
        <pt x="642" y="442" on="1"/>
        <pt x="609" y="77" on="1"/>
        <pt x="592" y="46" on="1"/>
        <pt x="590" y="42" on="0"/>
        <pt x="526" y="18" on="0"/>
        <pt x="478" y="2" on="1"/>
        <pt x="415" y="-19" on="1"/>
        <pt x="385" y="-30" on="0"/>
        <pt x="339" y="-48" on="0"/>
        <pt x="299" y="-62" on="0"/>
        <pt x="261" y="-69" on="0"/>
        <pt x="240" y="-69" on="1"/>
        <pt x="226" y="-69" on="0"/>
        <pt x="210" y="-55" on="0"/>
        <pt x="210" y="-35" on="1"/>
        <pt x="221" y="136" on="1"/>
        <pt x="224" y="187" on="0"/>
        <pt x="233" y="290" on="0"/>
        <pt x="237" y="356" on="1"/>
        <pt x="256" y="595" on="1"/>
        <pt x="262" y="668" on="0"/>
        <pt x="272" y="814" on="0"/>
        <pt x="282" y="946" on="0"/>
        <pt x="290" y="1061" on="0"/>
        <pt x="293" y="1104" on="1"/>
        <pt x="239" y="1092" on="0"/>
        <pt x="174" y="1081" on="0"/>
        <pt x="157" y="1081" on="1"/>
        <pt x="136" y="1081" on="0"/>
        <pt x="136" y="1099" on="1"/>
        <pt x="150" y="1148" on="0"/>
        <pt x="162" y="1195" on="1"/>
        <pt x="173" y="1235" on="0"/>
        <pt x="196" y="1320" on="0"/>
        <pt x="204" y="1349" on="1"/>
        <pt x="209" y="1367" on="0"/>
        <pt x="222" y="1386" on="0"/>
        <pt x="243" y="1397" on="0"/>
        <pt x="276" y="1406" on="0"/>
        <pt x="300" y="1414" on="1"/>
        <pt x="319" y="1420" on="0"/>
        <pt x="388" y="1435" on="0"/>
        <pt x="477" y="1450" on="0"/>
        <pt x="581" y="1464" on="0"/>
        <pt x="688" y="1475" on="0"/>
        <pt x="792" y="1482" on="0"/>
        <pt x="838" y="1482" on="1"/>
        <pt x="952" y="1482" on="0"/>
        <pt x="1156" y="1440" on="0"/>
        <pt x="1310" y="1339" on="0"/>
        <pt x="1401" y="1168" on="0"/>
      </contour>
      <contour>
        <pt x="670" y="739" on="1"/>
        <pt x="670" y="728" on="0"/>
        <pt x="678" y="711" on="0"/>
        <pt x="696" y="711" on="1"/>
        <pt x="724" y="711" on="0"/>
        <pt x="801" y="736" on="0"/>
        <pt x="878" y="786" on="0"/>
        <pt x="944" y="860" on="0"/>
        <pt x="961" y="910" on="1"/>
        <pt x="968" y="930" on="0"/>
        <pt x="977" y="992" on="0"/>
        <pt x="977" y="1034" on="1"/>
        <pt x="977" y="1104" on="0"/>
        <pt x="880" y="1170" on="0"/>
        <pt x="802" y="1170" on="1"/>
        <pt x="789" y="1170" on="0"/>
        <pt x="756" y="1167" on="0"/>
        <pt x="727" y="1159" on="0"/>
        <pt x="707" y="1148" on="0"/>
        <pt x="706" y="1139" on="1"/>
        <pt x="704" y="1117" on="1"/>
        <pt x="703" y="1104" on="0"/>
        <pt x="697" y="1045" on="0"/>
        <pt x="690" y="969" on="0"/>
        <pt x="683" y="885" on="0"/>
        <pt x="676" y="809" on="0"/>
        <pt x="671" y="751" on="0"/>
      </contour>
    </TTGlyph>
    <TTGlyph name="Q" xMin="120" yMin="-115" xMax="1622" yMax="1562">
      <contour>
        <pt x="756" y="-52" on="1"/>
        <pt x="606" y="-52" on="0"/>
        <pt x="370" y="60" on="0"/>
        <pt x="207" y="251" on="0"/>
        <pt x="120" y="502" on="0"/>
        <pt x="120" y="642" on="1"/>
        <pt x="120" y="799" on="0"/>
        <pt x="209" y="1064" on="0"/>
        <pt x="369" y="1269" on="0"/>
        <pt x="590" y="1410" on="0"/>
        <pt x="722" y="1444" on="1"/>
        <pt x="734" y="1444" on="0"/>
        <pt x="745" y="1475" on="0"/>
        <pt x="754" y="1516" on="0"/>
        <pt x="763" y="1554" on="0"/>
        <pt x="773" y="1562" on="1"/>
        <pt x="1125" y="1514" on="0"/>
        <pt x="1244" y="1453" on="1"/>
        <pt x="1307" y="1421" on="0"/>
        <pt x="1400" y="1359" on="0"/>
        <pt x="1474" y="1285" on="0"/>
        <pt x="1534" y="1189" on="0"/>
        <pt x="1564" y="1122" on="1"/>
        <pt x="1595" y="1052" on="0"/>
        <pt x="1610" y="948" on="1"/>
        <pt x="1611" y="936" on="1"/>
        <pt x="1616" y="898" on="0"/>
        <pt x="1622" y="812" on="0"/>
        <pt x="1622" y="764" on="1"/>
        <pt x="1622" y="591" on="0"/>
        <pt x="1509" y="312" on="0"/>
        <pt x="1409" y="206" on="1"/>
        <pt x="1436" y="177" on="0"/>
        <pt x="1482" y="125" on="0"/>
        <pt x="1516" y="83" on="0"/>
        <pt x="1536" y="52" on="0"/>
        <pt x="1536" y="45" on="1"/>
        <pt x="1536" y="34" on="0"/>
        <pt x="1501" y="3" on="0"/>
        <pt x="1448" y="-33" on="0"/>
        <pt x="1386" y="-69" on="0"/>
        <pt x="1332" y="-97" on="0"/>
        <pt x="1294" y="-115" on="0"/>
        <pt x="1292" y="-115" on="1"/>
        <pt x="1284" y="-115" on="0"/>
        <pt x="1271" y="-106" on="0"/>
        <pt x="1266" y="-101" on="1"/>
        <pt x="1143" y="22" on="1"/>
        <pt x="1058" y="-13" on="0"/>
        <pt x="880" y="-52" on="0"/>
        <pt x="780" y="-52" on="1"/>
      </contour>
      <contour>
        <pt x="566" y="682" on="1"/>
        <pt x="566" y="613" on="0"/>
        <pt x="592" y="476" on="0"/>
        <pt x="623" y="416" on="1"/>
        <pt x="624" y="415" on="0"/>
        <pt x="624" y="414" on="1"/>
        <pt x="660" y="353" on="0"/>
        <pt x="779" y="277" on="0"/>
        <pt x="869" y="277" on="1"/>
        <pt x="889" y="279" on="1"/>
        <pt x="877" y="293" on="1"/>
        <pt x="854" y="319" on="0"/>
        <pt x="824" y="359" on="0"/>
        <pt x="824" y="369" on="1"/>
        <pt x="824" y="388" on="0"/>
        <pt x="852" y="403" on="1"/>
        <pt x="1085" y="520" on="1"/>
        <pt x="1091" y="523" on="0"/>
        <pt x="1095" y="523" on="1"/>
        <pt x="1103" y="523" on="0"/>
        <pt x="1125" y="495" on="0"/>
        <pt x="1145" y="474" on="1"/>
        <pt x="1173" y="540" on="0"/>
        <pt x="1197" y="699" on="0"/>
        <pt x="1197" y="771" on="1"/>
        <pt x="1197" y="879" on="0"/>
        <pt x="1120" y="1048" on="0"/>
        <pt x="1025" y="1105" on="1"/>
        <pt x="993" y="1124" on="0"/>
        <pt x="920" y="1140" on="0"/>
        <pt x="876" y="1140" on="1"/>
        <pt x="832" y="1140" on="0"/>
        <pt x="760" y="1109" on="0"/>
        <pt x="701" y="1061" on="0"/>
        <pt x="653" y="1004" on="0"/>
        <pt x="635" y="979" on="1"/>
        <pt x="616" y="953" on="0"/>
        <pt x="590" y="877" on="0"/>
        <pt x="573" y="795" on="0"/>
        <pt x="566" y="713" on="0"/>
      </contour>
    </TTGlyph>
    <TTGlyph name="R" xMin="122" yMin="-69" xMax="1513" yMax="1472">
      <contour>
        <pt x="658" y="80" on="1"/>
        <pt x="657" y="71" on="0"/>
        <pt x="652" y="54" on="0"/>
        <pt x="641" y="49" on="1"/>
        <pt x="637" y="47" on="0"/>
        <pt x="566" y="22" on="0"/>
        <pt x="473" y="-11" on="0"/>
        <pt x="382" y="-44" on="0"/>
        <pt x="358" y="-53" on="1"/>
        <pt x="346" y="-58" on="0"/>
        <pt x="311" y="-69" on="0"/>
        <pt x="294" y="-69" on="1"/>
        <pt x="280" y="-69" on="0"/>
        <pt x="259" y="-55" on="0"/>
        <pt x="259" y="-36" on="1"/>
        <pt x="259" y="8" on="0"/>
        <pt x="264" y="81" on="0"/>
        <pt x="272" y="161" on="0"/>
        <pt x="281" y="258" on="0"/>
        <pt x="285" y="325" on="1"/>
        <pt x="290" y="413" on="0"/>
        <pt x="302" y="576" on="0"/>
        <pt x="308" y="664" on="1"/>
        <pt x="322" y="835" on="1"/>
        <pt x="325" y="877" on="0"/>
        <pt x="331" y="964" on="0"/>
        <pt x="334" y="1010" on="1"/>
        <pt x="345" y="1132" on="1"/>
        <pt x="345" y="1134" on="0"/>
        <pt x="339" y="1134" on="1"/>
        <pt x="331" y="1134" on="0"/>
        <pt x="293" y="1127" on="0"/>
        <pt x="241" y="1117" on="0"/>
        <pt x="178" y="1106" on="0"/>
        <pt x="145" y="1101" on="1"/>
        <pt x="137" y="1101" on="0"/>
        <pt x="122" y="1108" on="0"/>
        <pt x="122" y="1113" on="1"/>
        <pt x="122" y="1117" on="0"/>
        <pt x="124" y="1119" on="1"/>
        <pt x="286" y="1402" on="1"/>
        <pt x="341" y="1414" on="0"/>
        <pt x="468" y="1439" on="0"/>
        <pt x="614" y="1459" on="0"/>
        <pt x="778" y="1472" on="0"/>
        <pt x="870" y="1472" on="1"/>
        <pt x="974" y="1470" on="0"/>
        <pt x="1171" y="1433" on="0"/>
        <pt x="1324" y="1346" on="0"/>
        <pt x="1417" y="1197" on="0"/>
        <pt x="1417" y="1083" on="1"/>
        <pt x="1417" y="1020" on="0"/>
        <pt x="1374" y="914" on="0"/>
        <pt x="1307" y="829" on="0"/>
        <pt x="1227" y="764" on="0"/>
        <pt x="1154" y="718" on="0"/>
        <pt x="1098" y="691" on="0"/>
        <pt x="1088" y="687" on="1"/>
        <pt x="1088" y="685" on="0"/>
        <pt x="1091" y="679" on="0"/>
        <pt x="1101" y="662" on="0"/>
        <pt x="1120" y="631" on="0"/>
        <pt x="1135" y="604" on="1"/>
        <pt x="1151" y="580" on="0"/>
        <pt x="1195" y="500" on="0"/>
        <pt x="1256" y="391" on="0"/>
        <pt x="1336" y="257" on="0"/>
        <pt x="1388" y="180" on="1"/>
        <pt x="1405" y="165" on="0"/>
        <pt x="1449" y="158" on="0"/>
        <pt x="1487" y="157" on="0"/>
        <pt x="1513" y="154" on="0"/>
        <pt x="1513" y="143" on="1"/>
        <pt x="1513" y="135" on="0"/>
        <pt x="1480" y="114" on="0"/>
        <pt x="1436" y="92" on="0"/>
        <pt x="1391" y="72" on="0"/>
        <pt x="1379" y="66" on="1"/>
        <pt x="1355" y="54" on="0"/>
        <pt x="1303" y="32" on="0"/>
        <pt x="1243" y="5" on="0"/>
        <pt x="1170" y="-31" on="0"/>
        <pt x="1124" y="-56" on="1"/>
        <pt x="1112" y="-63" on="0"/>
        <pt x="1091" y="-68" on="0"/>
        <pt x="1082" y="-68" on="1"/>
        <pt x="1064" y="-68" on="0"/>
        <pt x="1038" y="-51" on="0"/>
        <pt x="1020" y="-27" on="0"/>
        <pt x="1009" y="-2" on="0"/>
        <pt x="1005" y="6" on="1"/>
        <pt x="707" y="634" on="1"/>
      </contour>
      <contour>
        <pt x="719" y="757" on="1"/>
        <pt x="770" y="757" on="0"/>
        <pt x="880" y="809" on="0"/>
        <pt x="970" y="891" on="0"/>
        <pt x="1028" y="995" on="0"/>
        <pt x="1028" y="1048" on="1"/>
        <pt x="1028" y="1193" on="0"/>
        <pt x="854" y="1193" on="1"/>
        <pt x="821" y="1193" on="0"/>
        <pt x="777" y="1184" on="0"/>
        <pt x="759" y="1182" on="1"/>
      </contour>
    </TTGlyph>
    <TTGlyph name="S" xMin="157" yMin="-52" xMax="1080" yMax="1468">
      <contour>
        <pt x="158" y="372" on="1"/>
        <pt x="158" y="373" on="0"/>
        <pt x="157" y="375" on="0"/>
        <pt x="157" y="376" on="1"/>
        <pt x="157" y="393" on="0"/>
        <pt x="175" y="393" on="1"/>
        <pt x="184" y="393" on="0"/>
        <pt x="195" y="384" on="1"/>
        <pt x="249" y="333" on="0"/>
        <pt x="381" y="273" on="0"/>
        <pt x="459" y="273" on="1"/>
        <pt x="480" y="273" on="0"/>
        <pt x="534" y="282" on="0"/>
        <pt x="582" y="303" on="0"/>
        <pt x="615" y="337" on="0"/>
        <pt x="615" y="363" on="1"/>
        <pt x="615" y="392" on="0"/>
        <pt x="587" y="438" on="0"/>
        <pt x="564" y="454" on="1"/>
        <pt x="555" y="460" on="0"/>
        <pt x="519" y="488" on="0"/>
        <pt x="473" y="524" on="0"/>
        <pt x="423" y="565" on="0"/>
        <pt x="378" y="602" on="0"/>
        <pt x="342" y="632" on="0"/>
        <pt x="333" y="640" on="1"/>
        <pt x="274" y="684" on="0"/>
        <pt x="205" y="774" on="0"/>
        <pt x="169" y="872" on="0"/>
        <pt x="159" y="977" on="0"/>
        <pt x="159" y="1036" on="1"/>
        <pt x="159" y="1124" on="0"/>
        <pt x="243" y="1282" on="0"/>
        <pt x="396" y="1399" on="0"/>
        <pt x="610" y="1468" on="0"/>
        <pt x="741" y="1468" on="1"/>
        <pt x="757" y="1468" on="0"/>
        <pt x="821" y="1461" on="0"/>
        <pt x="898" y="1445" on="0"/>
        <pt x="978" y="1417" on="0"/>
        <pt x="1011" y="1395" on="1"/>
        <pt x="1022" y="1387" on="0"/>
        <pt x="1035" y="1371" on="0"/>
        <pt x="1037" y="1354" on="1"/>
        <pt x="1042" y="1273" on="0"/>
        <pt x="1048" y="1116" on="0"/>
        <pt x="1053" y="1028" on="1"/>
        <pt x="1053" y="1011" on="0"/>
        <pt x="1039" y="1000" on="0"/>
        <pt x="1028" y="1000" on="1"/>
        <pt x="1017" y="1000" on="0"/>
        <pt x="1011" y="1006" on="1"/>
        <pt x="982" y="1035" on="0"/>
        <pt x="920" y="1091" on="0"/>
        <pt x="852" y="1134" on="0"/>
        <pt x="775" y="1160" on="0"/>
        <pt x="730" y="1160" on="1"/>
        <pt x="703" y="1160" on="0"/>
        <pt x="649" y="1151" on="0"/>
        <pt x="605" y="1127" on="0"/>
        <pt x="578" y="1085" on="0"/>
        <pt x="578" y="1053" on="1"/>
        <pt x="578" y="1019" on="0"/>
        <pt x="595" y="969" on="0"/>
        <pt x="629" y="947" on="1"/>
        <pt x="869" y="784" on="1"/>
        <pt x="935" y="737" on="0"/>
        <pt x="1017" y="644" on="0"/>
        <pt x="1063" y="552" on="0"/>
        <pt x="1080" y="463" on="0"/>
        <pt x="1080" y="420" on="1"/>
        <pt x="1080" y="350" on="0"/>
        <pt x="1034" y="226" on="0"/>
        <pt x="954" y="121" on="0"/>
        <pt x="847" y="38" on="0"/>
        <pt x="725" y="-21" on="0"/>
        <pt x="594" y="-52" on="0"/>
        <pt x="531" y="-52" on="1"/>
        <pt x="482" y="-52" on="0"/>
        <pt x="387" y="-49" on="0"/>
        <pt x="297" y="-36" on="0"/>
        <pt x="213" y="-9" on="0"/>
        <pt x="175" y="15" on="1"/>
      </contour>
    </TTGlyph>
    <TTGlyph name="Scaron" xMin="136" yMin="-52" xMax="1095" yMax="2192">
      <component glyphName="S" x="0" y="0" flags="0x1204"/>
      <component glyphName="caron" x="80" y="334" flags="0x1004"/>
    </TTGlyph>
    <TTGlyph name="Scedilla" xMin="157" yMin="-596" xMax="1080" yMax="1468">
      <component glyphName="S" x="0" y="0" flags="0x1004"/>
      <component glyphName="cedilla" x="333" y="0" flags="0x1004"/>
    </TTGlyph>
    <TTGlyph name="T" xMin="85" yMin="-69" xMax="1306" yMax="1472">
      <contour>
        <pt x="358" y="-32" on="1"/>
        <pt x="363" y="41" on="0"/>
        <pt x="373" y="177" on="0"/>
        <pt x="377" y="241" on="1"/>
        <pt x="413" y="713" on="1"/>
        <pt x="419" y="767" on="0"/>
        <pt x="427" y="856" on="0"/>
        <pt x="432" y="941" on="0"/>
        <pt x="437" y="1028" on="0"/>
        <pt x="440" y="1081" on="1"/>
        <pt x="407" y="1082" on="0"/>
        <pt x="334" y="1082" on="0"/>
        <pt x="294" y="1082" on="1"/>
        <pt x="101" y="1082" on="1"/>
        <pt x="90" y="1082" on="0"/>
        <pt x="85" y="1099" on="0"/>
        <pt x="85" y="1106" on="1"/>
        <pt x="85" y="1113" on="1"/>
        <pt x="195" y="1402" on="1"/>
        <pt x="194" y="1406" on="1"/>
        <pt x="194" y="1411" on="0"/>
        <pt x="207" y="1418" on="0"/>
        <pt x="230" y="1420" on="1"/>
        <pt x="368" y="1428" on="0"/>
        <pt x="627" y="1443" on="0"/>
        <pt x="880" y="1455" on="0"/>
        <pt x="1133" y="1467" on="0"/>
        <pt x="1267" y="1472" on="1"/>
        <pt x="1279" y="1472" on="0"/>
        <pt x="1306" y="1466" on="0"/>
        <pt x="1306" y="1447" on="1"/>
        <pt x="1306" y="1445" on="0"/>
        <pt x="1304" y="1441" on="0"/>
        <pt x="1304" y="1439" on="1"/>
        <pt x="1288" y="1398" on="0"/>
        <pt x="1261" y="1324" on="0"/>
        <pt x="1235" y="1252" on="0"/>
        <pt x="1208" y="1178" on="0"/>
        <pt x="1192" y="1137" on="1"/>
        <pt x="1191" y="1136" on="0"/>
        <pt x="1185" y="1119" on="0"/>
        <pt x="1173" y="1098" on="0"/>
        <pt x="1153" y="1080" on="0"/>
        <pt x="1138" y="1079" on="1"/>
        <pt x="1133" y="1080" on="0"/>
        <pt x="1123" y="1080" on="0"/>
        <pt x="1117" y="1080" on="1"/>
        <pt x="850" y="1080" on="1"/>
        <pt x="845" y="1029" on="0"/>
        <pt x="836" y="915" on="0"/>
        <pt x="830" y="861" on="1"/>
        <pt x="757" y="80" on="1"/>
        <pt x="756" y="71" on="0"/>
        <pt x="751" y="53" on="0"/>
        <pt x="740" y="49" on="1"/>
        <pt x="457" y="-53" on="1"/>
        <pt x="446" y="-57" on="0"/>
        <pt x="410" y="-69" on="0"/>
        <pt x="393" y="-69" on="1"/>
        <pt x="379" y="-69" on="0"/>
        <pt x="358" y="-55" on="0"/>
        <pt x="358" y="-36" on="1"/>
      </contour>
    </TTGlyph>
    <TTGlyph name="Thorn" xMin="154" yMin="-52" xMax="1338" yMax="1644">
      <contour>
        <pt x="1338" y="929" on="1"/>
        <pt x="1338" y="837" on="0"/>
        <pt x="1281" y="682" on="0"/>
        <pt x="1183" y="557" on="0"/>
        <pt x="1051" y="461" on="0"/>
        <pt x="900" y="397" on="0"/>
        <pt x="738" y="364" on="0"/>
        <pt x="659" y="364" on="1"/>
        <pt x="639" y="364" on="0"/>
        <pt x="600" y="366" on="0"/>
        <pt x="580" y="368" on="1"/>
        <pt x="553" y="94" on="1"/>
        <pt x="536" y="63" on="1"/>
        <pt x="535" y="60" on="0"/>
        <pt x="503" y="47" on="0"/>
        <pt x="453" y="29" on="0"/>
        <pt x="391" y="8" on="0"/>
        <pt x="329" y="-13" on="0"/>
        <pt x="272" y="-32" on="0"/>
        <pt x="253" y="-39" on="1"/>
        <pt x="239" y="-44" on="0"/>
        <pt x="201" y="-52" on="0"/>
        <pt x="184" y="-52" on="1"/>
        <pt x="170" y="-52" on="0"/>
        <pt x="154" y="-38" on="0"/>
        <pt x="154" y="-18" on="1"/>
        <pt x="156" y="16" on="0"/>
        <pt x="162" y="98" on="0"/>
        <pt x="168" y="186" on="0"/>
        <pt x="175" y="277" on="0"/>
        <pt x="178" y="319" on="1"/>
        <pt x="194" y="521" on="1"/>
        <pt x="206" y="672" on="0"/>
        <pt x="224" y="904" on="0"/>
        <pt x="230" y="994" on="1"/>
        <pt x="200" y="991" on="0"/>
        <pt x="194" y="991" on="1"/>
        <pt x="173" y="991" on="0"/>
        <pt x="173" y="1009" on="1"/>
        <pt x="173" y="1009" on="0"/>
        <pt x="188" y="1065" on="0"/>
        <pt x="209" y="1144" on="0"/>
        <pt x="233" y="1230" on="0"/>
        <pt x="241" y="1259" on="1"/>
        <pt x="242" y="1278" on="0"/>
        <pt x="270" y="1294" on="1"/>
        <pt x="292" y="1498" on="1"/>
        <pt x="309" y="1529" on="1"/>
        <pt x="309" y="1532" on="0"/>
        <pt x="341" y="1545" on="0"/>
        <pt x="391" y="1562" on="0"/>
        <pt x="454" y="1583" on="0"/>
        <pt x="517" y="1604" on="0"/>
        <pt x="573" y="1624" on="0"/>
        <pt x="592" y="1631" on="1"/>
        <pt x="605" y="1636" on="0"/>
        <pt x="644" y="1644" on="0"/>
        <pt x="661" y="1644" on="1"/>
        <pt x="675" y="1644" on="0"/>
        <pt x="691" y="1630" on="0"/>
        <pt x="691" y="1610" on="1"/>
        <pt x="689" y="1580" on="0"/>
        <pt x="685" y="1531" on="0"/>
        <pt x="681" y="1477" on="0"/>
        <pt x="676" y="1413" on="0"/>
        <pt x="673" y="1369" on="1"/>
        <pt x="730" y="1372" on="0"/>
        <pt x="775" y="1372" on="1"/>
        <pt x="889" y="1372" on="0"/>
        <pt x="1093" y="1330" on="0"/>
        <pt x="1247" y="1229" on="0"/>
        <pt x="1338" y="1058" on="0"/>
      </contour>
      <contour>
        <pt x="608" y="665" on="1"/>
        <pt x="608" y="654" on="0"/>
        <pt x="616" y="637" on="0"/>
        <pt x="634" y="637" on="1"/>
        <pt x="656" y="637" on="0"/>
        <pt x="715" y="653" on="0"/>
        <pt x="778" y="684" on="0"/>
        <pt x="838" y="732" on="0"/>
        <pt x="885" y="796" on="0"/>
        <pt x="914" y="876" on="0"/>
        <pt x="914" y="924" on="1"/>
        <pt x="914" y="994" on="0"/>
        <pt x="817" y="1060" on="0"/>
        <pt x="739" y="1060" on="1"/>
        <pt x="725" y="1060" on="0"/>
        <pt x="692" y="1057" on="0"/>
        <pt x="664" y="1049" on="0"/>
        <pt x="644" y="1038" on="0"/>
        <pt x="643" y="1029" on="1"/>
        <pt x="643" y="1029" on="0"/>
        <pt x="639" y="986" on="0"/>
        <pt x="633" y="920" on="0"/>
        <pt x="625" y="838" on="0"/>
        <pt x="617" y="757" on="0"/>
        <pt x="610" y="687" on="0"/>
      </contour>
    </TTGlyph>
    <TTGlyph name="U" xMin="152" yMin="-52" xMax="1381" yMax="1473">
      <contour>
        <pt x="1381" y="1430" on="1"/>
        <pt x="1379" y="1403" on="0"/>
        <pt x="1369" y="1298" on="0"/>
        <pt x="1356" y="1165" on="0"/>
        <pt x="1342" y="1019" on="0"/>
        <pt x="1329" y="886" on="0"/>
        <pt x="1319" y="778" on="0"/>
        <pt x="1317" y="751" on="1"/>
        <pt x="1296" y="538" on="0"/>
        <pt x="1195" y="233" on="0"/>
        <pt x="1031" y="39" on="0"/>
        <pt x="802" y="-52" on="0"/>
        <pt x="652" y="-52" on="1"/>
        <pt x="549" y="-52" on="0"/>
        <pt x="367" y="23" on="0"/>
        <pt x="231" y="159" on="0"/>
        <pt x="152" y="350" on="0"/>
        <pt x="152" y="467" on="1"/>
        <pt x="152" y="482" on="0"/>
        <pt x="157" y="561" on="0"/>
        <pt x="166" y="675" on="0"/>
        <pt x="177" y="820" on="0"/>
        <pt x="183" y="902" on="1"/>
        <pt x="195" y="1068" on="1"/>
        <pt x="201" y="1159" on="0"/>
        <pt x="207" y="1280" on="0"/>
        <pt x="214" y="1354" on="0"/>
        <pt x="228" y="1388" on="0"/>
        <pt x="243" y="1393" on="1"/>
        <pt x="584" y="1469" on="1"/>
        <pt x="597" y="1473" on="0"/>
        <pt x="611" y="1473" on="1"/>
        <pt x="627" y="1473" on="0"/>
        <pt x="638" y="1455" on="0"/>
        <pt x="638" y="1430" on="1"/>
        <pt x="562" y="642" on="1"/>
        <pt x="560" y="607" on="0"/>
        <pt x="550" y="525" on="0"/>
        <pt x="550" y="482" on="1"/>
        <pt x="550" y="456" on="0"/>
        <pt x="563" y="394" on="0"/>
        <pt x="597" y="339" on="0"/>
        <pt x="656" y="302" on="0"/>
        <pt x="703" y="302" on="1"/>
        <pt x="760" y="302" on="0"/>
        <pt x="830" y="351" on="0"/>
        <pt x="872" y="432" on="0"/>
        <pt x="891" y="535" on="0"/>
        <pt x="897" y="589" on="1"/>
        <pt x="902" y="652" on="0"/>
        <pt x="916" y="822" on="0"/>
        <pt x="923" y="919" on="1"/>
        <pt x="952" y="1318" on="1"/>
        <pt x="954" y="1336" on="0"/>
        <pt x="955" y="1360" on="0"/>
        <pt x="959" y="1376" on="0"/>
        <pt x="972" y="1384" on="0"/>
        <pt x="986" y="1386" on="1"/>
        <pt x="1327" y="1469" on="1"/>
        <pt x="1340" y="1473" on="0"/>
        <pt x="1354" y="1473" on="1"/>
        <pt x="1368" y="1473" on="0"/>
        <pt x="1381" y="1456" on="0"/>
      </contour>
    </TTGlyph>
    <TTGlyph name="Uacute" xMin="152" yMin="-52" xMax="1381" yMax="2232">
      <component glyphName="U" x="0" y="0" flags="0x1204"/>
      <component glyphName="acute" x="428" y="334" flags="0x1004"/>
    </TTGlyph>
    <TTGlyph name="Ucircumflex" xMin="152" yMin="-52" xMax="1381" yMax="2184">
      <component glyphName="U" x="0" y="0" flags="0x1204"/>
      <component glyphName="circumflex" x="239" y="334" flags="0x1004"/>
    </TTGlyph>
    <TTGlyph name="Udieresis" xMin="152" yMin="-52" xMax="1381" yMax="1912">
      <component glyphName="U" x="0" y="0" flags="0x1204"/>
      <component glyphName="dieresis" x="163" y="334" flags="0x1004"/>
    </TTGlyph>
    <TTGlyph name="Ugrave" xMin="152" yMin="-52" xMax="1381" yMax="2264">
      <component glyphName="U" x="0" y="0" flags="0x1204"/>
      <component glyphName="grave" x="495" y="334" flags="0x1004"/>
    </TTGlyph>
    <TTGlyph name="V" xMin="138" yMin="-68" xMax="1419" yMax="1473">
      <contour>
        <pt x="879" y="88" on="1"/>
        <pt x="874" y="75" on="0"/>
        <pt x="865" y="51" on="0"/>
        <pt x="851" y="31" on="0"/>
        <pt x="830" y="15" on="0"/>
        <pt x="814" y="10" on="1"/>
        <pt x="751" y="-10" on="0"/>
        <pt x="627" y="-39" on="0"/>
        <pt x="564" y="-60" on="1"/>
        <pt x="552" y="-64" on="0"/>
        <pt x="534" y="-68" on="0"/>
        <pt x="526" y="-68" on="1"/>
        <pt x="508" y="-68" on="0"/>
        <pt x="492" y="-50" on="0"/>
        <pt x="488" y="-36" on="1"/>
        <pt x="146" y="1324" on="1"/>
        <pt x="138" y="1350" on="0"/>
        <pt x="138" y="1367" on="1"/>
        <pt x="138" y="1389" on="0"/>
        <pt x="166" y="1418" on="0"/>
        <pt x="229" y="1437" on="0"/>
        <pt x="328" y="1453" on="0"/>
        <pt x="400" y="1463" on="1"/>
        <pt x="435" y="1468" on="0"/>
        <pt x="483" y="1473" on="0"/>
        <pt x="500" y="1473" on="1"/>
        <pt x="529" y="1473" on="0"/>
        <pt x="548" y="1454" on="0"/>
        <pt x="556" y="1434" on="1"/>
        <pt x="747" y="608" on="1"/>
        <pt x="1016" y="1367" on="1"/>
        <pt x="1022" y="1383" on="0"/>
        <pt x="1031" y="1403" on="0"/>
        <pt x="1056" y="1418" on="0"/>
        <pt x="1107" y="1433" on="0"/>
        <pt x="1155" y="1443" on="1"/>
        <pt x="1230" y="1459" on="0"/>
        <pt x="1328" y="1473" on="0"/>
        <pt x="1358" y="1473" on="1"/>
        <pt x="1396" y="1473" on="0"/>
        <pt x="1419" y="1455" on="0"/>
        <pt x="1419" y="1438" on="1"/>
        <pt x="1420" y="1431" on="0"/>
        <pt x="1413" y="1416" on="0"/>
        <pt x="1409" y="1405" on="1"/>
      </contour>
    </TTGlyph>
    <TTGlyph name="W" xMin="118" yMin="-68" xMax="1919" yMax="1473">
      <contour>
        <pt x="1551" y="1357" on="1"/>
        <pt x="1556" y="1375" on="0"/>
        <pt x="1568" y="1398" on="0"/>
        <pt x="1589" y="1403" on="1"/>
        <pt x="1884" y="1471" on="1"/>
        <pt x="1886" y="1471" on="0"/>
        <pt x="1892" y="1473" on="0"/>
        <pt x="1894" y="1473" on="1"/>
        <pt x="1908" y="1473" on="0"/>
        <pt x="1919" y="1449" on="0"/>
        <pt x="1919" y="1438" on="1"/>
        <pt x="1919" y="1436" on="0"/>
        <pt x="1918" y="1424" on="0"/>
        <pt x="1917" y="1422" on="1"/>
        <pt x="1503" y="164" on="1"/>
        <pt x="1487" y="123" on="0"/>
        <pt x="1466" y="72" on="0"/>
        <pt x="1445" y="39" on="0"/>
        <pt x="1418" y="17" on="0"/>
        <pt x="1373" y="-5" on="0"/>
        <pt x="1305" y="-34" on="0"/>
        <pt x="1253" y="-59" on="1"/>
        <pt x="1235" y="-68" on="0"/>
        <pt x="1225" y="-68" on="1"/>
        <pt x="1209" y="-68" on="0"/>
        <pt x="1193" y="-44" on="0"/>
        <pt x="1188" y="-29" on="1"/>
        <pt x="1017" y="580" on="1"/>
        <pt x="803" y="139" on="1"/>
        <pt x="798" y="127" on="0"/>
        <pt x="762" y="87" on="0"/>
        <pt x="717" y="45" on="0"/>
        <pt x="672" y="6" on="0"/>
        <pt x="658" y="-6" on="1"/>
        <pt x="645" y="-17" on="0"/>
        <pt x="616" y="-39" on="0"/>
        <pt x="586" y="-57" on="0"/>
        <pt x="559" y="-68" on="0"/>
        <pt x="547" y="-68" on="1"/>
        <pt x="521" y="-68" on="0"/>
        <pt x="513" y="-39" on="1"/>
        <pt x="125" y="1329" on="1"/>
        <pt x="123" y="1337" on="0"/>
        <pt x="118" y="1353" on="0"/>
        <pt x="118" y="1360" on="1"/>
        <pt x="118" y="1385" on="0"/>
        <pt x="142" y="1419" on="0"/>
        <pt x="202" y="1443" on="0"/>
        <pt x="302" y="1458" on="0"/>
        <pt x="379" y="1463" on="1"/>
        <pt x="415" y="1468" on="0"/>
        <pt x="464" y="1472" on="0"/>
        <pt x="481" y="1472" on="1"/>
        <pt x="510" y="1472" on="0"/>
        <pt x="528" y="1454" on="0"/>
        <pt x="535" y="1433" on="1"/>
        <pt x="741" y="640" on="1"/>
        <pt x="912" y="934" on="1"/>
        <pt x="843" y="1235" on="1"/>
        <pt x="837" y="1259" on="0"/>
        <pt x="838" y="1271" on="1"/>
        <pt x="838" y="1294" on="0"/>
        <pt x="862" y="1322" on="0"/>
        <pt x="918" y="1340" on="0"/>
        <pt x="1009" y="1354" on="0"/>
        <pt x="1075" y="1363" on="1"/>
        <pt x="1104" y="1367" on="0"/>
        <pt x="1146" y="1371" on="0"/>
        <pt x="1161" y="1371" on="1"/>
        <pt x="1191" y="1371" on="0"/>
        <pt x="1213" y="1353" on="0"/>
        <pt x="1218" y="1333" on="1"/>
        <pt x="1354" y="717" on="1"/>
      </contour>
    </TTGlyph>
    <TTGlyph name="X" xMin="82" yMin="-69" xMax="1297" yMax="1449">
      <contour>
        <pt x="446" y="1442" on="1"/>
        <pt x="454" y="1444" on="0"/>
        <pt x="454" y="1444" on="1"/>
        <pt x="463" y="1444" on="1"/>
        <pt x="480" y="1444" on="0"/>
        <pt x="512" y="1421" on="0"/>
        <pt x="528" y="1393" on="1"/>
        <pt x="539" y="1373" on="0"/>
        <pt x="580" y="1295" on="0"/>
        <pt x="628" y="1205" on="0"/>
        <pt x="676" y="1114" on="0"/>
        <pt x="694" y="1081" on="1"/>
        <pt x="860" y="1367" on="1"/>
        <pt x="1256" y="1447" on="1"/>
        <pt x="1261" y="1448" on="0"/>
        <pt x="1270" y="1449" on="0"/>
        <pt x="1275" y="1449" on="1"/>
        <pt x="1297" y="1449" on="0"/>
        <pt x="1297" y="1432" on="1"/>
        <pt x="1297" y="1426" on="0"/>
        <pt x="1292" y="1407" on="0"/>
        <pt x="1286" y="1396" on="1"/>
        <pt x="1105" y="1073" on="1"/>
        <pt x="1033" y="950" on="1"/>
        <pt x="1001" y="896" on="0"/>
        <pt x="928" y="772" on="0"/>
        <pt x="896" y="717" on="1"/>
        <pt x="914" y="687" on="0"/>
        <pt x="945" y="631" on="0"/>
        <pt x="970" y="585" on="0"/>
        <pt x="987" y="551" on="0"/>
        <pt x="992" y="542" on="1"/>
        <pt x="1235" y="81" on="1"/>
        <pt x="1232" y="44" on="1"/>
        <pt x="1232" y="41" on="0"/>
        <pt x="1206" y="24" on="0"/>
        <pt x="1163" y="2" on="0"/>
        <pt x="1108" y="-22" on="0"/>
        <pt x="1078" y="-32" on="1"/>
        <pt x="1007" y="-56" on="1"/>
        <pt x="994" y="-56" on="0"/>
        <pt x="963" y="-69" on="0"/>
        <pt x="946" y="-69" on="1"/>
        <pt x="932" y="-69" on="0"/>
        <pt x="907" y="-56" on="0"/>
        <pt x="894" y="-36" on="1"/>
        <pt x="871" y="-3" on="0"/>
        <pt x="815" y="87" on="0"/>
        <pt x="783" y="145" on="1"/>
        <pt x="673" y="339" on="1"/>
        <pt x="515" y="72" on="1"/>
        <pt x="484" y="42" on="1"/>
        <pt x="483" y="39" on="0"/>
        <pt x="449" y="26" on="0"/>
        <pt x="394" y="7" on="0"/>
        <pt x="326" y="-15" on="0"/>
        <pt x="259" y="-35" on="0"/>
        <pt x="197" y="-52" on="0"/>
        <pt x="177" y="-57" on="1"/>
        <pt x="165" y="-57" on="0"/>
        <pt x="120" y="-69" on="0"/>
        <pt x="103" y="-69" on="1"/>
        <pt x="94" y="-69" on="0"/>
        <pt x="82" y="-62" on="0"/>
        <pt x="82" y="-54" on="1"/>
        <pt x="82" y="-45" on="0"/>
        <pt x="100" y="-1" on="0"/>
        <pt x="130" y="58" on="0"/>
        <pt x="167" y="128" on="0"/>
        <pt x="205" y="198" on="0"/>
        <pt x="241" y="262" on="0"/>
        <pt x="254" y="286" on="1"/>
        <pt x="303" y="380" on="0"/>
        <pt x="359" y="481" on="1"/>
        <pt x="472" y="685" on="1"/>
        <pt x="124" y="1306" on="1"/>
        <pt x="114" y="1323" on="0"/>
        <pt x="114" y="1341" on="1"/>
        <pt x="114" y="1352" on="0"/>
        <pt x="122" y="1355" on="1"/>
      </contour>
    </TTGlyph>
    <TTGlyph name="Y" xMin="107" yMin="-69" xMax="1269" yMax="1447">
      <contour>
        <pt x="119" y="1332" on="1"/>
        <pt x="125" y="1336" on="0"/>
        <pt x="154" y="1349" on="0"/>
        <pt x="193" y="1365" on="0"/>
        <pt x="238" y="1384" on="0"/>
        <pt x="261" y="1393" on="1"/>
        <pt x="377" y="1439" on="1"/>
        <pt x="390" y="1445" on="0"/>
        <pt x="401" y="1445" on="1"/>
        <pt x="409" y="1445" on="0"/>
        <pt x="428" y="1436" on="0"/>
        <pt x="440" y="1424" on="1"/>
        <pt x="671" y="976" on="1"/>
        <pt x="677" y="991" on="1"/>
        <pt x="776" y="1174" on="1"/>
        <pt x="795" y="1208" on="0"/>
        <pt x="832" y="1274" on="0"/>
        <pt x="861" y="1326" on="0"/>
        <pt x="881" y="1358" on="0"/>
        <pt x="883" y="1358" on="1"/>
        <pt x="1226" y="1444" on="1"/>
        <pt x="1238" y="1447" on="0"/>
        <pt x="1246" y="1447" on="1"/>
        <pt x="1269" y="1447" on="0"/>
        <pt x="1269" y="1426" on="1"/>
        <pt x="1268" y="1421" on="0"/>
        <pt x="1266" y="1404" on="0"/>
        <pt x="1261" y="1394" on="1"/>
        <pt x="967" y="849" on="1"/>
        <pt x="945" y="808" on="0"/>
        <pt x="900" y="726" on="0"/>
        <pt x="858" y="653" on="0"/>
        <pt x="825" y="593" on="0"/>
        <pt x="815" y="574" on="1"/>
        <pt x="808" y="541" on="1"/>
        <pt x="752" y="166" on="1"/>
        <pt x="749" y="149" on="0"/>
        <pt x="745" y="127" on="0"/>
        <pt x="738" y="113" on="0"/>
        <pt x="727" y="103" on="0"/>
        <pt x="717" y="98" on="1"/>
        <pt x="433" y="-51" on="1"/>
        <pt x="417" y="-59" on="0"/>
        <pt x="382" y="-69" on="0"/>
        <pt x="366" y="-69" on="1"/>
        <pt x="349" y="-69" on="0"/>
        <pt x="325" y="-54" on="0"/>
        <pt x="325" y="-37" on="1"/>
        <pt x="325" y="-33" on="1"/>
        <pt x="329" y="24" on="0"/>
        <pt x="350" y="175" on="0"/>
        <pt x="362" y="247" on="1"/>
        <pt x="418" y="618" on="1"/>
        <pt x="402" y="652" on="0"/>
        <pt x="350" y="764" on="0"/>
        <pt x="290" y="894" on="0"/>
        <pt x="225" y="1032" on="0"/>
        <pt x="168" y="1155" on="0"/>
        <pt x="123" y="1249" on="0"/>
        <pt x="112" y="1271" on="1"/>
        <pt x="107" y="1286" on="0"/>
        <pt x="107" y="1302" on="1"/>
        <pt x="107" y="1311" on="0"/>
        <pt x="112" y="1328" on="0"/>
      </contour>
    </TTGlyph>
    <TTGlyph name="Yacute" xMin="107" yMin="-69" xMax="1269" yMax="2232">
      <component glyphName="Y" x="0" y="0" flags="0x1204"/>
      <component glyphName="acute" x="326" y="334" flags="0x1004"/>
    </TTGlyph>
    <TTGlyph name="Ydieresis" xMin="107" yMin="-69" xMax="1269" yMax="1912">
      <component glyphName="Y" x="0" y="0" flags="0x1204"/>
      <component glyphName="dieresis" x="62" y="334" flags="0x1004"/>
    </TTGlyph>
    <TTGlyph name="Z" xMin="103" yMin="-2" xMax="1260" yMax="1406">
      <contour>
        <pt x="205" y="0" on="1"/>
        <pt x="193" y="0" on="0"/>
        <pt x="169" y="5" on="0"/>
        <pt x="149" y="18" on="0"/>
        <pt x="136" y="41" on="0"/>
        <pt x="136" y="60" on="1"/>
        <pt x="136" y="62" on="0"/>
        <pt x="138" y="66" on="0"/>
        <pt x="138" y="68" on="1"/>
        <pt x="659" y="982" on="1"/>
        <pt x="659" y="985" on="0"/>
        <pt x="616" y="990" on="0"/>
        <pt x="549" y="993" on="0"/>
        <pt x="469" y="996" on="0"/>
        <pt x="396" y="997" on="0"/>
        <pt x="339" y="998" on="0"/>
        <pt x="329" y="998" on="1"/>
        <pt x="275" y="998" on="0"/>
        <pt x="181" y="995" on="0"/>
        <pt x="130" y="995" on="1"/>
        <pt x="119" y="995" on="0"/>
        <pt x="103" y="1010" on="0"/>
        <pt x="103" y="1020" on="1"/>
        <pt x="104" y="1021" on="0"/>
        <pt x="104" y="1022" on="1"/>
        <pt x="104" y="1025" on="0"/>
        <pt x="105" y="1028" on="1"/>
        <pt x="234" y="1337" on="1"/>
        <pt x="243" y="1359" on="0"/>
        <pt x="280" y="1386" on="0"/>
        <pt x="327" y="1401" on="0"/>
        <pt x="381" y="1406" on="0"/>
        <pt x="407" y="1406" on="1"/>
        <pt x="516" y="1406" on="0"/>
        <pt x="728" y="1397" on="0"/>
        <pt x="939" y="1387" on="0"/>
        <pt x="1150" y="1378" on="0"/>
        <pt x="1258" y="1378" on="1"/>
        <pt x="1258" y="1337" on="1"/>
        <pt x="771" y="427" on="1"/>
        <pt x="771" y="425" on="0"/>
        <pt x="770" y="424" on="0"/>
        <pt x="770" y="422" on="1"/>
        <pt x="770" y="411" on="0"/>
        <pt x="790" y="408" on="0"/>
        <pt x="798" y="408" on="1"/>
        <pt x="996" y="408" on="1"/>
        <pt x="1056" y="408" on="0"/>
        <pt x="1168" y="423" on="0"/>
        <pt x="1228" y="423" on="1"/>
        <pt x="1240" y="423" on="0"/>
        <pt x="1260" y="408" on="0"/>
        <pt x="1260" y="397" on="1"/>
        <pt x="1260" y="398" on="0"/>
        <pt x="1258" y="388" on="1"/>
        <pt x="1097" y="68" on="1"/>
        <pt x="1089" y="44" on="0"/>
        <pt x="1046" y="16" on="0"/>
        <pt x="985" y="2" on="0"/>
        <pt x="911" y="-2" on="0"/>
        <pt x="872" y="-2" on="1"/>
        <pt x="715" y="-2" on="0"/>
        <pt x="392" y="0" on="0"/>
      </contour>
    </TTGlyph>
    <TTGlyph name="Zcaron" xMin="103" yMin="-2" xMax="1260" yMax="2192">
      <component glyphName="Z" x="0" y="0" flags="0x1204"/>
      <component glyphName="caron" x="137" y="334" flags="0x1004"/>
    </TTGlyph>
    <TTGlyph name="a" xMin="104" yMin="-52" xMax="1244" yMax="1133">
      <contour>
        <pt x="1141" y="201" on="1"/>
        <pt x="1140" y="197" on="0"/>
        <pt x="1140" y="190" on="0"/>
        <pt x="1140" y="187" on="1"/>
        <pt x="1140" y="162" on="0"/>
        <pt x="1156" y="129" on="0"/>
        <pt x="1175" y="108" on="0"/>
        <pt x="1191" y="95" on="0"/>
        <pt x="1191" y="90" on="1"/>
        <pt x="1191" y="76" on="0"/>
        <pt x="1161" y="64" on="1"/>
        <pt x="892" y="-51" on="1"/>
        <pt x="891" y="-52" on="0"/>
        <pt x="885" y="-52" on="1"/>
        <pt x="877" y="-52" on="0"/>
        <pt x="861" y="-24" on="0"/>
        <pt x="846" y="19" on="0"/>
        <pt x="833" y="68" on="0"/>
        <pt x="828" y="89" on="1"/>
        <pt x="765" y="16" on="0"/>
        <pt x="619" y="-52" on="0"/>
        <pt x="547" y="-52" on="1"/>
        <pt x="463" y="-52" on="0"/>
        <pt x="303" y="22" on="0"/>
        <pt x="179" y="159" on="0"/>
        <pt x="104" y="353" on="0"/>
        <pt x="104" y="474" on="1"/>
        <pt x="104" y="617" on="0"/>
        <pt x="187" y="853" on="0"/>
        <pt x="329" y="1023" on="0"/>
        <pt x="518" y="1116" on="0"/>
        <pt x="624" y="1116" on="1"/>
        <pt x="699" y="1116" on="0"/>
        <pt x="833" y="1055" on="0"/>
        <pt x="893" y="1007" on="1"/>
        <pt x="899" y="1037" on="0"/>
        <pt x="901" y="1073" on="0"/>
        <pt x="908" y="1093" on="0"/>
        <pt x="928" y="1100" on="0"/>
        <pt x="951" y="1102" on="1"/>
        <pt x="1023" y="1112" on="0"/>
        <pt x="1166" y="1129" on="0"/>
        <pt x="1244" y="1133" on="1"/>
      </contour>
      <contour>
        <pt x="842" y="578" on="1"/>
        <pt x="852" y="635" on="0"/>
        <pt x="859" y="736" on="0"/>
        <pt x="861" y="778" on="1"/>
        <pt x="845" y="790" on="0"/>
        <pt x="808" y="816" on="0"/>
        <pt x="765" y="839" on="0"/>
        <pt x="718" y="853" on="0"/>
        <pt x="692" y="853" on="1"/>
        <pt x="638" y="853" on="0"/>
        <pt x="565" y="783" on="0"/>
        <pt x="520" y="681" on="0"/>
        <pt x="501" y="567" on="0"/>
        <pt x="501" y="523" on="1"/>
        <pt x="501" y="365" on="0"/>
        <pt x="584" y="218" on="0"/>
        <pt x="658" y="218" on="1"/>
        <pt x="688" y="218" on="0"/>
        <pt x="762" y="252" on="0"/>
        <pt x="800" y="282" on="1"/>
      </contour>
    </TTGlyph>
    <TTGlyph name="aacute" xMin="104" yMin="-52" xMax="1244" yMax="1898">
      <component glyphName="a" x="0" y="0" flags="0x1204"/>
      <component glyphName="acute" x="343" y="0" flags="0x1004"/>
    </TTGlyph>
    <TTGlyph name="acircumflex" xMin="104" yMin="-52" xMax="1244" yMax="1850">
      <component glyphName="a" x="0" y="0" flags="0x1204"/>
      <component glyphName="circumflex" x="154" y="0" flags="0x1004"/>
    </TTGlyph>
    <TTGlyph name="acute" xMin="47" yMin="1188" xMax="612" yMax="1898">
      <contour>
        <pt x="376" y="1392" on="1"/>
        <pt x="332" y="1331" on="0"/>
        <pt x="273" y="1252" on="0"/>
        <pt x="235" y="1206" on="0"/>
        <pt x="213" y="1188" on="0"/>
        <pt x="206" y="1188" on="1"/>
        <pt x="200" y="1188" on="0"/>
        <pt x="196" y="1192" on="1"/>
        <pt x="175" y="1206" on="0"/>
        <pt x="141" y="1227" on="0"/>
        <pt x="111" y="1244" on="0"/>
        <pt x="80" y="1260" on="0"/>
        <pt x="61" y="1269" on="1"/>
        <pt x="47" y="1277" on="0"/>
        <pt x="47" y="1290" on="1"/>
        <pt x="48" y="1298" on="0"/>
        <pt x="53" y="1320" on="0"/>
        <pt x="59" y="1337" on="1"/>
        <pt x="244" y="1874" on="1"/>
        <pt x="249" y="1888" on="0"/>
        <pt x="259" y="1898" on="0"/>
        <pt x="265" y="1898" on="1"/>
        <pt x="270" y="1898" on="0"/>
        <pt x="280" y="1893" on="0"/>
        <pt x="285" y="1890" on="1"/>
        <pt x="363" y="1837" on="0"/>
        <pt x="518" y="1762" on="0"/>
        <pt x="594" y="1722" on="1"/>
        <pt x="612" y="1711" on="0"/>
        <pt x="612" y="1695" on="1"/>
        <pt x="612" y="1679" on="0"/>
        <pt x="595" y="1654" on="1"/>
        <pt x="556" y="1609" on="0"/>
        <pt x="505" y="1550" on="0"/>
        <pt x="460" y="1496" on="0"/>
        <pt x="412" y="1436" on="0"/>
      </contour>
    </TTGlyph>
    <TTGlyph name="adieresis" xMin="104" yMin="-52" xMax="1244" yMax="1578">
      <component glyphName="a" x="0" y="0" flags="0x1204"/>
      <component glyphName="dieresis" x="78" y="0" flags="0x1004"/>
    </TTGlyph>
    <TTGlyph name="ae" xMin="103" yMin="-61" xMax="1915" yMax="1117">
      <contour>
        <pt x="1083" y="890" on="1"/>
        <pt x="1161" y="995" on="0"/>
        <pt x="1369" y="1117" on="0"/>
        <pt x="1496" y="1117" on="1"/>
        <pt x="1543" y="1117" on="0"/>
        <pt x="1642" y="1088" on="0"/>
        <pt x="1735" y="1034" on="0"/>
        <pt x="1818" y="957" on="0"/>
        <pt x="1879" y="863" on="0"/>
        <pt x="1915" y="754" on="0"/>
        <pt x="1915" y="694" on="1"/>
        <pt x="1915" y="659" on="0"/>
        <pt x="1904" y="585" on="0"/>
        <pt x="1894" y="548" on="1"/>
        <pt x="1894" y="518" on="0"/>
        <pt x="1866" y="492" on="0"/>
        <pt x="1801" y="479" on="0"/>
        <pt x="1697" y="467" on="0"/>
        <pt x="1621" y="451" on="1"/>
        <pt x="1573" y="441" on="0"/>
        <pt x="1474" y="427" on="0"/>
        <pt x="1375" y="413" on="0"/>
        <pt x="1276" y="397" on="0"/>
        <pt x="1228" y="385" on="1"/>
        <pt x="1232" y="340" on="0"/>
        <pt x="1279" y="274" on="0"/>
        <pt x="1351" y="231" on="0"/>
        <pt x="1443" y="211" on="0"/>
        <pt x="1492" y="211" on="1"/>
        <pt x="1540" y="211" on="0"/>
        <pt x="1629" y="230" on="0"/>
        <pt x="1711" y="260" on="0"/>
        <pt x="1787" y="298" on="0"/>
        <pt x="1821" y="317" on="1"/>
        <pt x="1830" y="319" on="0"/>
        <pt x="1843" y="322" on="0"/>
        <pt x="1849" y="322" on="1"/>
        <pt x="1849" y="322" on="0"/>
        <pt x="1848" y="289" on="0"/>
        <pt x="1848" y="228" on="0"/>
        <pt x="1847" y="142" on="0"/>
        <pt x="1846" y="90" on="1"/>
        <pt x="1851" y="80" on="0"/>
        <pt x="1851" y="72" on="1"/>
        <pt x="1851" y="64" on="0"/>
        <pt x="1841" y="54" on="0"/>
        <pt x="1835" y="50" on="1"/>
        <pt x="1802" y="32" on="0"/>
        <pt x="1707" y="-7" on="0"/>
        <pt x="1597" y="-40" on="0"/>
        <pt x="1482" y="-61" on="0"/>
        <pt x="1430" y="-61" on="1"/>
        <pt x="1370" y="-61" on="0"/>
        <pt x="1252" y="-37" on="0"/>
        <pt x="1143" y="9" on="0"/>
        <pt x="1046" y="77" on="0"/>
        <pt x="1006" y="121" on="1"/>
        <pt x="952" y="74" on="0"/>
        <pt x="836" y="6" on="0"/>
        <pt x="717" y="-39" on="0"/>
        <pt x="600" y="-61" on="0"/>
        <pt x="546" y="-61" on="1"/>
        <pt x="462" y="-61" on="0"/>
        <pt x="302" y="13" on="0"/>
        <pt x="178" y="150" on="0"/>
        <pt x="103" y="344" on="0"/>
        <pt x="103" y="465" on="1"/>
        <pt x="103" y="608" on="0"/>
        <pt x="186" y="844" on="0"/>
        <pt x="328" y="1013" on="0"/>
        <pt x="517" y="1106" on="0"/>
        <pt x="623" y="1106" on="1"/>
        <pt x="764" y="1106" on="0"/>
        <pt x="1002" y="1051" on="0"/>
        <pt x="1112" y="1008" on="1"/>
      </contour>
      <contour>
        <pt x="829" y="273" on="1"/>
        <pt x="843" y="397" on="0"/>
        <pt x="861" y="573" on="0"/>
        <pt x="873" y="694" on="0"/>
        <pt x="879" y="772" on="0"/>
        <pt x="880" y="799" on="1"/>
        <pt x="845" y="813" on="0"/>
        <pt x="748" y="844" on="0"/>
        <pt x="691" y="844" on="1"/>
        <pt x="637" y="844" on="0"/>
        <pt x="564" y="774" on="0"/>
        <pt x="519" y="672" on="0"/>
        <pt x="500" y="558" on="0"/>
        <pt x="500" y="514" on="1"/>
        <pt x="500" y="356" on="0"/>
        <pt x="583" y="209" on="0"/>
        <pt x="657" y="209" on="1"/>
        <pt x="694" y="209" on="0"/>
        <pt x="781" y="243" on="0"/>
      </contour>
      <contour>
        <pt x="1471" y="850" on="1"/>
        <pt x="1424" y="850" on="0"/>
        <pt x="1346" y="815" on="0"/>
        <pt x="1283" y="750" on="0"/>
        <pt x="1235" y="659" on="0"/>
        <pt x="1219" y="604" on="1"/>
        <pt x="1630" y="685" on="1"/>
        <pt x="1630" y="689" on="0"/>
        <pt x="1631" y="697" on="0"/>
        <pt x="1631" y="701" on="1"/>
        <pt x="1631" y="738" on="0"/>
        <pt x="1601" y="794" on="0"/>
        <pt x="1555" y="831" on="0"/>
        <pt x="1498" y="850" on="0"/>
      </contour>
    </TTGlyph>
    <TTGlyph name="agrave" xMin="104" yMin="-52" xMax="1244" yMax="1930">
      <component glyphName="a" x="0" y="0" flags="0x1204"/>
      <component glyphName="grave" x="410" y="0" flags="0x1004"/>
    </TTGlyph>
    <TTGlyph name="ampersand" xMin="80" yMin="-51" xMax="1592" yMax="1448">
      <contour>
        <pt x="80" y="297" on="1"/>
        <pt x="80" y="328" on="0"/>
        <pt x="85" y="385" on="0"/>
        <pt x="107" y="445" on="0"/>
        <pt x="154" y="510" on="0"/>
        <pt x="236" y="590" on="0"/>
        <pt x="361" y="688" on="0"/>
        <pt x="451" y="750" on="1"/>
        <pt x="388" y="834" on="0"/>
        <pt x="328" y="1004" on="0"/>
        <pt x="328" y="1085" on="1"/>
        <pt x="328" y="1160" on="0"/>
        <pt x="399" y="1292" on="0"/>
        <pt x="537" y="1391" on="0"/>
        <pt x="738" y="1448" on="0"/>
        <pt x="869" y="1448" on="1"/>
        <pt x="896" y="1448" on="0"/>
        <pt x="965" y="1435" on="0"/>
        <pt x="1036" y="1407" on="0"/>
        <pt x="1104" y="1361" on="0"/>
        <pt x="1157" y="1294" on="0"/>
        <pt x="1190" y="1206" on="0"/>
        <pt x="1190" y="1149" on="1"/>
        <pt x="1190" y="1096" on="0"/>
        <pt x="1155" y="1011" on="0"/>
        <pt x="1084" y="924" on="0"/>
        <pt x="975" y="825" on="0"/>
        <pt x="901" y="759" on="1"/>
        <pt x="1139" y="568" on="1"/>
        <pt x="1150" y="558" on="0"/>
        <pt x="1171" y="540" on="0"/>
        <pt x="1183" y="541" on="1"/>
        <pt x="1188" y="549" on="0"/>
        <pt x="1199" y="551" on="0"/>
        <pt x="1205" y="551" on="1"/>
        <pt x="1432" y="762" on="1"/>
        <pt x="1450" y="755" on="0"/>
        <pt x="1505" y="713" on="0"/>
        <pt x="1556" y="661" on="0"/>
        <pt x="1592" y="606" on="0"/>
        <pt x="1592" y="587" on="1"/>
        <pt x="1592" y="575" on="0"/>
        <pt x="1588" y="568" on="1"/>
        <pt x="1407" y="377" on="1"/>
        <pt x="1418" y="368" on="1"/>
        <pt x="1427" y="362" on="0"/>
        <pt x="1452" y="343" on="0"/>
        <pt x="1483" y="320" on="0"/>
        <pt x="1518" y="295" on="0"/>
        <pt x="1536" y="283" on="1"/>
        <pt x="1546" y="276" on="0"/>
        <pt x="1550" y="260" on="0"/>
        <pt x="1550" y="258" on="1"/>
        <pt x="1550" y="244" on="0"/>
        <pt x="1526" y="202" on="0"/>
        <pt x="1489" y="154" on="0"/>
        <pt x="1444" y="103" on="0"/>
        <pt x="1400" y="58" on="0"/>
        <pt x="1362" y="21" on="0"/>
        <pt x="1352" y="12" on="1"/>
        <pt x="1342" y="2" on="0"/>
        <pt x="1331" y="2" on="1"/>
        <pt x="1323" y="2" on="0"/>
        <pt x="1317" y="8" on="1"/>
        <pt x="1116" y="131" on="1"/>
        <pt x="1015" y="77" on="0"/>
        <pt x="862" y="7" on="0"/>
        <pt x="729" y="-35" on="0"/>
        <pt x="602" y="-51" on="0"/>
        <pt x="526" y="-51" on="1"/>
        <pt x="442" y="-51" on="0"/>
        <pt x="282" y="-9" on="0"/>
        <pt x="157" y="78" on="0"/>
        <pt x="80" y="208" on="0"/>
      </contour>
      <contour>
        <pt x="514" y="361" on="1"/>
        <pt x="514" y="339" on="0"/>
        <pt x="526" y="294" on="0"/>
        <pt x="556" y="257" on="0"/>
        <pt x="608" y="233" on="0"/>
        <pt x="649" y="233" on="1"/>
        <pt x="662" y="233" on="0"/>
        <pt x="708" y="237" on="0"/>
        <pt x="766" y="255" on="0"/>
        <pt x="837" y="292" on="0"/>
        <pt x="876" y="325" on="1"/>
        <pt x="638" y="556" on="1"/>
        <pt x="616" y="544" on="0"/>
        <pt x="572" y="514" on="0"/>
        <pt x="536" y="469" on="0"/>
        <pt x="514" y="406" on="0"/>
      </contour>
      <contour>
        <pt x="791" y="1214" on="1"/>
        <pt x="759" y="1214" on="0"/>
        <pt x="712" y="1194" on="0"/>
        <pt x="682" y="1161" on="0"/>
        <pt x="667" y="1118" on="0"/>
        <pt x="667" y="1094" on="1"/>
        <pt x="667" y="1057" on="0"/>
        <pt x="700" y="980" on="0"/>
        <pt x="732" y="951" on="1"/>
        <pt x="810" y="1003" on="0"/>
        <pt x="877" y="1102" on="0"/>
        <pt x="877" y="1140" on="1"/>
        <pt x="877" y="1174" on="0"/>
        <pt x="831" y="1214" on="0"/>
      </contour>
    </TTGlyph>
    <TTGlyph name="aring" xMin="104" yMin="-52" xMax="1244" yMax="1737">
      <component glyphName="a" x="0" y="0" flags="0x1204"/>
      <component glyphName="ring" x="319" y="0" flags="0x1004"/>
    </TTGlyph>
    <TTGlyph name="asciicircum" xMin="41" yMin="76" xMax="1133" yMax="985">
      <contour>
        <pt x="747" y="92" on="1"/>
        <pt x="742" y="108" on="0"/>
        <pt x="722" y="180" on="0"/>
        <pt x="696" y="270" on="0"/>
        <pt x="669" y="368" on="0"/>
        <pt x="645" y="454" on="0"/>
        <pt x="628" y="517" on="0"/>
        <pt x="625" y="528" on="1"/>
        <pt x="394" y="88" on="1"/>
        <pt x="389" y="76" on="0"/>
        <pt x="369" y="76" on="1"/>
        <pt x="333" y="85" on="0"/>
        <pt x="254" y="97" on="0"/>
        <pt x="173" y="106" on="0"/>
        <pt x="92" y="112" on="0"/>
        <pt x="55" y="115" on="1"/>
        <pt x="41" y="118" on="0"/>
        <pt x="41" y="128" on="1"/>
        <pt x="41" y="140" on="0"/>
        <pt x="57" y="176" on="1"/>
        <pt x="95" y="246" on="0"/>
        <pt x="176" y="400" on="0"/>
        <pt x="258" y="555" on="0"/>
        <pt x="337" y="705" on="0"/>
        <pt x="407" y="835" on="0"/>
        <pt x="467" y="939" on="0"/>
        <pt x="489" y="972" on="1"/>
        <pt x="490" y="975" on="0"/>
        <pt x="498" y="983" on="0"/>
        <pt x="503" y="984" on="1"/>
        <pt x="510" y="985" on="1"/>
        <pt x="511" y="985" on="0"/>
        <pt x="513" y="984" on="0"/>
        <pt x="515" y="984" on="1"/>
        <pt x="596" y="975" on="0"/>
        <pt x="753" y="966" on="0"/>
        <pt x="828" y="964" on="1"/>
        <pt x="837" y="964" on="0"/>
        <pt x="850" y="959" on="0"/>
        <pt x="861" y="947" on="0"/>
        <pt x="870" y="926" on="0"/>
        <pt x="876" y="910" on="1"/>
        <pt x="1128" y="214" on="1"/>
        <pt x="1130" y="203" on="0"/>
        <pt x="1133" y="188" on="0"/>
        <pt x="1133" y="182" on="1"/>
        <pt x="1133" y="158" on="0"/>
        <pt x="1111" y="151" on="1"/>
        <pt x="1026" y="137" on="0"/>
        <pt x="854" y="108" on="0"/>
        <pt x="769" y="86" on="1"/>
        <pt x="763" y="84" on="0"/>
        <pt x="757" y="84" on="1"/>
        <pt x="749" y="84" on="0"/>
      </contour>
    </TTGlyph>
    <TTGlyph name="asciitilde" xMin="114" yMin="506" xMax="1111" yMax="996">
      <contour>
        <pt x="723" y="871" on="1"/>
        <pt x="742" y="845" on="0"/>
        <pt x="775" y="823" on="0"/>
        <pt x="797" y="823" on="1"/>
        <pt x="828" y="823" on="0"/>
        <pt x="855" y="856" on="0"/>
        <pt x="866" y="897" on="0"/>
        <pt x="872" y="930" on="0"/>
        <pt x="881" y="930" on="1"/>
        <pt x="883" y="930" on="0"/>
        <pt x="912" y="931" on="0"/>
        <pt x="954" y="933" on="0"/>
        <pt x="1004" y="935" on="0"/>
        <pt x="1048" y="938" on="0"/>
        <pt x="1081" y="939" on="0"/>
        <pt x="1085" y="939" on="1"/>
        <pt x="1093" y="939" on="0"/>
        <pt x="1111" y="931" on="0"/>
        <pt x="1111" y="920" on="1"/>
        <pt x="1111" y="848" on="0"/>
        <pt x="1060" y="701" on="0"/>
        <pt x="967" y="581" on="0"/>
        <pt x="837" y="506" on="0"/>
        <pt x="758" y="506" on="1"/>
        <pt x="726" y="506" on="0"/>
        <pt x="663" y="518" on="0"/>
        <pt x="600" y="551" on="0"/>
        <pt x="536" y="610" on="0"/>
        <pt x="503" y="658" on="1"/>
        <pt x="486" y="682" on="0"/>
        <pt x="449" y="695" on="0"/>
        <pt x="423" y="695" on="1"/>
        <pt x="399" y="695" on="0"/>
        <pt x="369" y="675" on="0"/>
        <pt x="351" y="643" on="0"/>
        <pt x="344" y="604" on="0"/>
        <pt x="344" y="585" on="1"/>
        <pt x="344" y="577" on="0"/>
        <pt x="328" y="562" on="0"/>
        <pt x="315" y="562" on="1"/>
        <pt x="283" y="562" on="0"/>
        <pt x="244" y="561" on="0"/>
        <pt x="211" y="560" on="0"/>
        <pt x="174" y="559" on="0"/>
        <pt x="144" y="559" on="1"/>
        <pt x="133" y="559" on="0"/>
        <pt x="114" y="567" on="0"/>
        <pt x="114" y="576" on="1"/>
        <pt x="114" y="670" on="0"/>
        <pt x="168" y="825" on="0"/>
        <pt x="261" y="935" on="0"/>
        <pt x="385" y="996" on="0"/>
        <pt x="456" y="996" on="1"/>
        <pt x="496" y="996" on="0"/>
        <pt x="565" y="990" on="0"/>
        <pt x="630" y="966" on="0"/>
        <pt x="691" y="916" on="0"/>
      </contour>
    </TTGlyph>
    <TTGlyph name="asterisk" xMin="116" yMin="-85" xMax="1231" yMax="1132">
      <contour>
        <pt x="434" y="512" on="1"/>
        <pt x="330" y="585" on="1"/>
        <pt x="224" y="654" on="0"/>
        <pt x="116" y="727" on="0"/>
        <pt x="116" y="748" on="1"/>
        <pt x="116" y="753" on="0"/>
        <pt x="125" y="772" on="0"/>
        <pt x="145" y="803" on="0"/>
        <pt x="177" y="850" on="0"/>
        <pt x="200" y="883" on="1"/>
        <pt x="256" y="965" on="1"/>
        <pt x="262" y="970" on="0"/>
        <pt x="273" y="977" on="0"/>
        <pt x="280" y="977" on="1"/>
        <pt x="293" y="977" on="0"/>
        <pt x="314" y="959" on="1"/>
        <pt x="384" y="900" on="1"/>
        <pt x="416" y="873" on="0"/>
        <pt x="496" y="807" on="0"/>
        <pt x="538" y="772" on="1"/>
        <pt x="542" y="816" on="1"/>
        <pt x="552" y="927" on="0"/>
        <pt x="565" y="1051" on="0"/>
        <pt x="577" y="1113" on="0"/>
        <pt x="591" y="1130" on="0"/>
        <pt x="603" y="1132" on="1"/>
        <pt x="621" y="1132" on="1"/>
        <pt x="633" y="1132" on="0"/>
        <pt x="695" y="1130" on="0"/>
        <pt x="764" y="1129" on="0"/>
        <pt x="827" y="1128" on="0"/>
        <pt x="839" y="1128" on="1"/>
        <pt x="845" y="1128" on="1"/>
        <pt x="859" y="1124" on="0"/>
        <pt x="873" y="1111" on="0"/>
        <pt x="873" y="1093" on="1"/>
        <pt x="873" y="1089" on="0"/>
        <pt x="873" y="1081" on="0"/>
        <pt x="872" y="1076" on="1"/>
        <pt x="857" y="987" on="1"/>
        <pt x="850" y="945" on="0"/>
        <pt x="837" y="841" on="0"/>
        <pt x="831" y="784" on="1"/>
        <pt x="867" y="818" on="0"/>
        <pt x="941" y="890" on="0"/>
        <pt x="1005" y="949" on="0"/>
        <pt x="1055" y="987" on="0"/>
        <pt x="1067" y="987" on="1"/>
        <pt x="1074" y="987" on="0"/>
        <pt x="1085" y="980" on="0"/>
        <pt x="1091" y="975" on="1"/>
        <pt x="1147" y="893" on="1"/>
        <pt x="1169" y="861" on="0"/>
        <pt x="1200" y="815" on="0"/>
        <pt x="1221" y="783" on="0"/>
        <pt x="1231" y="764" on="0"/>
        <pt x="1231" y="758" on="1"/>
        <pt x="1231" y="750" on="0"/>
        <pt x="1224" y="736" on="0"/>
        <pt x="1201" y="717" on="0"/>
        <pt x="1159" y="687" on="0"/>
        <pt x="1088" y="638" on="0"/>
        <pt x="984" y="565" on="0"/>
        <pt x="912" y="512" on="1"/>
        <pt x="1176" y="307" on="1"/>
        <pt x="1199" y="288" on="0"/>
        <pt x="1217" y="267" on="0"/>
        <pt x="1218" y="259" on="1"/>
        <pt x="1218" y="251" on="0"/>
        <pt x="1202" y="231" on="0"/>
        <pt x="1191" y="212" on="1"/>
        <pt x="1180" y="194" on="0"/>
        <pt x="1124" y="120" on="0"/>
        <pt x="1071" y="47" on="1"/>
        <pt x="1063" y="36" on="0"/>
        <pt x="1050" y="36" on="1"/>
        <pt x="1034" y="36" on="0"/>
        <pt x="1016" y="51" on="1"/>
        <pt x="795" y="226" on="1"/>
        <pt x="776" y="-19" on="1"/>
        <pt x="774" y="-41" on="0"/>
        <pt x="769" y="-67" on="0"/>
        <pt x="762" y="-80" on="0"/>
        <pt x="751" y="-84" on="0"/>
        <pt x="742" y="-84" on="1"/>
        <pt x="722" y="-84" on="1"/>
        <pt x="716" y="-84" on="0"/>
        <pt x="702" y="-85" on="0"/>
        <pt x="692" y="-85" on="1"/>
        <pt x="669" y="-85" on="0"/>
        <pt x="579" y="-78" on="0"/>
        <pt x="501" y="-74" on="1"/>
        <pt x="489" y="-73" on="0"/>
        <pt x="474" y="-52" on="0"/>
        <pt x="474" y="-32" on="1"/>
        <pt x="502" y="219" on="1"/>
        <pt x="321" y="91" on="1"/>
        <pt x="311" y="84" on="0"/>
        <pt x="295" y="76" on="0"/>
        <pt x="287" y="76" on="1"/>
        <pt x="274" y="76" on="0"/>
        <pt x="266" y="87" on="1"/>
        <pt x="217" y="142" on="0"/>
        <pt x="164" y="198" on="0"/>
        <pt x="156" y="212" on="1"/>
        <pt x="145" y="231" on="0"/>
        <pt x="129" y="251" on="0"/>
        <pt x="129" y="259" on="1"/>
        <pt x="129" y="267" on="0"/>
        <pt x="147" y="288" on="0"/>
        <pt x="171" y="307" on="1"/>
      </contour>
    </TTGlyph>
    <TTGlyph name="at" xMin="121" yMin="-176" xMax="1789" yMax="1478">
      <contour>
        <pt x="1047" y="486" on="1"/>
        <pt x="1058" y="558" on="0"/>
        <pt x="1073" y="659" on="0"/>
        <pt x="1082" y="729" on="0"/>
        <pt x="1087" y="775" on="0"/>
        <pt x="1088" y="791" on="1"/>
        <pt x="1073" y="805" on="0"/>
        <pt x="1025" y="836" on="0"/>
        <pt x="997" y="836" on="1"/>
        <pt x="970" y="836" on="0"/>
        <pt x="931" y="809" on="0"/>
        <pt x="903" y="767" on="0"/>
        <pt x="885" y="715" on="0"/>
        <pt x="874" y="664" on="0"/>
        <pt x="870" y="619" on="0"/>
        <pt x="870" y="605" on="1"/>
        <pt x="870" y="523" on="0"/>
        <pt x="916" y="448" on="0"/>
        <pt x="958" y="448" on="1"/>
        <pt x="976" y="448" on="0"/>
        <pt x="1022" y="469" on="0"/>
      </contour>
      <contour>
        <pt x="1079" y="348" on="1"/>
        <pt x="1031" y="293" on="0"/>
        <pt x="931" y="242" on="0"/>
        <pt x="882" y="242" on="1"/>
        <pt x="822" y="242" on="0"/>
        <pt x="712" y="290" on="0"/>
        <pt x="626" y="379" on="0"/>
        <pt x="575" y="506" on="0"/>
        <pt x="575" y="585" on="1"/>
        <pt x="575" y="685" on="0"/>
        <pt x="641" y="852" on="0"/>
        <pt x="752" y="971" on="0"/>
        <pt x="895" y="1037" on="0"/>
        <pt x="972" y="1037" on="1"/>
        <pt x="1017" y="1037" on="0"/>
        <pt x="1093" y="1000" on="0"/>
        <pt x="1125" y="971" on="1"/>
        <pt x="1129" y="990" on="0"/>
        <pt x="1132" y="1012" on="0"/>
        <pt x="1137" y="1024" on="0"/>
        <pt x="1150" y="1028" on="0"/>
        <pt x="1164" y="1029" on="1"/>
        <pt x="1216" y="1021" on="0"/>
        <pt x="1322" y="1019" on="0"/>
        <pt x="1382" y="1019" on="1"/>
        <pt x="1316" y="537" on="1"/>
        <pt x="1315" y="532" on="0"/>
        <pt x="1315" y="518" on="0"/>
        <pt x="1315" y="511" on="1"/>
        <pt x="1315" y="484" on="0"/>
        <pt x="1326" y="438" on="0"/>
        <pt x="1345" y="403" on="0"/>
        <pt x="1371" y="384" on="0"/>
        <pt x="1385" y="384" on="1"/>
        <pt x="1405" y="384" on="0"/>
        <pt x="1452" y="419" on="0"/>
        <pt x="1493" y="502" on="0"/>
        <pt x="1520" y="637" on="0"/>
        <pt x="1520" y="738" on="1"/>
        <pt x="1520" y="825" on="0"/>
        <pt x="1461" y="986" on="0"/>
        <pt x="1340" y="1108" on="0"/>
        <pt x="1153" y="1181" on="0"/>
        <pt x="1026" y="1181" on="1"/>
        <pt x="920" y="1181" on="0"/>
        <pt x="752" y="1119" on="0"/>
        <pt x="625" y="1017" on="0"/>
        <pt x="536" y="886" on="0"/>
        <pt x="480" y="750" on="0"/>
        <pt x="454" y="620" on="0"/>
        <pt x="454" y="569" on="1"/>
        <pt x="454" y="446" on="0"/>
        <pt x="532" y="272" on="0"/>
        <pt x="686" y="161" on="0"/>
        <pt x="915" y="110" on="0"/>
        <pt x="1066" y="110" on="1"/>
        <pt x="1083" y="110" on="0"/>
        <pt x="1102" y="93" on="0"/>
        <pt x="1102" y="64" on="1"/>
        <pt x="1102" y="46" on="0"/>
        <pt x="1093" y="-6" on="0"/>
        <pt x="1085" y="-44" on="1"/>
        <pt x="1076" y="-89" on="0"/>
        <pt x="1061" y="-142" on="0"/>
        <pt x="1044" y="-169" on="0"/>
        <pt x="1023" y="-176" on="0"/>
        <pt x="1008" y="-176" on="1"/>
        <pt x="802" y="-176" on="0"/>
        <pt x="473" y="-94" on="0"/>
        <pt x="244" y="74" on="0"/>
        <pt x="121" y="328" on="0"/>
        <pt x="121" y="499" on="1"/>
        <pt x="121" y="645" on="0"/>
        <pt x="194" y="904" on="0"/>
        <pt x="325" y="1121" on="0"/>
        <pt x="508" y="1294" on="0"/>
        <pt x="729" y="1414" on="0"/>
        <pt x="981" y="1478" on="0"/>
        <pt x="1115" y="1478" on="1"/>
        <pt x="1275" y="1478" on="0"/>
        <pt x="1526" y="1359" on="0"/>
        <pt x="1699" y="1157" on="0"/>
        <pt x="1789" y="887" on="0"/>
        <pt x="1789" y="737" on="1"/>
        <pt x="1789" y="632" on="0"/>
        <pt x="1722" y="433" on="0"/>
        <pt x="1608" y="278" on="0"/>
        <pt x="1459" y="184" on="0"/>
        <pt x="1377" y="184" on="1"/>
        <pt x="1292" y="184" on="0"/>
        <pt x="1143" y="260" on="0"/>
      </contour>
    </TTGlyph>
    <TTGlyph name="atilde" xMin="104" yMin="-52" xMax="1244" yMax="1704">
      <component glyphName="a" x="0" y="0" flags="0x1204"/>
      <component glyphName="tilde" x="112" y="0" flags="0x1004"/>
    </TTGlyph>
    <TTGlyph name="b" xMin="116" yMin="-52" xMax="1309" yMax="1555">
      <contour>
        <pt x="542" y="326" on="1"/>
        <pt x="552" y="306" on="0"/>
        <pt x="589" y="265" on="0"/>
        <pt x="638" y="231" on="0"/>
        <pt x="696" y="210" on="0"/>
        <pt x="727" y="210" on="1"/>
        <pt x="770" y="210" on="0"/>
        <pt x="846" y="277" on="0"/>
        <pt x="903" y="390" on="0"/>
        <pt x="935" y="535" on="0"/>
        <pt x="935" y="613" on="1"/>
        <pt x="935" y="661" on="0"/>
        <pt x="918" y="747" on="0"/>
        <pt x="882" y="811" on="0"/>
        <pt x="825" y="849" on="0"/>
        <pt x="785" y="849" on="1"/>
        <pt x="720" y="849" on="0"/>
        <pt x="612" y="773" on="0"/>
        <pt x="575" y="714" on="1"/>
      </contour>
      <contour>
        <pt x="170" y="-49" on="1"/>
        <pt x="156" y="-52" on="0"/>
        <pt x="148" y="-52" on="1"/>
        <pt x="116" y="-52" on="0"/>
        <pt x="116" y="-14" on="1"/>
        <pt x="116" y="-9" on="0"/>
        <pt x="117" y="1" on="0"/>
        <pt x="118" y="7" on="1"/>
        <pt x="234" y="1422" on="1"/>
        <pt x="234" y="1425" on="0"/>
        <pt x="235" y="1431" on="0"/>
        <pt x="235" y="1433" on="1"/>
        <pt x="235" y="1437" on="0"/>
        <pt x="234" y="1443" on="0"/>
        <pt x="234" y="1445" on="1"/>
        <pt x="234" y="1454" on="0"/>
        <pt x="247" y="1465" on="0"/>
        <pt x="274" y="1472" on="1"/>
        <pt x="555" y="1539" on="1"/>
        <pt x="566" y="1541" on="0"/>
        <pt x="602" y="1555" on="0"/>
        <pt x="619" y="1555" on="1"/>
        <pt x="632" y="1555" on="0"/>
        <pt x="655" y="1543" on="0"/>
        <pt x="655" y="1526" on="1"/>
        <pt x="655" y="1524" on="0"/>
        <pt x="654" y="1520" on="0"/>
        <pt x="654" y="1518" on="1"/>
        <pt x="653" y="1513" on="0"/>
        <pt x="645" y="1435" on="0"/>
        <pt x="635" y="1324" on="0"/>
        <pt x="623" y="1197" on="0"/>
        <pt x="613" y="1086" on="0"/>
        <pt x="605" y="1008" on="0"/>
        <pt x="604" y="1003" on="1"/>
        <pt x="677" y="1051" on="0"/>
        <pt x="833" y="1116" on="0"/>
        <pt x="911" y="1116" on="1"/>
        <pt x="1014" y="1116" on="0"/>
        <pt x="1164" y="1031" on="0"/>
        <pt x="1262" y="890" on="0"/>
        <pt x="1309" y="706" on="0"/>
        <pt x="1309" y="608" on="1"/>
        <pt x="1309" y="529" on="0"/>
        <pt x="1280" y="370" on="0"/>
        <pt x="1225" y="224" on="0"/>
        <pt x="1142" y="96" on="0"/>
        <pt x="1035" y="2" on="0"/>
        <pt x="903" y="-52" on="0"/>
        <pt x="826" y="-52" on="1"/>
        <pt x="733" y="-52" on="0"/>
        <pt x="579" y="30" on="0"/>
        <pt x="513" y="95" on="1"/>
        <pt x="511" y="71" on="0"/>
        <pt x="509" y="43" on="0"/>
        <pt x="498" y="28" on="0"/>
        <pt x="476" y="19" on="0"/>
        <pt x="454" y="14" on="1"/>
        <pt x="443" y="11" on="0"/>
        <pt x="388" y="-2" on="0"/>
        <pt x="311" y="-19" on="0"/>
        <pt x="218" y="-39" on="0"/>
      </contour>
    </TTGlyph>
    <TTGlyph name="backslash" xMin="164" yMin="-29" xMax="1060" yMax="1528">
      <contour>
        <pt x="673" y="943" on="1"/>
        <pt x="734" y="809" on="0"/>
        <pt x="834" y="585" on="0"/>
        <pt x="924" y="385" on="0"/>
        <pt x="1009" y="198" on="0"/>
        <pt x="1055" y="101" on="1"/>
        <pt x="1060" y="88" on="0"/>
        <pt x="1060" y="82" on="1"/>
        <pt x="1060" y="69" on="0"/>
        <pt x="1035" y="49" on="0"/>
        <pt x="1002" y="34" on="0"/>
        <pt x="969" y="23" on="0"/>
        <pt x="962" y="20" on="1"/>
        <pt x="861" y="-22" on="1"/>
        <pt x="846" y="-29" on="0"/>
        <pt x="835" y="-29" on="1"/>
        <pt x="820" y="-29" on="0"/>
        <pt x="813" y="-2" on="0"/>
        <pt x="806" y="15" on="1"/>
        <pt x="165" y="1429" on="1"/>
        <pt x="164" y="1430" on="0"/>
        <pt x="164" y="1432" on="1"/>
        <pt x="164" y="1437" on="0"/>
        <pt x="174" y="1443" on="0"/>
        <pt x="180" y="1445" on="1"/>
        <pt x="233" y="1455" on="0"/>
        <pt x="338" y="1506" on="0"/>
        <pt x="392" y="1528" on="1"/>
        <pt x="398" y="1528" on="1"/>
        <pt x="412" y="1528" on="0"/>
        <pt x="427" y="1505" on="0"/>
        <pt x="440" y="1476" on="1"/>
        <pt x="500" y="1339" on="0"/>
        <pt x="612" y="1075" on="0"/>
      </contour>
    </TTGlyph>
    <TTGlyph name="bar" xMin="121" yMin="-108" xMax="612" yMax="1526">
      <contour>
        <pt x="193" y="846" on="1"/>
        <pt x="208" y="992" on="0"/>
        <pt x="228" y="1282" on="0"/>
        <pt x="239" y="1432" on="1"/>
        <pt x="241" y="1465" on="0"/>
        <pt x="250" y="1490" on="0"/>
        <pt x="268" y="1494" on="1"/>
        <pt x="352" y="1500" on="0"/>
        <pt x="516" y="1515" on="0"/>
        <pt x="601" y="1526" on="1"/>
        <pt x="609" y="1526" on="0"/>
        <pt x="612" y="1521" on="0"/>
        <pt x="612" y="1516" on="1"/>
        <pt x="482" y="14" on="1"/>
        <pt x="482" y="-9" on="1"/>
        <pt x="482" y="-18" on="0"/>
        <pt x="469" y="-29" on="0"/>
        <pt x="442" y="-36" on="1"/>
        <pt x="220" y="-92" on="1"/>
        <pt x="209" y="-96" on="0"/>
        <pt x="173" y="-108" on="0"/>
        <pt x="156" y="-108" on="1"/>
        <pt x="142" y="-108" on="0"/>
        <pt x="121" y="-94" on="0"/>
        <pt x="121" y="-77" on="1"/>
        <pt x="121" y="-71" on="1"/>
        <pt x="128" y="37" on="0"/>
        <pt x="143" y="240" on="0"/>
        <pt x="159" y="456" on="0"/>
        <pt x="180" y="698" on="0"/>
      </contour>
    </TTGlyph>
    <TTGlyph name="braceleft" xMin="58" yMin="-160" xMax="920" yMax="1574">
      <contour>
        <pt x="166" y="929" on="1"/>
        <pt x="223" y="938" on="0"/>
        <pt x="303" y="1000" on="0"/>
        <pt x="365" y="1090" on="0"/>
        <pt x="417" y="1199" on="0"/>
        <pt x="475" y="1312" on="0"/>
        <pt x="548" y="1421" on="0"/>
        <pt x="653" y="1508" on="0"/>
        <pt x="797" y="1567" on="0"/>
        <pt x="898" y="1574" on="1"/>
        <pt x="902" y="1574" on="1"/>
        <pt x="911" y="1574" on="0"/>
        <pt x="920" y="1567" on="0"/>
        <pt x="920" y="1556" on="1"/>
        <pt x="912" y="1500" on="0"/>
        <pt x="904" y="1414" on="0"/>
        <pt x="896" y="1334" on="0"/>
        <pt x="884" y="1248" on="0"/>
        <pt x="872" y="1192" on="1"/>
        <pt x="869" y="1164" on="0"/>
        <pt x="849" y="1144" on="0"/>
        <pt x="839" y="1143" on="1"/>
        <pt x="789" y="1137" on="0"/>
        <pt x="734" y="1076" on="0"/>
        <pt x="698" y="990" on="0"/>
        <pt x="669" y="891" on="0"/>
        <pt x="620" y="803" on="0"/>
        <pt x="537" y="737" on="0"/>
        <pt x="466" y="727" on="1"/>
        <pt x="560" y="676" on="0"/>
        <pt x="647" y="556" on="0"/>
        <pt x="647" y="487" on="1"/>
        <pt x="647" y="473" on="0"/>
        <pt x="646" y="446" on="0"/>
        <pt x="646" y="434" on="1"/>
        <pt x="646" y="327" on="0"/>
        <pt x="705" y="208" on="0"/>
        <pt x="757" y="182" on="1"/>
        <pt x="764" y="180" on="0"/>
        <pt x="775" y="167" on="0"/>
        <pt x="775" y="152" on="1"/>
        <pt x="775" y="148" on="0"/>
        <pt x="774" y="138" on="0"/>
        <pt x="773" y="133" on="1"/>
        <pt x="764" y="91" on="0"/>
        <pt x="747" y="26" on="0"/>
        <pt x="731" y="-34" on="0"/>
        <pt x="714" y="-99" on="0"/>
        <pt x="704" y="-141" on="1"/>
        <pt x="701" y="-152" on="0"/>
        <pt x="690" y="-160" on="0"/>
        <pt x="682" y="-160" on="1"/>
        <pt x="680" y="-160" on="0"/>
        <pt x="678" y="-159" on="0"/>
        <pt x="676" y="-159" on="1"/>
        <pt x="595" y="-146" on="0"/>
        <pt x="434" y="-69" on="0"/>
        <pt x="306" y="66" on="0"/>
        <pt x="226" y="261" on="0"/>
        <pt x="226" y="393" on="1"/>
        <pt x="226" y="407" on="0"/>
        <pt x="227" y="435" on="0"/>
        <pt x="227" y="449" on="1"/>
        <pt x="227" y="487" on="0"/>
        <pt x="205" y="545" on="0"/>
        <pt x="167" y="586" on="0"/>
        <pt x="115" y="611" on="0"/>
        <pt x="86" y="616" on="1"/>
        <pt x="72" y="618" on="0"/>
        <pt x="58" y="627" on="0"/>
        <pt x="58" y="644" on="1"/>
        <pt x="58" y="662" on="0"/>
        <pt x="64" y="713" on="0"/>
        <pt x="73" y="769" on="0"/>
        <pt x="84" y="824" on="0"/>
        <pt x="93" y="868" on="0"/>
        <pt x="99" y="896" on="0"/>
        <pt x="99" y="896" on="1"/>
        <pt x="105" y="916" on="0"/>
        <pt x="136" y="925" on="0"/>
      </contour>
    </TTGlyph>
    <TTGlyph name="braceright" xMin="65" yMin="-160" xMax="908" yMax="1574">
      <contour>
        <pt x="850" y="909" on="1"/>
        <pt x="879" y="905" on="0"/>
        <pt x="908" y="896" on="0"/>
        <pt x="908" y="876" on="1"/>
        <pt x="908" y="876" on="0"/>
        <pt x="906" y="845" on="0"/>
        <pt x="903" y="797" on="0"/>
        <pt x="897" y="735" on="0"/>
        <pt x="889" y="671" on="0"/>
        <pt x="879" y="612" on="0"/>
        <pt x="873" y="590" on="1"/>
        <pt x="869" y="570" on="0"/>
        <pt x="852" y="557" on="0"/>
        <pt x="836" y="556" on="1"/>
        <pt x="779" y="540" on="0"/>
        <pt x="691" y="419" on="0"/>
        <pt x="667" y="307" on="1"/>
        <pt x="652" y="230" on="0"/>
        <pt x="586" y="105" on="0"/>
        <pt x="495" y="6" on="0"/>
        <pt x="384" y="-69" on="0"/>
        <pt x="265" y="-122" on="0"/>
        <pt x="144" y="-153" on="0"/>
        <pt x="88" y="-159" on="1"/>
        <pt x="86" y="-159" on="0"/>
        <pt x="84" y="-160" on="0"/>
        <pt x="82" y="-160" on="1"/>
        <pt x="65" y="-160" on="0"/>
        <pt x="65" y="-141" on="1"/>
        <pt x="65" y="-121" on="0"/>
        <pt x="66" y="-86" on="0"/>
        <pt x="66" y="-69" on="1"/>
        <pt x="66" y="-38" on="0"/>
        <pt x="65" y="10" on="0"/>
        <pt x="65" y="46" on="1"/>
        <pt x="65" y="66" on="0"/>
        <pt x="67" y="111" on="0"/>
        <pt x="74" y="150" on="0"/>
        <pt x="87" y="179" on="0"/>
        <pt x="99" y="182" on="1"/>
        <pt x="133" y="203" on="0"/>
        <pt x="193" y="255" on="0"/>
        <pt x="244" y="327" on="0"/>
        <pt x="284" y="427" on="0"/>
        <pt x="298" y="496" on="1"/>
        <pt x="315" y="565" on="0"/>
        <pt x="408" y="686" on="0"/>
        <pt x="496" y="737" on="1"/>
        <pt x="439" y="745" on="0"/>
        <pt x="371" y="789" on="0"/>
        <pt x="334" y="850" on="0"/>
        <pt x="320" y="923" on="0"/>
        <pt x="314" y="999" on="0"/>
        <pt x="309" y="1070" on="0"/>
        <pt x="288" y="1129" on="0"/>
        <pt x="245" y="1168" on="0"/>
        <pt x="204" y="1173" on="1"/>
        <pt x="196" y="1175" on="0"/>
        <pt x="183" y="1188" on="0"/>
        <pt x="183" y="1205" on="1"/>
        <pt x="183" y="1209" on="0"/>
        <pt x="184" y="1217" on="0"/>
        <pt x="185" y="1222" on="1"/>
        <pt x="188" y="1273" on="0"/>
        <pt x="198" y="1352" on="0"/>
        <pt x="211" y="1426" on="0"/>
        <pt x="226" y="1505" on="0"/>
        <pt x="234" y="1556" on="1"/>
        <pt x="236" y="1567" on="0"/>
        <pt x="248" y="1574" on="0"/>
        <pt x="256" y="1574" on="1"/>
        <pt x="261" y="1574" on="1"/>
        <pt x="365" y="1567" on="0"/>
        <pt x="501" y="1506" on="0"/>
        <pt x="586" y="1416" on="0"/>
        <pt x="633" y="1304" on="0"/>
        <pt x="663" y="1187" on="0"/>
        <pt x="686" y="1074" on="0"/>
        <pt x="726" y="982" on="0"/>
        <pt x="792" y="918" on="0"/>
      </contour>
    </TTGlyph>
    <TTGlyph name="bracketleft" xMin="125" yMin="-113" xMax="909" yMax="1450">
      <contour>
        <pt x="226" y="1322" on="1"/>
        <pt x="227" y="1346" on="0"/>
        <pt x="237" y="1373" on="0"/>
        <pt x="249" y="1387" on="0"/>
        <pt x="263" y="1391" on="0"/>
        <pt x="269" y="1392" on="1"/>
        <pt x="880" y="1450" on="1"/>
        <pt x="881" y="1450" on="0"/>
        <pt x="890" y="1449" on="0"/>
        <pt x="900" y="1444" on="0"/>
        <pt x="909" y="1432" on="0"/>
        <pt x="909" y="1421" on="1"/>
        <pt x="908" y="1415" on="0"/>
        <pt x="881" y="1324" on="0"/>
        <pt x="855" y="1257" on="1"/>
        <pt x="811" y="1141" on="1"/>
        <pt x="806" y="1127" on="0"/>
        <pt x="792" y="1111" on="0"/>
        <pt x="754" y="1102" on="0"/>
        <pt x="684" y="1095" on="0"/>
        <pt x="623" y="1090" on="1"/>
        <pt x="621" y="1077" on="0"/>
        <pt x="611" y="979" on="0"/>
        <pt x="598" y="839" on="0"/>
        <pt x="581" y="673" on="0"/>
        <pt x="572" y="592" on="1"/>
        <pt x="538" y="177" on="1"/>
        <pt x="731" y="179" on="1"/>
        <pt x="743" y="179" on="0"/>
        <pt x="743" y="168" on="1"/>
        <pt x="743" y="162" on="0"/>
        <pt x="736" y="146" on="0"/>
        <pt x="731" y="138" on="1"/>
        <pt x="730" y="136" on="0"/>
        <pt x="711" y="85" on="0"/>
        <pt x="686" y="18" on="0"/>
        <pt x="659" y="-51" on="0"/>
        <pt x="650" y="-72" on="1"/>
        <pt x="636" y="-98" on="0"/>
        <pt x="598" y="-113" on="0"/>
        <pt x="573" y="-113" on="1"/>
        <pt x="558" y="-113" on="0"/>
        <pt x="524" y="-111" on="0"/>
        <pt x="504" y="-109" on="1"/>
        <pt x="458" y="-106" on="0"/>
        <pt x="361" y="-102" on="0"/>
        <pt x="267" y="-97" on="0"/>
        <pt x="178" y="-88" on="0"/>
        <pt x="141" y="-79" on="1"/>
        <pt x="130" y="-78" on="0"/>
        <pt x="125" y="-57" on="0"/>
        <pt x="125" y="-46" on="1"/>
        <pt x="125" y="-41" on="0"/>
        <pt x="130" y="35" on="0"/>
        <pt x="139" y="158" on="0"/>
        <pt x="150" y="316" on="0"/>
        <pt x="163" y="489" on="0"/>
        <pt x="177" y="669" on="0"/>
        <pt x="183" y="751" on="1"/>
      </contour>
    </TTGlyph>
    <TTGlyph name="bracketright" xMin="30" yMin="-86" xMax="799" yMax="1426">
      <contour>
        <pt x="693" y="2" on="1"/>
        <pt x="691" y="-22" on="0"/>
        <pt x="681" y="-49" on="0"/>
        <pt x="669" y="-63" on="0"/>
        <pt x="656" y="-67" on="0"/>
        <pt x="650" y="-68" on="1"/>
        <pt x="380" y="-77" on="1"/>
        <pt x="328" y="-79" on="0"/>
        <pt x="224" y="-82" on="0"/>
        <pt x="136" y="-85" on="0"/>
        <pt x="72" y="-86" on="0"/>
        <pt x="59" y="-86" on="1"/>
        <pt x="58" y="-86" on="0"/>
        <pt x="49" y="-85" on="0"/>
        <pt x="38" y="-80" on="0"/>
        <pt x="30" y="-68" on="0"/>
        <pt x="30" y="-57" on="1"/>
        <pt x="29" y="-54" on="0"/>
        <pt x="50" y="23" on="0"/>
        <pt x="73" y="90" on="1"/>
        <pt x="108" y="193" on="1"/>
        <pt x="114" y="210" on="0"/>
        <pt x="133" y="228" on="0"/>
        <pt x="162" y="229" on="1"/>
        <pt x="317" y="234" on="1"/>
        <pt x="318" y="243" on="0"/>
        <pt x="322" y="294" on="0"/>
        <pt x="327" y="368" on="0"/>
        <pt x="334" y="462" on="0"/>
        <pt x="342" y="567" on="0"/>
        <pt x="351" y="678" on="0"/>
        <pt x="356" y="732" on="1"/>
        <pt x="385" y="1147" on="1"/>
        <pt x="192" y="1145" on="1"/>
        <pt x="182" y="1145" on="0"/>
        <pt x="176" y="1155" on="0"/>
        <pt x="176" y="1163" on="1"/>
        <pt x="176" y="1168" on="0"/>
        <pt x="177" y="1179" on="0"/>
        <pt x="177" y="1186" on="1"/>
        <pt x="177" y="1188" on="0"/>
        <pt x="178" y="1234" on="0"/>
        <pt x="179" y="1295" on="0"/>
        <pt x="180" y="1358" on="0"/>
        <pt x="180" y="1376" on="1"/>
        <pt x="180" y="1408" on="0"/>
        <pt x="211" y="1426" on="0"/>
        <pt x="237" y="1426" on="1"/>
        <pt x="254" y="1426" on="0"/>
        <pt x="292" y="1423" on="0"/>
        <pt x="312" y="1423" on="1"/>
        <pt x="783" y="1423" on="1"/>
        <pt x="795" y="1423" on="0"/>
        <pt x="799" y="1400" on="0"/>
        <pt x="799" y="1390" on="1"/>
        <pt x="799" y="1384" on="0"/>
        <pt x="797" y="1344" on="0"/>
        <pt x="794" y="1289" on="0"/>
        <pt x="789" y="1225" on="0"/>
        <pt x="786" y="1197" on="1"/>
        <pt x="785" y="1172" on="0"/>
        <pt x="778" y="1077" on="0"/>
        <pt x="768" y="959" on="0"/>
        <pt x="757" y="829" on="0"/>
        <pt x="746" y="707" on="0"/>
        <pt x="738" y="604" on="0"/>
        <pt x="736" y="573" on="1"/>
      </contour>
    </TTGlyph>
    <TTGlyph name="breve" xMin="75" yMin="1202" xMax="645" yMax="1488">
      <contour>
        <pt x="465" y="1461" on="1"/>
        <pt x="465" y="1467" on="0"/>
        <pt x="471" y="1477" on="0"/>
        <pt x="489" y="1484" on="0"/>
        <pt x="525" y="1488" on="0"/>
        <pt x="555" y="1488" on="1"/>
        <pt x="584" y="1488" on="0"/>
        <pt x="620" y="1485" on="0"/>
        <pt x="639" y="1479" on="0"/>
        <pt x="645" y="1470" on="0"/>
        <pt x="645" y="1463" on="1"/>
        <pt x="645" y="1415" on="0"/>
        <pt x="598" y="1321" on="0"/>
        <pt x="516" y="1248" on="0"/>
        <pt x="404" y="1202" on="0"/>
        <pt x="339" y="1202" on="1"/>
        <pt x="286" y="1202" on="0"/>
        <pt x="190" y="1226" on="0"/>
        <pt x="118" y="1273" on="0"/>
        <pt x="75" y="1340" on="0"/>
        <pt x="75" y="1384" on="1"/>
        <pt x="75" y="1393" on="0"/>
        <pt x="78" y="1414" on="0"/>
        <pt x="80" y="1427" on="1"/>
        <pt x="83" y="1442" on="0"/>
        <pt x="88" y="1463" on="0"/>
        <pt x="108" y="1476" on="0"/>
        <pt x="148" y="1483" on="0"/>
        <pt x="186" y="1483" on="1"/>
        <pt x="209" y="1483" on="0"/>
        <pt x="236" y="1480" on="0"/>
        <pt x="251" y="1475" on="0"/>
        <pt x="255" y="1467" on="0"/>
        <pt x="255" y="1463" on="1"/>
        <pt x="255" y="1461" on="0"/>
        <pt x="253" y="1446" on="0"/>
        <pt x="253" y="1437" on="1"/>
        <pt x="253" y="1424" on="0"/>
        <pt x="261" y="1396" on="0"/>
        <pt x="282" y="1373" on="0"/>
        <pt x="318" y="1358" on="0"/>
        <pt x="345" y="1358" on="1"/>
        <pt x="375" y="1358" on="0"/>
        <pt x="420" y="1375" on="0"/>
        <pt x="450" y="1402" on="0"/>
        <pt x="465" y="1433" on="0"/>
        <pt x="465" y="1448" on="1"/>
        <pt x="465" y="1461" on="1"/>
      </contour>
    </TTGlyph>
    <TTGlyph name="brokenbar" xMin="103" yMin="-121" xMax="600" yMax="1556">
      <contour>
        <pt x="180" y="834" on="1"/>
        <pt x="186" y="926" on="0"/>
        <pt x="194" y="1033" on="0"/>
        <pt x="198" y="1091" on="0"/>
        <pt x="200" y="1114" on="0"/>
        <pt x="202" y="1131" on="0"/>
        <pt x="205" y="1156" on="0"/>
        <pt x="210" y="1219" on="0"/>
        <pt x="219" y="1334" on="0"/>
        <pt x="227" y="1432" on="1"/>
        <pt x="229" y="1464" on="0"/>
        <pt x="238" y="1491" on="0"/>
        <pt x="256" y="1494" on="1"/>
        <pt x="340" y="1508" on="0"/>
        <pt x="504" y="1535" on="0"/>
        <pt x="589" y="1556" on="1"/>
        <pt x="600" y="1546" on="1"/>
        <pt x="541" y="909" on="1"/>
        <pt x="541" y="886" on="1"/>
        <pt x="541" y="878" on="0"/>
        <pt x="527" y="865" on="0"/>
        <pt x="501" y="859" on="1"/>
        <pt x="283" y="809" on="1"/>
        <pt x="272" y="808" on="0"/>
        <pt x="232" y="797" on="0"/>
        <pt x="215" y="797" on="1"/>
        <pt x="201" y="797" on="0"/>
        <pt x="180" y="811" on="0"/>
        <pt x="180" y="828" on="1"/>
      </contour>
      <contour>
        <pt x="103" y="-84" on="1"/>
        <pt x="109" y="8" on="0"/>
        <pt x="117" y="115" on="0"/>
        <pt x="121" y="173" on="0"/>
        <pt x="123" y="196" on="0"/>
        <pt x="125" y="213" on="0"/>
        <pt x="128" y="238" on="0"/>
        <pt x="133" y="301" on="0"/>
        <pt x="142" y="416" on="0"/>
        <pt x="150" y="514" on="1"/>
        <pt x="152" y="547" on="0"/>
        <pt x="161" y="572" on="0"/>
        <pt x="179" y="576" on="1"/>
        <pt x="263" y="592" on="0"/>
        <pt x="427" y="623" on="0"/>
        <pt x="512" y="648" on="1"/>
        <pt x="523" y="638" on="1"/>
        <pt x="464" y="11" on="1"/>
        <pt x="464" y="-12" on="1"/>
        <pt x="464" y="-22" on="0"/>
        <pt x="451" y="-31" on="0"/>
        <pt x="424" y="-39" on="1"/>
        <pt x="202" y="-105" on="1"/>
        <pt x="191" y="-108" on="0"/>
        <pt x="158" y="-121" on="0"/>
        <pt x="141" y="-121" on="1"/>
        <pt x="125" y="-121" on="0"/>
        <pt x="103" y="-109" on="0"/>
        <pt x="103" y="-90" on="1"/>
      </contour>
    </TTGlyph>
    <TTGlyph name="bullet" xMin="132" yMin="299" xMax="968" yMax="1106">
      <contour>
        <pt x="515" y="299" on="1"/>
        <pt x="420" y="299" on="0"/>
        <pt x="277" y="364" on="0"/>
        <pt x="181" y="471" on="0"/>
        <pt x="132" y="610" on="0"/>
        <pt x="132" y="685" on="1"/>
        <pt x="132" y="779" on="0"/>
        <pt x="207" y="935" on="0"/>
        <pt x="335" y="1045" on="0"/>
        <pt x="504" y="1106" on="0"/>
        <pt x="598" y="1106" on="1"/>
        <pt x="679" y="1106" on="0"/>
        <pt x="815" y="1049" on="0"/>
        <pt x="913" y="950" on="0"/>
        <pt x="968" y="816" on="0"/>
        <pt x="968" y="740" on="1"/>
        <pt x="968" y="636" on="0"/>
        <pt x="896" y="473" on="0"/>
        <pt x="773" y="359" on="0"/>
        <pt x="608" y="299" on="0"/>
      </contour>
    </TTGlyph>
    <TTGlyph name="c" xMin="100" yMin="-52" xMax="1086" yMax="1116">
      <contour>
        <pt x="100" y="488" on="1"/>
        <pt x="100" y="619" on="0"/>
        <pt x="197" y="848" on="0"/>
        <pt x="368" y="1018" on="0"/>
        <pt x="601" y="1116" on="0"/>
        <pt x="738" y="1116" on="1"/>
        <pt x="831" y="1116" on="0"/>
        <pt x="963" y="1086" on="0"/>
        <pt x="1047" y="1049" on="0"/>
        <pt x="1086" y="1018" on="0"/>
        <pt x="1086" y="1017" on="1"/>
        <pt x="1086" y="1011" on="0"/>
        <pt x="1077" y="956" on="0"/>
        <pt x="1066" y="883" on="0"/>
        <pt x="1057" y="806" on="0"/>
        <pt x="1057" y="778" on="1"/>
        <pt x="1057" y="773" on="0"/>
        <pt x="1051" y="761" on="0"/>
        <pt x="1038" y="761" on="1"/>
        <pt x="1026" y="761" on="0"/>
        <pt x="980" y="778" on="0"/>
        <pt x="913" y="798" on="0"/>
        <pt x="826" y="815" on="0"/>
        <pt x="773" y="815" on="1"/>
        <pt x="707" y="815" on="0"/>
        <pt x="601" y="768" on="0"/>
        <pt x="525" y="685" on="0"/>
        <pt x="484" y="571" on="0"/>
        <pt x="484" y="505" on="1"/>
        <pt x="484" y="436" on="0"/>
        <pt x="527" y="339" on="0"/>
        <pt x="599" y="278" on="0"/>
        <pt x="693" y="250" on="0"/>
        <pt x="745" y="250" on="1"/>
        <pt x="805" y="250" on="0"/>
        <pt x="927" y="283" on="0"/>
        <pt x="981" y="313" on="1"/>
        <pt x="983" y="314" on="0"/>
        <pt x="989" y="314" on="1"/>
        <pt x="994" y="314" on="0"/>
        <pt x="999" y="304" on="0"/>
        <pt x="999" y="290" on="1"/>
        <pt x="999" y="258" on="0"/>
        <pt x="999" y="167" on="0"/>
        <pt x="998" y="84" on="0"/>
        <pt x="996" y="26" on="0"/>
        <pt x="995" y="26" on="1"/>
        <pt x="959" y="2" on="0"/>
        <pt x="875" y="-28" on="0"/>
        <pt x="786" y="-46" on="0"/>
        <pt x="696" y="-52" on="0"/>
        <pt x="654" y="-52" on="1"/>
        <pt x="537" y="-52" on="0"/>
        <pt x="335" y="26" on="0"/>
        <pt x="186" y="168" on="0"/>
        <pt x="100" y="367" on="0"/>
      </contour>
    </TTGlyph>
    <TTGlyph name="caron" xMin="56" yMin="1239" xMax="1015" yMax="1858">
      <contour>
        <pt x="248" y="1427" on="1"/>
        <pt x="215" y="1469" on="0"/>
        <pt x="175" y="1524" on="0"/>
        <pt x="141" y="1573" on="0"/>
        <pt x="104" y="1629" on="0"/>
        <pt x="74" y="1674" on="1"/>
        <pt x="64" y="1688" on="0"/>
        <pt x="56" y="1710" on="0"/>
        <pt x="56" y="1718" on="1"/>
        <pt x="56" y="1732" on="0"/>
        <pt x="121" y="1770" on="0"/>
        <pt x="209" y="1808" on="0"/>
        <pt x="298" y="1843" on="0"/>
        <pt x="322" y="1855" on="1"/>
        <pt x="328" y="1858" on="0"/>
        <pt x="333" y="1858" on="1"/>
        <pt x="341" y="1858" on="0"/>
        <pt x="354" y="1844" on="0"/>
        <pt x="364" y="1827" on="1"/>
        <pt x="510" y="1567" on="1"/>
        <pt x="751" y="1852" on="1"/>
        <pt x="754" y="1857" on="0"/>
        <pt x="760" y="1857" on="1"/>
        <pt x="766" y="1856" on="0"/>
        <pt x="789" y="1849" on="0"/>
        <pt x="812" y="1836" on="1"/>
        <pt x="863" y="1808" on="0"/>
        <pt x="955" y="1768" on="0"/>
        <pt x="1005" y="1742" on="1"/>
        <pt x="1015" y="1738" on="0"/>
        <pt x="1015" y="1727" on="1"/>
        <pt x="1015" y="1718" on="0"/>
        <pt x="999" y="1692" on="0"/>
        <pt x="979" y="1674" on="1"/>
        <pt x="883" y="1568" on="0"/>
        <pt x="696" y="1358" on="0"/>
        <pt x="605" y="1255" on="1"/>
        <pt x="595" y="1244" on="0"/>
        <pt x="573" y="1239" on="0"/>
        <pt x="564" y="1239" on="1"/>
        <pt x="550" y="1239" on="1"/>
        <pt x="395" y="1239" on="1"/>
        <pt x="386" y="1239" on="0"/>
        <pt x="369" y="1244" on="0"/>
        <pt x="363" y="1255" on="1"/>
        <pt x="362" y="1257" on="0"/>
        <pt x="337" y="1294" on="0"/>
        <pt x="302" y="1346" on="0"/>
        <pt x="263" y="1404" on="0"/>
      </contour>
    </TTGlyph>
    <TTGlyph name="ccedilla" xMin="102" yMin="-596" xMax="1088" yMax="1116">
      <component glyphName="c" x="2" y="0" flags="0x1004"/>
      <component glyphName="cedilla" x="318" y="0" flags="0x1004"/>
    </TTGlyph>
    <TTGlyph name="cedilla" xMin="64" yMin="-596" xMax="500" yMax="-17">
      <contour>
        <pt x="496" y="-386" on="1"/>
        <pt x="487" y="-433" on="0"/>
        <pt x="437" y="-510" on="0"/>
        <pt x="367" y="-565" on="0"/>
        <pt x="280" y="-596" on="0"/>
        <pt x="234" y="-596" on="1"/>
        <pt x="192" y="-596" on="0"/>
        <pt x="99" y="-584" on="0"/>
        <pt x="64" y="-564" on="1"/>
        <pt x="66" y="-565" on="1"/>
        <pt x="65" y="-564" on="0"/>
        <pt x="65" y="-557" on="1"/>
        <pt x="65" y="-546" on="0"/>
        <pt x="68" y="-508" on="0"/>
        <pt x="73" y="-465" on="0"/>
        <pt x="80" y="-425" on="0"/>
        <pt x="84" y="-412" on="1"/>
        <pt x="89" y="-412" on="1"/>
        <pt x="95" y="-412" on="0"/>
        <pt x="95" y="-414" on="1"/>
        <pt x="94" y="-414" on="1"/>
        <pt x="110" y="-421" on="0"/>
        <pt x="138" y="-430" on="0"/>
        <pt x="169" y="-436" on="0"/>
        <pt x="206" y="-438" on="0"/>
        <pt x="231" y="-438" on="1"/>
        <pt x="273" y="-438" on="0"/>
        <pt x="319" y="-388" on="0"/>
        <pt x="319" y="-356" on="1"/>
        <pt x="319" y="-326" on="0"/>
        <pt x="282" y="-287" on="0"/>
        <pt x="250" y="-287" on="1"/>
        <pt x="195" y="-287" on="0"/>
        <pt x="117" y="-279" on="0"/>
        <pt x="102" y="-279" on="1"/>
        <pt x="94" y="-279" on="0"/>
        <pt x="91" y="-271" on="0"/>
        <pt x="91" y="-266" on="1"/>
        <pt x="96" y="-256" on="0"/>
        <pt x="109" y="-213" on="0"/>
        <pt x="123" y="-160" on="0"/>
        <pt x="136" y="-102" on="0"/>
        <pt x="147" y="-53" on="0"/>
        <pt x="154" y="-20" on="0"/>
        <pt x="154" y="-17" on="1"/>
        <pt x="173" y="-17" on="1"/>
        <pt x="190" y="-17" on="0"/>
        <pt x="244" y="-18" on="0"/>
        <pt x="270" y="-18" on="1"/>
        <pt x="333" y="-18" on="1"/>
        <pt x="285" y="-159" on="1"/>
        <pt x="302" y="-157" on="0"/>
        <pt x="331" y="-154" on="0"/>
        <pt x="344" y="-154" on="1"/>
        <pt x="395" y="-154" on="0"/>
        <pt x="456" y="-187" on="0"/>
        <pt x="489" y="-239" on="0"/>
        <pt x="500" y="-305" on="0"/>
        <pt x="500" y="-339" on="1"/>
        <pt x="500" y="-351" on="0"/>
        <pt x="498" y="-374" on="0"/>
      </contour>
    </TTGlyph>
    <TTGlyph name="cent" xMin="101" yMin="-252" xMax="1087" yMax="1305">
      <contour>
        <pt x="101" y="488" on="1"/>
        <pt x="101" y="613" on="0"/>
        <pt x="187" y="835" on="0"/>
        <pt x="340" y="1005" on="0"/>
        <pt x="551" y="1113" on="0"/>
        <pt x="676" y="1125" on="1"/>
        <pt x="685" y="1239" on="1"/>
        <pt x="687" y="1272" on="0"/>
        <pt x="692" y="1298" on="0"/>
        <pt x="704" y="1302" on="1"/>
        <pt x="727" y="1302" on="0"/>
        <pt x="764" y="1303" on="0"/>
        <pt x="799" y="1304" on="0"/>
        <pt x="838" y="1305" on="0"/>
        <pt x="863" y="1305" on="1"/>
        <pt x="873" y="1305" on="0"/>
        <pt x="892" y="1290" on="0"/>
        <pt x="892" y="1264" on="1"/>
        <pt x="879" y="1116" on="1"/>
        <pt x="934" y="1106" on="0"/>
        <pt x="1012" y="1077" on="0"/>
        <pt x="1063" y="1049" on="0"/>
        <pt x="1087" y="1029" on="0"/>
        <pt x="1087" y="1028" on="1"/>
        <pt x="1087" y="1022" on="0"/>
        <pt x="1078" y="967" on="0"/>
        <pt x="1067" y="894" on="0"/>
        <pt x="1058" y="817" on="0"/>
        <pt x="1058" y="789" on="1"/>
        <pt x="1058" y="784" on="0"/>
        <pt x="1052" y="772" on="0"/>
        <pt x="1039" y="772" on="1"/>
        <pt x="1029" y="772" on="0"/>
        <pt x="996" y="783" on="0"/>
        <pt x="949" y="799" on="0"/>
        <pt x="890" y="815" on="0"/>
        <pt x="854" y="820" on="1"/>
        <pt x="803" y="215" on="1"/>
        <pt x="852" y="221" on="0"/>
        <pt x="932" y="249" on="0"/>
        <pt x="982" y="277" on="1"/>
        <pt x="984" y="278" on="0"/>
        <pt x="990" y="278" on="1"/>
        <pt x="995" y="278" on="0"/>
        <pt x="1000" y="268" on="0"/>
        <pt x="1000" y="254" on="1"/>
        <pt x="1000" y="222" on="0"/>
        <pt x="1000" y="131" on="0"/>
        <pt x="999" y="48" on="0"/>
        <pt x="997" y="-10" on="0"/>
        <pt x="996" y="-10" on="1"/>
        <pt x="948" y="-42" on="0"/>
        <pt x="838" y="-74" on="0"/>
        <pt x="778" y="-81" on="1"/>
        <pt x="769" y="-195" on="1"/>
        <pt x="768" y="-207" on="0"/>
        <pt x="768" y="-221" on="0"/>
        <pt x="765" y="-232" on="0"/>
        <pt x="756" y="-240" on="0"/>
        <pt x="745" y="-245" on="1"/>
        <pt x="663" y="-252" on="1"/>
        <pt x="588" y="-252" on="1"/>
        <pt x="580" y="-252" on="0"/>
        <pt x="569" y="-239" on="0"/>
        <pt x="569" y="-222" on="1"/>
        <pt x="569" y="-185" on="0"/>
        <pt x="577" y="-116" on="0"/>
        <pt x="579" y="-83" on="1"/>
        <pt x="476" y="-70" on="0"/>
        <pt x="301" y="24" on="0"/>
        <pt x="173" y="173" on="0"/>
        <pt x="101" y="371" on="0"/>
      </contour>
      <contour>
        <pt x="653" y="800" on="1"/>
        <pt x="574" y="764" on="0"/>
        <pt x="485" y="607" on="0"/>
        <pt x="485" y="505" on="1"/>
        <pt x="485" y="418" on="0"/>
        <pt x="545" y="277" on="0"/>
        <pt x="606" y="240" on="1"/>
        <pt x="609" y="281" on="0"/>
        <pt x="617" y="380" on="0"/>
        <pt x="626" y="487" on="0"/>
        <pt x="635" y="596" on="0"/>
        <pt x="640" y="647" on="1"/>
      </contour>
    </TTGlyph>
    <TTGlyph name="circumflex" xMin="40" yMin="1226" xMax="1000" yMax="1850">
      <contour>
        <pt x="810" y="1662" on="1"/>
        <pt x="832" y="1635" on="0"/>
        <pt x="863" y="1593" on="0"/>
        <pt x="887" y="1559" on="0"/>
        <pt x="907" y="1528" on="0"/>
        <pt x="919" y="1510" on="1"/>
        <pt x="925" y="1501" on="0"/>
        <pt x="952" y="1465" on="0"/>
        <pt x="979" y="1424" on="0"/>
        <pt x="1000" y="1384" on="0"/>
        <pt x="1000" y="1371" on="1"/>
        <pt x="1000" y="1357" on="0"/>
        <pt x="961" y="1329" on="0"/>
        <pt x="907" y="1303" on="0"/>
        <pt x="852" y="1281" on="0"/>
        <pt x="836" y="1275" on="1"/>
        <pt x="822" y="1270" on="0"/>
        <pt x="789" y="1253" on="0"/>
        <pt x="756" y="1237" on="0"/>
        <pt x="729" y="1226" on="0"/>
        <pt x="722" y="1226" on="1"/>
        <pt x="714" y="1226" on="0"/>
        <pt x="697" y="1243" on="0"/>
        <pt x="684" y="1265" on="1"/>
        <pt x="555" y="1540" on="1"/>
        <pt x="494" y="1462" on="0"/>
        <pt x="373" y="1313" on="0"/>
        <pt x="312" y="1235" on="1"/>
        <pt x="308" y="1228" on="0"/>
        <pt x="299" y="1228" on="1"/>
        <pt x="294" y="1228" on="0"/>
        <pt x="257" y="1245" on="0"/>
        <pt x="207" y="1268" on="0"/>
        <pt x="155" y="1294" on="0"/>
        <pt x="135" y="1303" on="1"/>
        <pt x="124" y="1308" on="0"/>
        <pt x="91" y="1323" on="0"/>
        <pt x="61" y="1339" on="0"/>
        <pt x="40" y="1355" on="0"/>
        <pt x="40" y="1362" on="1"/>
        <pt x="40" y="1372" on="0"/>
        <pt x="58" y="1398" on="0"/>
        <pt x="78" y="1417" on="1"/>
        <pt x="229" y="1587" on="1"/>
        <pt x="286" y="1650" on="0"/>
        <pt x="394" y="1770" on="0"/>
        <pt x="448" y="1833" on="1"/>
        <pt x="462" y="1847" on="0"/>
        <pt x="489" y="1850" on="0"/>
        <pt x="500" y="1850" on="1"/>
        <pt x="652" y="1850" on="1"/>
        <pt x="664" y="1850" on="0"/>
        <pt x="688" y="1846" on="0"/>
        <pt x="696" y="1832" on="1"/>
        <pt x="697" y="1830" on="0"/>
        <pt x="721" y="1794" on="0"/>
        <pt x="755" y="1743" on="0"/>
        <pt x="794" y="1685" on="0"/>
      </contour>
    </TTGlyph>
    <TTGlyph name="colon" xMin="159" yMin="-49" xMax="609" yMax="1117">
      <contour>
        <pt x="179" y="727" on="1"/>
        <pt x="181" y="774" on="0"/>
        <pt x="183" y="829" on="0"/>
        <pt x="184" y="859" on="0"/>
        <pt x="184" y="871" on="0"/>
        <pt x="184" y="882" on="0"/>
        <pt x="185" y="898" on="0"/>
        <pt x="187" y="935" on="0"/>
        <pt x="191" y="1000" on="0"/>
        <pt x="194" y="1054" on="1"/>
        <pt x="196" y="1087" on="0"/>
        <pt x="205" y="1112" on="0"/>
        <pt x="223" y="1115" on="1"/>
        <pt x="311" y="1115" on="0"/>
        <pt x="503" y="1116" on="0"/>
        <pt x="588" y="1117" on="1"/>
        <pt x="597" y="1117" on="0"/>
        <pt x="609" y="1107" on="0"/>
        <pt x="609" y="1093" on="1"/>
        <pt x="581" y="779" on="1"/>
        <pt x="577" y="746" on="0"/>
        <pt x="570" y="721" on="0"/>
        <pt x="551" y="719" on="1"/>
        <pt x="466" y="718" on="0"/>
        <pt x="287" y="716" on="0"/>
        <pt x="190" y="716" on="1"/>
        <pt x="184" y="716" on="0"/>
        <pt x="179" y="718" on="0"/>
        <pt x="179" y="723" on="1"/>
      </contour>
      <contour>
        <pt x="159" y="-38" on="1"/>
        <pt x="161" y="9" on="0"/>
        <pt x="163" y="64" on="0"/>
        <pt x="164" y="94" on="0"/>
        <pt x="164" y="106" on="0"/>
        <pt x="164" y="117" on="0"/>
        <pt x="165" y="133" on="0"/>
        <pt x="167" y="170" on="0"/>
        <pt x="171" y="235" on="0"/>
        <pt x="174" y="289" on="1"/>
        <pt x="176" y="322" on="0"/>
        <pt x="185" y="347" on="0"/>
        <pt x="203" y="350" on="1"/>
        <pt x="291" y="350" on="0"/>
        <pt x="483" y="351" on="0"/>
        <pt x="568" y="352" on="1"/>
        <pt x="577" y="352" on="0"/>
        <pt x="589" y="342" on="0"/>
        <pt x="589" y="328" on="1"/>
        <pt x="561" y="14" on="1"/>
        <pt x="557" y="-19" on="0"/>
        <pt x="550" y="-44" on="0"/>
        <pt x="531" y="-46" on="1"/>
        <pt x="446" y="-47" on="0"/>
        <pt x="267" y="-49" on="0"/>
        <pt x="170" y="-49" on="1"/>
        <pt x="164" y="-49" on="0"/>
        <pt x="159" y="-47" on="0"/>
        <pt x="159" y="-42" on="1"/>
      </contour>
    </TTGlyph>
    <TTGlyph name="comma" xMin="82" yMin="-335" xMax="532" yMax="342">
      <contour>
        <pt x="260" y="-332" on="1"/>
        <pt x="249" y="-326" on="0"/>
        <pt x="236" y="-321" on="0"/>
        <pt x="213" y="-309" on="0"/>
        <pt x="168" y="-286" on="0"/>
        <pt x="125" y="-262" on="1"/>
        <pt x="93" y="-245" on="0"/>
        <pt x="93" y="-234" on="1"/>
        <pt x="93" y="-231" on="0"/>
        <pt x="96" y="-226" on="1"/>
        <pt x="125" y="-181" on="0"/>
        <pt x="188" y="-82" on="0"/>
        <pt x="217" y="-31" on="1"/>
        <pt x="132" y="-30" on="1"/>
        <pt x="114" y="-30" on="1"/>
        <pt x="100" y="-30" on="0"/>
        <pt x="82" y="-27" on="0"/>
        <pt x="82" y="-20" on="1"/>
        <pt x="82" y="-18" on="1"/>
        <pt x="86" y="25" on="0"/>
        <pt x="91" y="74" on="0"/>
        <pt x="93" y="101" on="0"/>
        <pt x="94" y="113" on="0"/>
        <pt x="95" y="123" on="0"/>
        <pt x="96" y="137" on="0"/>
        <pt x="98" y="171" on="0"/>
        <pt x="103" y="230" on="0"/>
        <pt x="107" y="279" on="1"/>
        <pt x="109" y="312" on="0"/>
        <pt x="118" y="338" on="0"/>
        <pt x="136" y="340" on="1"/>
        <pt x="181" y="340" on="0"/>
        <pt x="279" y="341" on="0"/>
        <pt x="376" y="342" on="0"/>
        <pt x="471" y="342" on="0"/>
        <pt x="515" y="342" on="1"/>
        <pt x="532" y="342" on="0"/>
        <pt x="532" y="318" on="1"/>
        <pt x="514" y="74" on="1"/>
        <pt x="511" y="51" on="0"/>
        <pt x="506" y="21" on="0"/>
        <pt x="501" y="-4" on="0"/>
        <pt x="494" y="-28" on="0"/>
        <pt x="489" y="-44" on="1"/>
        <pt x="483" y="-58" on="0"/>
        <pt x="455" y="-103" on="0"/>
        <pt x="419" y="-155" on="0"/>
        <pt x="380" y="-208" on="0"/>
        <pt x="346" y="-255" on="0"/>
        <pt x="320" y="-289" on="0"/>
        <pt x="316" y="-295" on="1"/>
        <pt x="313" y="-299" on="0"/>
        <pt x="304" y="-312" on="0"/>
        <pt x="292" y="-325" on="0"/>
        <pt x="278" y="-335" on="0"/>
        <pt x="271" y="-335" on="1"/>
        <pt x="266" y="-335" on="0"/>
      </contour>
    </TTGlyph>
    <TTGlyph name="copyright" xMin="133" yMin="-63" xMax="1630" yMax="1436">
      <contour>
        <pt x="824" y="103" on="1"/>
        <pt x="913" y="103" on="0"/>
        <pt x="1078" y="144" on="0"/>
        <pt x="1221" y="220" on="0"/>
        <pt x="1339" y="330" on="0"/>
        <pt x="1423" y="469" on="0"/>
        <pt x="1469" y="634" on="0"/>
        <pt x="1469" y="728" on="1"/>
        <pt x="1469" y="837" on="0"/>
        <pt x="1394" y="1029" on="0"/>
        <pt x="1259" y="1171" on="0"/>
        <pt x="1071" y="1253" on="0"/>
        <pt x="959" y="1253" on="1"/>
        <pt x="830" y="1253" on="0"/>
        <pt x="598" y="1167" on="0"/>
        <pt x="424" y="1009" on="0"/>
        <pt x="321" y="788" on="0"/>
        <pt x="321" y="652" on="1"/>
        <pt x="321" y="542" on="0"/>
        <pt x="390" y="343" on="0"/>
        <pt x="520" y="192" on="0"/>
        <pt x="706" y="103" on="0"/>
      </contour>
      <contour>
        <pt x="788" y="-63" on="1"/>
        <pt x="635" y="-63" on="0"/>
        <pt x="393" y="53" on="0"/>
        <pt x="223" y="250" on="0"/>
        <pt x="133" y="510" on="0"/>
        <pt x="133" y="653" on="1"/>
        <pt x="133" y="830" on="0"/>
        <pt x="267" y="1118" on="0"/>
        <pt x="495" y="1324" on="0"/>
        <pt x="797" y="1436" on="0"/>
        <pt x="965" y="1436" on="1"/>
        <pt x="1112" y="1436" on="0"/>
        <pt x="1356" y="1329" on="0"/>
        <pt x="1532" y="1144" on="0"/>
        <pt x="1630" y="894" on="0"/>
        <pt x="1630" y="752" on="1"/>
        <pt x="1630" y="630" on="0"/>
        <pt x="1570" y="413" on="0"/>
        <pt x="1460" y="232" on="0"/>
        <pt x="1307" y="89" on="0"/>
        <pt x="1119" y="-10" on="0"/>
        <pt x="904" y="-63" on="0"/>
      </contour>
      <contour>
        <pt x="441" y="646" on="1"/>
        <pt x="441" y="755" on="0"/>
        <pt x="517" y="945" on="0"/>
        <pt x="652" y="1086" on="0"/>
        <pt x="836" y="1167" on="0"/>
        <pt x="944" y="1167" on="1"/>
        <pt x="1001" y="1167" on="0"/>
        <pt x="1088" y="1152" on="0"/>
        <pt x="1152" y="1129" on="0"/>
        <pt x="1195" y="1102" on="0"/>
        <pt x="1209" y="1090" on="1"/>
        <pt x="1209" y="1085" on="1"/>
        <pt x="1209" y="1075" on="0"/>
        <pt x="1212" y="1024" on="0"/>
        <pt x="1217" y="960" on="0"/>
        <pt x="1220" y="894" on="0"/>
        <pt x="1220" y="870" on="1"/>
        <pt x="1220" y="865" on="0"/>
        <pt x="1214" y="857" on="0"/>
        <pt x="1199" y="857" on="1"/>
        <pt x="1187" y="857" on="0"/>
        <pt x="1146" y="884" on="0"/>
        <pt x="1089" y="917" on="0"/>
        <pt x="1015" y="945" on="0"/>
        <pt x="971" y="945" on="1"/>
        <pt x="918" y="945" on="0"/>
        <pt x="831" y="902" on="0"/>
        <pt x="769" y="826" on="0"/>
        <pt x="736" y="721" on="0"/>
        <pt x="736" y="659" on="1"/>
        <pt x="736" y="609" on="0"/>
        <pt x="760" y="520" on="0"/>
        <pt x="807" y="452" on="0"/>
        <pt x="877" y="412" on="0"/>
        <pt x="924" y="412" on="1"/>
        <pt x="961" y="412" on="0"/>
        <pt x="1018" y="417" on="0"/>
        <pt x="1067" y="429" on="0"/>
        <pt x="1115" y="449" on="0"/>
        <pt x="1142" y="464" on="1"/>
        <pt x="1150" y="464" on="0"/>
        <pt x="1157" y="460" on="0"/>
        <pt x="1157" y="446" on="1"/>
        <pt x="1157" y="422" on="0"/>
        <pt x="1157" y="356" on="0"/>
        <pt x="1156" y="296" on="0"/>
        <pt x="1155" y="253" on="0"/>
        <pt x="1154" y="253" on="1"/>
        <pt x="1124" y="234" on="0"/>
        <pt x="1056" y="210" on="0"/>
        <pt x="984" y="197" on="0"/>
        <pt x="911" y="192" on="0"/>
        <pt x="877" y="192" on="1"/>
        <pt x="785" y="192" on="0"/>
        <pt x="626" y="258" on="0"/>
        <pt x="508" y="378" on="0"/>
        <pt x="441" y="545" on="0"/>
      </contour>
    </TTGlyph>
    <TTGlyph name="currency" xMin="175" yMin="298" xMax="1228" yMax="1362">
      <contour>
        <pt x="175" y="819" on="1"/>
        <pt x="175" y="910" on="0"/>
        <pt x="236" y="1062" on="0"/>
        <pt x="290" y="1125" on="1"/>
        <pt x="253" y="1165" on="1"/>
        <pt x="236" y="1184" on="0"/>
        <pt x="215" y="1211" on="0"/>
        <pt x="216" y="1223" on="1"/>
        <pt x="216" y="1234" on="0"/>
        <pt x="228" y="1242" on="1"/>
        <pt x="231" y="1244" on="0"/>
        <pt x="269" y="1275" on="0"/>
        <pt x="314" y="1314" on="0"/>
        <pt x="355" y="1348" on="0"/>
        <pt x="362" y="1353" on="1"/>
        <pt x="371" y="1362" on="0"/>
        <pt x="382" y="1362" on="1"/>
        <pt x="391" y="1362" on="0"/>
        <pt x="396" y="1358" on="1"/>
        <pt x="402" y="1354" on="1"/>
        <pt x="482" y="1267" on="1"/>
        <pt x="542" y="1295" on="0"/>
        <pt x="673" y="1324" on="0"/>
        <pt x="742" y="1324" on="1"/>
        <pt x="805" y="1324" on="0"/>
        <pt x="914" y="1297" on="0"/>
        <pt x="962" y="1273" on="1"/>
        <pt x="1037" y="1354" on="1"/>
        <pt x="1045" y="1362" on="0"/>
        <pt x="1057" y="1362" on="1"/>
        <pt x="1068" y="1362" on="0"/>
        <pt x="1077" y="1353" on="1"/>
        <pt x="1084" y="1348" on="0"/>
        <pt x="1125" y="1314" on="0"/>
        <pt x="1170" y="1275" on="0"/>
        <pt x="1208" y="1244" on="0"/>
        <pt x="1211" y="1242" on="1"/>
        <pt x="1223" y="1234" on="0"/>
        <pt x="1223" y="1223" on="1"/>
        <pt x="1223" y="1204" on="0"/>
        <pt x="1199" y="1179" on="1"/>
        <pt x="1183" y="1162" on="1"/>
        <pt x="1166" y="1145" on="0"/>
        <pt x="1141" y="1117" on="1"/>
        <pt x="1181" y="1059" on="0"/>
        <pt x="1223" y="927" on="0"/>
        <pt x="1223" y="855" on="1"/>
        <pt x="1223" y="764" on="0"/>
        <pt x="1176" y="615" on="0"/>
        <pt x="1133" y="555" on="1"/>
        <pt x="1212" y="468" on="1"/>
        <pt x="1220" y="459" on="0"/>
        <pt x="1228" y="439" on="0"/>
        <pt x="1228" y="430" on="1"/>
        <pt x="1228" y="416" on="0"/>
        <pt x="1221" y="409" on="1"/>
        <pt x="1202" y="386" on="0"/>
        <pt x="1158" y="346" on="0"/>
        <pt x="1120" y="316" on="0"/>
        <pt x="1094" y="298" on="0"/>
        <pt x="1093" y="298" on="1"/>
        <pt x="1076" y="298" on="0"/>
        <pt x="1015" y="353" on="0"/>
        <pt x="963" y="408" on="1"/>
        <pt x="833" y="338" on="0"/>
        <pt x="664" y="338" on="1"/>
        <pt x="601" y="338" on="0"/>
        <pt x="496" y="360" on="0"/>
        <pt x="448" y="380" on="1"/>
        <pt x="435" y="366" on="1"/>
        <pt x="373" y="300" on="0"/>
        <pt x="346" y="298" on="1"/>
        <pt x="339" y="298" on="0"/>
        <pt x="334" y="303" on="1"/>
        <pt x="328" y="306" on="0"/>
        <pt x="289" y="338" on="0"/>
        <pt x="245" y="378" on="0"/>
        <pt x="211" y="418" on="0"/>
        <pt x="211" y="430" on="1"/>
        <pt x="211" y="439" on="0"/>
        <pt x="219" y="459" on="0"/>
        <pt x="227" y="468" on="1"/>
        <pt x="271" y="518" on="1"/>
        <pt x="223" y="581" on="0"/>
        <pt x="175" y="735" on="0"/>
      </contour>
      <contour>
        <pt x="712" y="1069" on="1"/>
        <pt x="662" y="1069" on="0"/>
        <pt x="584" y="1024" on="0"/>
        <pt x="530" y="952" on="0"/>
        <pt x="502" y="861" on="0"/>
        <pt x="502" y="815" on="1"/>
        <pt x="502" y="773" on="0"/>
        <pt x="526" y="694" on="0"/>
        <pt x="575" y="634" on="0"/>
        <pt x="651" y="597" on="0"/>
        <pt x="702" y="597" on="1"/>
        <pt x="753" y="597" on="0"/>
        <pt x="830" y="640" on="0"/>
        <pt x="882" y="710" on="0"/>
        <pt x="909" y="799" on="0"/>
        <pt x="909" y="844" on="1"/>
        <pt x="909" y="887" on="0"/>
        <pt x="885" y="968" on="0"/>
        <pt x="836" y="1031" on="0"/>
        <pt x="762" y="1069" on="0"/>
      </contour>
    </TTGlyph>
    <TTGlyph name="d" xMin="104" yMin="-52" xMax="1356" yMax="1555">
      <contour>
        <pt x="877" y="569" on="1"/>
        <pt x="880" y="601" on="0"/>
        <pt x="887" y="671" on="0"/>
        <pt x="892" y="709" on="1"/>
        <pt x="869" y="769" on="0"/>
        <pt x="785" y="844" on="0"/>
        <pt x="722" y="844" on="1"/>
        <pt x="660" y="844" on="0"/>
        <pt x="574" y="773" on="0"/>
        <pt x="522" y="669" on="0"/>
        <pt x="499" y="554" on="0"/>
        <pt x="499" y="510" on="1"/>
        <pt x="499" y="456" on="0"/>
        <pt x="512" y="350" on="0"/>
        <pt x="541" y="264" on="0"/>
        <pt x="589" y="211" on="0"/>
        <pt x="625" y="211" on="1"/>
        <pt x="713" y="214" on="0"/>
        <pt x="823" y="288" on="0"/>
        <pt x="856" y="341" on="1"/>
      </contour>
      <contour>
        <pt x="1226" y="101" on="1"/>
        <pt x="1226" y="99" on="0"/>
        <pt x="1225" y="94" on="0"/>
        <pt x="1225" y="92" on="1"/>
        <pt x="1225" y="87" on="0"/>
        <pt x="1226" y="81" on="0"/>
        <pt x="1226" y="78" on="1"/>
        <pt x="1226" y="69" on="0"/>
        <pt x="1213" y="58" on="0"/>
        <pt x="1186" y="51" on="1"/>
        <pt x="918" y="-36" on="1"/>
        <pt x="907" y="-40" on="0"/>
        <pt x="871" y="-52" on="0"/>
        <pt x="854" y="-52" on="1"/>
        <pt x="840" y="-52" on="0"/>
        <pt x="819" y="-38" on="0"/>
        <pt x="819" y="-19" on="1"/>
        <pt x="819" y="-1" on="0"/>
        <pt x="820" y="21" on="0"/>
        <pt x="821" y="40" on="0"/>
        <pt x="824" y="62" on="0"/>
        <pt x="826" y="80" on="1"/>
        <pt x="751" y="20" on="0"/>
        <pt x="592" y="-52" on="0"/>
        <pt x="504" y="-52" on="1"/>
        <pt x="408" y="-52" on="0"/>
        <pt x="259" y="39" on="0"/>
        <pt x="157" y="192" on="0"/>
        <pt x="104" y="389" on="0"/>
        <pt x="104" y="496" on="1"/>
        <pt x="104" y="635" on="0"/>
        <pt x="195" y="864" on="0"/>
        <pt x="351" y="1027" on="0"/>
        <pt x="559" y="1116" on="0"/>
        <pt x="676" y="1116" on="1"/>
        <pt x="739" y="1116" on="0"/>
        <pt x="854" y="1050" on="0"/>
        <pt x="905" y="998" on="1"/>
        <pt x="908" y="1047" on="0"/>
        <pt x="916" y="1162" on="0"/>
        <pt x="924" y="1281" on="0"/>
        <pt x="932" y="1397" on="0"/>
        <pt x="935" y="1445" on="1"/>
        <pt x="935" y="1454" on="0"/>
        <pt x="948" y="1465" on="0"/>
        <pt x="975" y="1472" on="1"/>
        <pt x="1256" y="1539" on="1"/>
        <pt x="1267" y="1541" on="0"/>
        <pt x="1303" y="1555" on="0"/>
        <pt x="1320" y="1555" on="1"/>
        <pt x="1333" y="1555" on="0"/>
        <pt x="1356" y="1543" on="0"/>
        <pt x="1356" y="1526" on="1"/>
        <pt x="1356" y="1524" on="0"/>
        <pt x="1355" y="1511" on="0"/>
        <pt x="1355" y="1509" on="1"/>
      </contour>
    </TTGlyph>
    <TTGlyph name="dagger" xMin="134" yMin="96" xMax="944" yMax="1445">
      <contour>
        <pt x="645" y="918" on="1"/>
        <pt x="598" y="141" on="1"/>
        <pt x="598" y="134" on="0"/>
        <pt x="599" y="123" on="0"/>
        <pt x="599" y="119" on="1"/>
        <pt x="599" y="111" on="0"/>
        <pt x="590" y="103" on="0"/>
        <pt x="574" y="97" on="1"/>
        <pt x="455" y="100" on="1"/>
        <pt x="452" y="100" on="0"/>
        <pt x="430" y="99" on="0"/>
        <pt x="405" y="97" on="0"/>
        <pt x="381" y="96" on="0"/>
        <pt x="376" y="96" on="1"/>
        <pt x="368" y="96" on="0"/>
        <pt x="355" y="108" on="0"/>
        <pt x="355" y="124" on="1"/>
        <pt x="355" y="129" on="1"/>
        <pt x="357" y="173" on="0"/>
        <pt x="362" y="253" on="0"/>
        <pt x="368" y="333" on="0"/>
        <pt x="375" y="414" on="0"/>
        <pt x="378" y="459" on="1"/>
        <pt x="381" y="505" on="0"/>
        <pt x="388" y="623" on="0"/>
        <pt x="394" y="747" on="0"/>
        <pt x="401" y="867" on="0"/>
        <pt x="404" y="916" on="1"/>
        <pt x="280" y="915" on="1"/>
        <pt x="253" y="915" on="1"/>
        <pt x="189" y="915" on="0"/>
        <pt x="134" y="925" on="0"/>
        <pt x="134" y="941" on="1"/>
        <pt x="134" y="952" on="0"/>
        <pt x="139" y="991" on="0"/>
        <pt x="146" y="1036" on="0"/>
        <pt x="156" y="1081" on="0"/>
        <pt x="161" y="1099" on="1"/>
        <pt x="169" y="1106" on="0"/>
        <pt x="182" y="1119" on="0"/>
        <pt x="206" y="1121" on="1"/>
        <pt x="327" y="1123" on="1"/>
        <pt x="327" y="1124" on="0"/>
        <pt x="374" y="1126" on="0"/>
        <pt x="412" y="1127" on="1"/>
        <pt x="430" y="1376" on="1"/>
        <pt x="432" y="1406" on="0"/>
        <pt x="437" y="1428" on="0"/>
        <pt x="448" y="1432" on="1"/>
        <pt x="560" y="1437" on="0"/>
        <pt x="665" y="1444" on="1"/>
        <pt x="667" y="1445" on="0"/>
        <pt x="670" y="1445" on="1"/>
        <pt x="677" y="1445" on="0"/>
        <pt x="677" y="1436" on="1"/>
        <pt x="658" y="1132" on="1"/>
        <pt x="757" y="1132" on="0"/>
        <pt x="868" y="1137" on="0"/>
        <pt x="896" y="1137" on="1"/>
        <pt x="909" y="1136" on="0"/>
        <pt x="920" y="1132" on="1"/>
        <pt x="929" y="1128" on="0"/>
        <pt x="944" y="1115" on="0"/>
        <pt x="944" y="1102" on="1"/>
        <pt x="944" y="1089" on="0"/>
        <pt x="938" y="1037" on="0"/>
        <pt x="934" y="1011" on="1"/>
        <pt x="925" y="944" on="1"/>
        <pt x="924" y="938" on="0"/>
        <pt x="921" y="930" on="0"/>
        <pt x="911" y="924" on="0"/>
        <pt x="892" y="921" on="0"/>
        <pt x="876" y="921" on="1"/>
        <pt x="876" y="921" on="0"/>
        <pt x="848" y="920" on="0"/>
        <pt x="798" y="920" on="0"/>
        <pt x="730" y="919" on="0"/>
        <pt x="690" y="918" on="1"/>
      </contour>
    </TTGlyph>
    <TTGlyph name="daggerdbl" xMin="101" yMin="16" xMax="1020" yMax="1445">
      <contour>
        <pt x="685" y="348" on="1"/>
        <pt x="674" y="161" on="1"/>
        <pt x="674" y="154" on="0"/>
        <pt x="675" y="143" on="0"/>
        <pt x="675" y="139" on="1"/>
        <pt x="675" y="131" on="0"/>
        <pt x="666" y="123" on="0"/>
        <pt x="650" y="117" on="1"/>
        <pt x="491" y="30" on="1"/>
        <pt x="484" y="27" on="0"/>
        <pt x="463" y="16" on="0"/>
        <pt x="452" y="16" on="1"/>
        <pt x="444" y="16" on="0"/>
        <pt x="431" y="28" on="0"/>
        <pt x="431" y="44" on="1"/>
        <pt x="431" y="127" on="0"/>
        <pt x="443" y="271" on="0"/>
        <pt x="448" y="346" on="1"/>
        <pt x="248" y="345" on="1"/>
        <pt x="170" y="344" on="0"/>
        <pt x="101" y="355" on="0"/>
        <pt x="101" y="369" on="1"/>
        <pt x="101" y="377" on="0"/>
        <pt x="114" y="410" on="0"/>
        <pt x="136" y="449" on="0"/>
        <pt x="164" y="492" on="0"/>
        <pt x="196" y="527" on="0"/>
        <pt x="229" y="550" on="0"/>
        <pt x="244" y="551" on="1"/>
        <pt x="365" y="553" on="1"/>
        <pt x="365" y="554" on="0"/>
        <pt x="417" y="556" on="0"/>
        <pt x="459" y="557" on="1"/>
        <pt x="463" y="647" on="0"/>
        <pt x="475" y="835" on="0"/>
        <pt x="480" y="916" on="1"/>
        <pt x="286" y="915" on="1"/>
        <pt x="208" y="914" on="0"/>
        <pt x="139" y="925" on="0"/>
        <pt x="139" y="939" on="1"/>
        <pt x="139" y="947" on="0"/>
        <pt x="152" y="980" on="0"/>
        <pt x="174" y="1019" on="0"/>
        <pt x="202" y="1062" on="0"/>
        <pt x="234" y="1097" on="0"/>
        <pt x="267" y="1120" on="0"/>
        <pt x="282" y="1121" on="1"/>
        <pt x="403" y="1123" on="1"/>
        <pt x="403" y="1124" on="0"/>
        <pt x="450" y="1126" on="0"/>
        <pt x="488" y="1127" on="1"/>
        <pt x="496" y="1316" on="1"/>
        <pt x="498" y="1345" on="0"/>
        <pt x="503" y="1369" on="0"/>
        <pt x="514" y="1372" on="1"/>
        <pt x="571" y="1388" on="0"/>
        <pt x="684" y="1418" on="0"/>
        <pt x="741" y="1444" on="1"/>
        <pt x="743" y="1445" on="0"/>
        <pt x="746" y="1445" on="1"/>
        <pt x="753" y="1445" on="0"/>
        <pt x="753" y="1436" on="1"/>
        <pt x="734" y="1132" on="1"/>
        <pt x="833" y="1132" on="0"/>
        <pt x="944" y="1137" on="0"/>
        <pt x="972" y="1137" on="1"/>
        <pt x="985" y="1136" on="0"/>
        <pt x="996" y="1132" on="1"/>
        <pt x="1005" y="1128" on="0"/>
        <pt x="1020" y="1115" on="0"/>
        <pt x="1020" y="1102" on="1"/>
        <pt x="1020" y="1089" on="0"/>
        <pt x="1014" y="1037" on="0"/>
        <pt x="1010" y="1011" on="1"/>
        <pt x="1001" y="944" on="1"/>
        <pt x="1000" y="938" on="0"/>
        <pt x="997" y="930" on="0"/>
        <pt x="987" y="924" on="0"/>
        <pt x="968" y="921" on="0"/>
        <pt x="952" y="921" on="1"/>
        <pt x="952" y="921" on="0"/>
        <pt x="924" y="920" on="0"/>
        <pt x="874" y="920" on="0"/>
        <pt x="806" y="920" on="0"/>
        <pt x="766" y="919" on="1"/>
        <pt x="721" y="918" on="1"/>
        <pt x="699" y="562" on="1"/>
        <pt x="795" y="564" on="0"/>
        <pt x="907" y="567" on="0"/>
        <pt x="934" y="567" on="1"/>
        <pt x="947" y="566" on="0"/>
        <pt x="958" y="562" on="1"/>
        <pt x="967" y="558" on="0"/>
        <pt x="982" y="545" on="0"/>
        <pt x="982" y="532" on="1"/>
        <pt x="982" y="519" on="0"/>
        <pt x="976" y="467" on="0"/>
        <pt x="972" y="441" on="1"/>
        <pt x="963" y="374" on="1"/>
        <pt x="962" y="368" on="0"/>
        <pt x="959" y="360" on="0"/>
        <pt x="949" y="354" on="0"/>
        <pt x="930" y="351" on="0"/>
        <pt x="914" y="351" on="1"/>
        <pt x="914" y="351" on="0"/>
        <pt x="886" y="350" on="0"/>
        <pt x="836" y="350" on="0"/>
        <pt x="768" y="349" on="0"/>
        <pt x="728" y="348" on="1"/>
      </contour>
    </TTGlyph>
    <TTGlyph name="degree" xMin="131" yMin="558" xMax="1050" yMax="1448">
      <contour>
        <pt x="587" y="558" on="1"/>
        <pt x="491" y="558" on="0"/>
        <pt x="324" y="616" on="0"/>
        <pt x="201" y="727" on="0"/>
        <pt x="131" y="888" on="0"/>
        <pt x="131" y="990" on="1"/>
        <pt x="131" y="1083" on="0"/>
        <pt x="205" y="1250" on="0"/>
        <pt x="335" y="1375" on="0"/>
        <pt x="512" y="1448" on="0"/>
        <pt x="616" y="1448" on="1"/>
        <pt x="707" y="1448" on="0"/>
        <pt x="866" y="1389" on="0"/>
        <pt x="983" y="1281" on="0"/>
        <pt x="1050" y="1128" on="0"/>
        <pt x="1050" y="1035" on="1"/>
        <pt x="1050" y="946" on="0"/>
        <pt x="986" y="775" on="0"/>
        <pt x="866" y="640" on="0"/>
        <pt x="694" y="558" on="0"/>
      </contour>
      <contour>
        <pt x="756" y="991" on="1"/>
        <pt x="757" y="999" on="0"/>
        <pt x="758" y="1017" on="0"/>
        <pt x="758" y="1026" on="1"/>
        <pt x="758" y="1056" on="0"/>
        <pt x="744" y="1123" on="0"/>
        <pt x="712" y="1178" on="0"/>
        <pt x="659" y="1214" on="0"/>
        <pt x="619" y="1214" on="1"/>
        <pt x="566" y="1214" on="0"/>
        <pt x="488" y="1175" on="0"/>
        <pt x="437" y="1112" on="0"/>
        <pt x="411" y="1034" on="0"/>
        <pt x="411" y="994" on="1"/>
        <pt x="411" y="963" on="0"/>
        <pt x="424" y="894" on="0"/>
        <pt x="457" y="836" on="0"/>
        <pt x="513" y="797" on="0"/>
        <pt x="557" y="796" on="1"/>
        <pt x="605" y="796" on="0"/>
        <pt x="676" y="831" on="0"/>
        <pt x="724" y="887" on="0"/>
        <pt x="751" y="956" on="0"/>
      </contour>
    </TTGlyph>
</ttFont>
